<svg id="Camada_2" data-name="Camada 2" xmlns="http://www.w3.org/2000/svg" width="256.338" height="256.712" viewBox="0 0 256.338 256.712">
  <path id="Caminho_433" data-name="Caminho 433" d="M124.87,147.46c-1.43,2.989-.964,4.113-3.406,4.933,0,0-9.946,25.435-24.937,29.516a29.953,29.953,0,0,1-5.109.627,30.219,30.219,0,0,1-5.109-.627c-14.975-4.081-25.868-29.419-25.868-29.419-2.458-.819-3.213-3.808-4.692-6.813s0-23.426,0-23.426l35.67,1.607,34.256-1.607S126.268,144.455,124.87,147.46Z" transform="translate(33.426 74.177)" fill="#e8c5a6"/>
  <path id="Caminho_434" data-name="Caminho 434" d="M95.34,126.613s2.651,20.647.707,29.018c0,0,2.764-8.275,2.249-12.051l1.221,9.191s2.249-21.45,1.237-27.781Z" transform="translate(57.846 75.84)" fill="#f4e152"/>
  <path id="Caminho_435" data-name="Caminho 435" d="M60.1,127.221S59.492,148.574,61.709,155c0,0-6.122-24.1-5.608-28.921" transform="translate(34.02 76.501)" fill="#f4e152"/>
  <path id="Caminho_436" data-name="Caminho 436" d="M55.24,137.315l1.832-25.322S79.662,110,90.363,110s35.348,2.731,35.348,2.731l.835,21.386s.675,2.041-2.731,3.213a144.879,144.879,0,0,1-32.89,4.354C76.963,141.669,65.25,140.528,55.24,137.315Z" transform="translate(33.516 66.745)" fill="#282421"/>
  <path id="Caminho_437" data-name="Caminho 437" d="M98.26,126.863s14.846,2.185,21.659-3.213,18.8-16.212,24.921-16.614,18.124,3.406,22.751,2.989,12.259-5.575,12.854-7.761c0,0-32.954-1.767-38.819.546s-26.431,12.854-30.11,13.625a69.957,69.957,0,0,1-11.858.129Z" transform="translate(59.618 61.659)" fill="#282421"/>
  <path id="Caminho_438" data-name="Caminho 438" d="M99.4,119.723s22.35-14.461,25.21-16.9a26.7,26.7,0,0,1,20.165-5.447c9.64,1.366,27.925,3.133,31.862,5.318,0,0,5.591-1.767,6.684-4.82,0,0-17.578-6.427-34.882-5.993s-33.372,9.046-41.406,15.7-9.528,8.612-9.528,8.612Z" transform="translate(59.157 55.736)" fill="#282421"/>
  <path id="Caminho_439" data-name="Caminho 439" d="M64.79,115.392s33.243-.4,41.422,1.607c0,0,2.346.241,2.442,6.266a71.291,71.291,0,0,1-.37,9.64s0,1.607-3.31,1.767c-4.82.353-25.708,1.366-39.365,0,0,0-1.767-.4-1.767-4.081V117.24S63.713,115.408,64.79,115.392Z" transform="translate(38.732 69.996)" fill="#c4c4c4"/>
  <path id="Caminho_440" data-name="Caminho 440" d="M58.034,159.131V141.923l-5.72,7.086,5.72-15.264L47.14,139.625l10.074-15.682-8.692-12.549,12,6.266L59.9,93.56l9.64,11.713s-.129-16.742,5.383-21.5L83.1,97.432s8.034-12.854,17.16-16.212l4.37,14.3L122.3,89.4l-2.153,13.481,5.045-3-2.041,4.37h16.067l-7.712,9.64s9.93,2.137,11.472,3.712l-7.568,3.744s8.307,4.627,10.749,8.853a38.449,38.449,0,0,1-11.247,3.213l6.845,5.913-8.484-2.507,3.824,15.939-12.854-15.939-1.43,19.281-9.64-27.523s-28.054-1.093-34.866,1.093l-2.86,29.419-7.359-23.057Z" transform="translate(28.602 49.283)" fill="#f4e152"/>
  <path id="Caminho_441" data-name="Caminho 441" d="M162.34,73.23s1.751.739,1.607,2.089-6.154,21.643-6.154,21.643.37,2.731-5.543,1.816Z" transform="translate(92.376 44.435)" fill="#91632f"/>
  <path id="Caminho_442" data-name="Caminho 442" d="M111.469,73.18l-1.366.627s-.675.466-.386,2.089l5.736,21.1s.643,2.635,6.636,1.446l-6.218-20.6Z" transform="translate(66.526 44.404)" fill="#91632f"/>
  <path id="Caminho_443" data-name="Caminho 443" d="M113.54,92.015l10.09,36.81,8.982,8.564,8.451,4.82h10.894l8.709-3.776,10.09-9.64,8.708-27.668L181.65,87.5s1.093-10.347,0-11.44-5.174-11.986-5.174-11.986l-5.72-6.8-15.264-2.731L138.38,54s-8.435,0-11.247,1.093a97.379,97.379,0,0,0-9.8,5.72L114.6,71.979Z" transform="translate(68.889 32.767)" fill="#a9793f"/>
  <path id="Caminho_444" data-name="Caminho 444" d="M146.837,90.72h-8.982s-.691,3.213-15.666,3.213l5.174,21.257a14.605,14.605,0,0,0,13.9,9.4c10.749,0,13.223-5.045,14.7-7.632l6.427-23.025S151.883,94.271,146.837,90.72Zm5.72,23.844c-2.989,3.213-10.476,3.535-10.476,3.535s-7.632-.819-10.09-2.989-3.679-14.461-3.679-14.461h27.523S155.626,111.286,152.557,114.564Z" transform="translate(74.137 55.047)" fill="#d7d7d8"/>
  <path id="Caminho_445" data-name="Caminho 445" d="M129,99.976a24.1,24.1,0,0,0,16.067-1.366,8.4,8.4,0,0,1-7.07,4.226,12.709,12.709,0,0,1-9-2.86Z" transform="translate(78.269 59.834)" fill="#d7d7d8"/>
  <path id="Caminho_446" data-name="Caminho 446" d="M137.45,79.891V75.81h14.027l4.772,4.081-5.318-.546Z" transform="translate(83.396 46)" fill="#d7d7d8"/>
  <path id="Caminho_447" data-name="Caminho 447" d="M138.943,79.891V75.81H124.916l-4.756,4.081,5.3-.546Z" transform="translate(72.906 46)" fill="#d7d7d8"/>
  <path id="Caminho_448" data-name="Caminho 448" d="M117.658,109.252l.675-12.661,7.487-9.335V71.927s24.1-7.343,48.074,0v15.81l7.5,8.853.4,12.115s4.5-13.9,7.086-15.939c0,0,4.226-29-5.865-41.132,0,0-16.533-10.074-32.842-10.074s-34.3,10.347-34.3,10.347-9.383,10.492-5.029,40.731C110.845,92.638,115.746,98.358,117.658,109.252Z" transform="translate(66.555 25.219)" fill="#efefef"/>
  <path id="Caminho_449" data-name="Caminho 449" d="M115.881,51.337A94.8,94.8,0,0,1,138.375,42.5V68.883a82.62,82.62,0,0,0-12.581,2.474V86.685l-7.487,9.271-.675,12.661C115.72,97.724,110.82,92,110.82,92,106.5,61.829,115.881,51.337,115.881,51.337Z" transform="translate(66.548 25.79)" fill="#d7d7d8"/>
  <path id="Caminho_450" data-name="Caminho 450" d="M169.515,92.263c-2.587,2.041-7.086,15.939-7.086,15.939l-.4-12.115-7.5-8.853V71.424a73.38,73.38,0,0,0-12.854-2.651V42.39a82.249,82.249,0,0,1,21.916,8.741C173.708,63.262,169.515,92.263,169.515,92.263Z" transform="translate(85.957 25.723)" fill="#d7d7d8"/>
  <path id="Caminho_451" data-name="Caminho 451" d="M109.8,61.35l16.067,9.432v4.467l-7.487,9.271-.675,12.661C115.8,86.287,110.9,80.567,110.9,80.567A97.272,97.272,0,0,1,109.8,61.35Z" transform="translate(66.569 37.227)" fill="#c4c3c4"/>
  <path id="Caminho_452" data-name="Caminho 452" d="M164.661,80.693c-2.587,2.041-7.086,15.939-7.086,15.939l-.4-12.115-7.5-8.853V70.458l15.7-9a104.714,104.714,0,0,1-.707,19.233Z" transform="translate(90.811 37.293)" fill="#c4c3c4"/>
  <path id="Caminho_453" data-name="Caminho 453" d="M157.457,86.6l-.273.9a1.719,1.719,0,0,1,1.028,1.607,1.679,1.679,0,1,1-3.358,0,1.51,1.51,0,0,1,.129-.659l-.707-.675a2.491,2.491,0,0,0-.386,1.334,2.635,2.635,0,1,0,3.567-2.458Z" transform="translate(93.371 52.547)" fill="#f4e07b"/>
  <line id="Linha_7" data-name="Linha 7" x1="0.273" y2="0.9" transform="translate(250.555 139.147)" fill="none"/>
  <line id="Linha_8" data-name="Linha 8" x1="0.707" y1="0.675" transform="translate(247.647 140.272)" fill="none"/>
  <path id="Caminho_454" data-name="Caminho 454" d="M120.8,82.645c-4.531,11.954-5.865,14.75-9.174,18.365s-11.44,12.854-14.75,12.854H85.905c-3.31,0-14.75-8.419-18.06-12.034s-4.82-5.72-8.13-18.06,0-44.539,0-44.539C68.44,10.824,91.3,12.093,91.3,12.093s22.494-1.269,31.155,27.025C123.037,41.159,125.865,69.309,120.8,82.645Z" transform="translate(35.339 7.336)" fill="#f2d8bd"/>
  <path id="Caminho_455" data-name="Caminho 455" d="M55.88,52.612V50.684a11.055,11.055,0,0,1,3.406-.45s-.337-9.207,6.668-11.247a28.616,28.616,0,0,1,12.613-1.8c8.162.37,9.849,2.7,10.267,3.213s2.78,2.3,1.093,7.744-8.95,13.882-15.2,14.782-9.817.868-13.159-4.82a22.381,22.381,0,0,1-1.9-5.318S59.527,52.419,55.88,52.612Z" transform="translate(33.905 22.507)" fill="#423a34"/>
  <path id="Caminho_456" data-name="Caminho 456" d="M115.252,52.6V50.675a11.1,11.1,0,0,0-3.358-.45s.337-9.207-6.652-11.247a28.616,28.616,0,0,0-12.677-1.767c-8.162.37-9.865,2.7-10.283,3.213s-2.78,2.249-1.044,7.761,8.95,13.882,15.184,14.782,9.833.868,13.175-4.82a22,22,0,0,0,1.88-5.318S111.589,52.411,115.252,52.6Z" transform="translate(48.908 22.515)" fill="#423a34"/>
  <path id="Caminho_457" data-name="Caminho 457" d="M71.837,37.29h24.23l-2.49.787H73.155L71.5,37.515Z" transform="translate(43.382 22.629)" fill="#423a34"/>
  <path id="Caminho_458" data-name="Caminho 458" d="M76.93,41.572a3.037,3.037,0,0,1,3.117-2.33,3.1,3.1,0,0,1,3.422,2.185l-.337.723s-.723-2.266-2.651-2.266a2.715,2.715,0,0,0-2.989,2.2C77.492,43.115,76.93,41.572,76.93,41.572Z" transform="translate(46.676 23.793)" fill="#423a34"/>
  <path id="Caminho_459" data-name="Caminho 459" d="M64.559,89.979s-2.249-1.285-1.35-12.709c0,0-1.269-2.812-.225-14.155a14.718,14.718,0,0,1,2.555-7.407,12.211,12.211,0,0,0,2.555-7.375s3.92.98-.514,8.869c0,0-3.39,4.226-.225,7.761,0,0,1.494,1.269,2.7.9,0,0-2.924-2.33-2.185-4.82a8.821,8.821,0,0,1,2.185-3.76s2.041-1.735,1.51-5.865,5.222-6.845,5.222-6.845a11.809,11.809,0,0,1-2.715,7.295,8.435,8.435,0,0,0,1.88,8.95c4,4.66,2.715,10.46-.225,14.38s-5.254,8.95-2.86,11.36,4.676,4.354,3.471,5.945-1.735,1.205-3.615,2.024a2.731,2.731,0,0,0-1.51,3.615,2.008,2.008,0,0,0,2.86.675s-2.024-.675-1.494-1.607.45-1.735,3.679-2.33,3.39-2.346,3.39-3.551-1.35-2.249-4.065-3.535A4.82,4.82,0,0,1,73.4,81.479a66.55,66.55,0,0,1,5.64-8.95c1.96-2.41,1.607-8.034-.546-12.067a11.1,11.1,0,0,1,0-10.155c1.012-1.35,6.427-5.816,7.166-8.178,0,0,.787,3.487-2.362,10.6a8.323,8.323,0,0,0,.836,6.427c1.864,3.888,3.213,7.1,2.651,8.966s-1.607,2.651-3.84,3.679-5.463,5.527-5.19,8.034-.273,2.587,1.928,4.74,4.338,4.226,4,6.427-3.213,5.591-4.29,6.941a3.567,3.567,0,0,0,.177,4.4,18.477,18.477,0,0,0,2.812,1.864,1.607,1.607,0,0,0,1.928-1.414s-1.607,1.189-2.041.45-1.173-1.35-.723-2.764S84.82,93.192,84.5,90.123a23.555,23.555,0,0,0-3.326-8.468c-.627-.836-.787-5.64,1.751-6.989a10.347,10.347,0,0,0,5.254-7.455c.225-2.989-2.49-9.255-1.976-11.5a11.761,11.761,0,0,1,3.888-6.78c2.651-2.474,2.2-8.58,1.864-9.3a6.78,6.78,0,0,0-1.928-2.667s4.178-2.651,12.934-1.3a6.266,6.266,0,0,0,3.953,9.881c3.487,1.012,3.213,4.676,2.025,4.965s-5.479,1.751-4.676,4.627a2.539,2.539,0,0,0,3.551,2.024,2.169,2.169,0,0,0,1.237-1.848s-2.2,1.51-2.876,0a1.928,1.928,0,0,1,1.462-2.6c.739-.225,4.178-1.077,4.82-3.213s-6.941-6.877-7.1-7.616-2.314-1.462.273-4.676a39.332,39.332,0,0,0,5.543-2.266,6.941,6.941,0,0,1-1.141,3.213,4.129,4.129,0,0,0,2.153,5.415c3.728,2.024,5.865,4.4,3.39,7.118a2.828,2.828,0,0,0,2.989-3.278c-.289-3.487-4.065-5.3-4.29-6.2a4.322,4.322,0,0,1,2.539-5.077s-1.237,4.113,3.728,6.877c0,0,4.965,1.816,4.338,6.78,0,0-1.189,3.888,1.751,5.865s1.494,16.067,1.494,16.067l-2.458,9.93s.4,7.343-4,9.64a3.455,3.455,0,0,0,3.615-1.3,7.68,7.68,0,0,0,1.783-4.435,4.643,4.643,0,0,0,5.527,2.49s2.024-.177,3.326-3.342,1.8-.45,1.8-.45.337-2.539-1.237-1.976-1.012,3.567-3.728,3.567-2.426-5.077-1.976-5.479a5.286,5.286,0,0,1,4.017-3.438c3.438-.787,3.663-5.543,3.6-6.6s-2.073-4.917-1.8-6.331,1.462-2.924,2.715-1.735-1.077,2.812,1.607,3.888a2.651,2.651,0,0,0,1.912-.627,2.121,2.121,0,0,1-1.607-2.024,9.48,9.48,0,0,1,.161-2.539.707.707,0,0,0-.562-.627s-4.29-.337-4.178-2.539a7.744,7.744,0,0,1,2.378-4.29,5.608,5.608,0,0,0,1.06-6.041,30.094,30.094,0,0,1-.611-12.468c.45-2.474,2.426-7.728-.9-13.593A52.187,52.187,0,0,0,128.2,9.642a21.273,21.273,0,0,0-10.122-2.523c-5.415.161-7.905-1.816-9.415-3.5A9.335,9.335,0,0,0,99.746,2.01C96.918,3.215,89.527,0,87.438,0S82.088-.32,76.191,5.368c-2.619,2.539-.434,2.667-3.085,4.4s-6.668,3.326-7.953,5.8S63.739,22,61.94,23.99s-7.793,5.752-8.516,10.717,1.285,7.793,0,10.492-4.178,6.331-1.3,10.058,3.1,4.627,2.024,6.314-3.712,4.451-3.213,6.266a2.1,2.1,0,0,0,1.912,1.8,2.507,2.507,0,0,1-.289-3.213c1.077-2.137,3.213-2.089,3.728-3.953a6.17,6.17,0,0,0-.112-3.5s3.39,2.6,2.2,5.543-3.888,4.161-3.213,6.941,3.39,2.764,3.39,5.3a6.427,6.427,0,0,1-.8,3.615s2.78-1.077,3.213-2.6c0,0-.9,6.973,1.125,10.106a5.077,5.077,0,0,0,2.474,2.1Z" transform="translate(30.866 0.002)"/>
  <path id="Caminho_460" data-name="Caminho 460" d="M65.57,61.49a5.383,5.383,0,0,1-3.31,5.27c-3.728,1.751-7.279,5.013-7.279,5.8a10.379,10.379,0,0,0,1.35,5.431c1.028,1.976-2.587,5.013-3.213,6.6s-1.864,4,1.607,4.451c0,0-2.266-2.989-.964-4.563s4.66-2.153,5.3-3.39a4.949,4.949,0,0,0,0-5.254c-1.35-2.362,1.253-3.776,3.342-3.615,0,0-2.266,1.51-1.077,3.053s4.676,4.338,4.627,7.5-2.651,2.764-2.49,5.415.45,4.354,1.607,4.627a9.641,9.641,0,0,0,3.213.627s-3.213-.562-3.053-3.053,2.314-3.487,3.567-4.113a4.4,4.4,0,0,0,2.876-4.4,5.447,5.447,0,0,0-3.117-4.386,4.82,4.82,0,0,1-1.06-3.567c.273-2.041.273-3.213.723-3.1s2.458,2.812,3.487,3.037a5.206,5.206,0,0,0,2.78.112S68.478,70.841,65.57,61.49Z" transform="translate(31.782 37.312)"/>
  <path id="Caminho_461" data-name="Caminho 461" d="M100.6,60.67a16.212,16.212,0,0,0,4.82,8.162c3.776,3.1,4.82,8.355,3.1,10.38s-3.551,5.19-1.607,7.391,3.728,5.993,1.3,6.829c0,0,1.285-3.374-.739-4.451s-4.065-1.462-3.551-3.888,4.113-5.415,3.487-8.034a9.367,9.367,0,0,0-4.049-4.933,2.94,2.94,0,0,1-1.446-2.892,1.848,1.848,0,0,0-.964,2.49c.675,1.8,3.438,5.4,2.764,7.15s-4.065,2.924-4.29,6.09a6.106,6.106,0,0,0,.675,2.651,3.213,3.213,0,0,1,.337,2.378l-2.426.337s1.3-1.028.964-2.153-2.024-2.523-1.912-3.856a7.857,7.857,0,0,1,1.462-4.435,3.679,3.679,0,0,0,1.076-2.153,7.761,7.761,0,0,1-4.065,2.539c-2.265.353-4.178.514-4.74,3.213a2.458,2.458,0,0,1,1.189-3.213c2.089-1.173,1.8-2.474,2.876-3.487a3.953,3.953,0,0,0,1.526-4.065,11.151,11.151,0,0,0-4.4,3.615,8.034,8.034,0,0,1-5.27,3.214S98.706,67.724,100.6,60.67Z" transform="translate(52.616 36.814)"/>
  <path id="Caminho_462" data-name="Caminho 462" d="M81.8,88.854V107.83s-1.012,4.708-4.676,6.218c0,0-5.8,13.545-9.865,19.827l-13.513,19.04-12.854,3.326-12.854-3.326L15.553,134.807c-4.065-6.282-10.878-20.759-10.878-20.759C1.012,112.537,0,107.83,0,107.83V88.854c0-6.041,4.676-5.415,4.676-5.415s-1.35-5.929,0-19.281S32.52,44.026,32.52,44.026C34.368,40.7,40.891,40.7,40.891,40.7s6.539,0,8.387,3.326c0,0,26.479,6.877,27.845,20.181s0,19.281,0,19.281S81.8,82.813,81.8,88.854Z" transform="translate(0 24.698)" fill="#e53514"/>
  <path id="Caminho_463" data-name="Caminho 463" d="M72.4,103.306a10.845,10.845,0,0,1-.257,3.213c-1.783,8.564-11.97,19.683-16.533,28.825a16.823,16.823,0,0,1-1.269,2.121C48.8,145.322,39.126,143.2,39.126,143.2a15.939,15.939,0,0,1-14.589-6.748,14.67,14.67,0,0,1-1.3-2.121c-4.547-9.062-15.184-19.377-17.08-27.781a10.733,10.733,0,0,1-.289-3.213C6.605,94.469,2.91,58.992,2.91,58.992c2.217-8.869,19.956-5.174,19.956-5.174,10.3,20.888,22.494,23.442,32.52,0,0,0,17.674-3.7,19.972,5.174C75.358,58.96,71.662,94.437,72.4,103.306Z" transform="translate(1.766 32.194)" fill="#e5ac0c"/>
  <path id="Caminho_464" data-name="Caminho 464" d="M53.659,86.35c-1.783,8.564-11.97,19.683-16.533,28.825a16.825,16.825,0,0,1-1.269,2.121,15.36,15.36,0,0,1-2.249-11.022C35.005,95.026,47.618,88.744,53.659,86.35Z" transform="translate(20.251 52.395)" fill="#a57a13"/>
  <path id="Caminho_465" data-name="Caminho 465" d="M23.311,116.316a14.669,14.669,0,0,1-1.3-2.121C17.463,105.069,6.826,94.753,4.93,86.35c6.025,2.394,18.59,8.676,19.988,19.924a16.244,16.244,0,0,1-1.607,10.042Z" transform="translate(2.991 52.395)" fill="#a57a13"/>
  <path id="Caminho_466" data-name="Caminho 466" d="M16.77,97.65l2.667-3.39H42.092l2.555,3.39-2.764-1.687H19.437Z" transform="translate(10.175 57.194)" fill="#463415"/>
  <path id="Caminho_467" data-name="Caminho 467" d="M9.68,74.012,11.7,70.59l16.437,2.555,2.169,4.081Z" transform="translate(5.873 42.833)" fill="#fff"/>
  <path id="Caminho_468" data-name="Caminho 468" d="M50.209,74.124,48.232,70.67,31.763,72.984,29.53,77.033Z" transform="translate(17.917 42.882)" fill="#fff"/>
  <path id="Caminho_469" data-name="Caminho 469" d="M25.162,64.9s-5.64-6.539-5.077-10.862S33.565,51.8,33.565,51.8s3.326.932,2.137,2.78c0,0-9.64-1.205-12.2-.1S25.162,64.9,25.162,64.9Z" transform="translate(12.162 31.127)" fill="#a62317"/>
</svg>
