<svg id="Grupo_8" data-name="Grupo 8" xmlns="http://www.w3.org/2000/svg" xmlns:xlink="http://www.w3.org/1999/xlink" width="725.396" height="504" viewBox="0 0 725.396 504">
  <defs>
    <linearGradient id="linear-gradient" x1="0.5" y1="0.177" x2="0.5" y2="1.567" gradientUnits="objectBoundingBox">
      <stop offset="0" stop-color="#fff" stop-opacity="0"/>
      <stop offset="1" stop-color="#424242" stop-opacity="0.239"/>
    </linearGradient>
  </defs>
  <g id="Grupo_6" data-name="Grupo 6" transform="translate(25 25.668)">
    <g id="Camada_2" data-name="Camada 2" transform="translate(173.614)">
      <g id="LEFT_FEET" data-name="LEFT FEET" transform="translate(103.165 180.257)">
        <path id="Caminho_297" data-name="Caminho 297" d="M119.122,340.974l-.441,11.505-.608,15.917h-10.73l-1.1-11.577L104.66,340.08Z" transform="translate(-83.039 -114.875)" fill="#ecbdbb"/>
        <path id="Caminho_298" data-name="Caminho 298" d="M119.122,340.974l-.441,11.505-12.435,4.34L104.66,340.08Z" transform="translate(-83.039 -114.875)" fill="#404b7c"/>
        <path id="Caminho_299" data-name="Caminho 299" d="M99.156,408.623l52.6.143s2.194-20.912-14.951-23.595a8.341,8.341,0,0,1-1.514-.393c-9.276-3.422-13.58-24.048-13.58-24.048s-11.028-2.683-17.586,1.049c0,0-4.459,21.58-5.174,40.084C98.858,404.343,99.085,406.322,99.156,408.623Z" transform="translate(-84.141 -111.084)" fill="#404b7c"/>
        <path id="Caminho_300" data-name="Caminho 300" d="M126.667,389.1a.549.549,0,0,1-.227,0,20.7,20.7,0,0,1-8.155-7.368c-4.769-6.939-8-19.768-8.143-20.268a.6.6,0,0,1,.441-.715.572.572,0,0,1,.715.429c0,.131,3.314,13.115,7.964,19.923a20.006,20.006,0,0,0,7.63,6.951.6.6,0,0,1,.334.775.608.608,0,0,1-.56.274Z" transform="translate(-81.988 -110.906)" fill="#9ab3da"/>
        <path id="Caminho_301" data-name="Caminho 301" d="M98.677,405.18h53.5s2.086-21.6-15.058-24.286a8.341,8.341,0,0,1-1.514-.393c-4.984,1.824-11.577,6.343-14.033,17.478H98.724C98.629,400.458,98.605,402.879,98.677,405.18Z" transform="translate(-84.197 -107.104)" fill="#9ab3da"/>
        <ellipse id="Elipse_34" data-name="Elipse 34" cx="3.613" cy="6.999" rx="3.613" ry="6.999" transform="translate(19.988 264.86)" fill="#9ab3da"/>
        <path id="Caminho_302" data-name="Caminho 302" d="M105.512,372.425S91.61,268.1,87.234,240.275c0,0-5.961-87.428,16.692-89.014s31.8,23.44,33.383,40.537-8.346,158.963-12.721,181.223Z" transform="translate(-86.525 -151.19)" fill="#f68d88"/>
        <path id="Caminho_303" data-name="Caminho 303" d="M128.7,186.453a.536.536,0,0,1-.227,0c-9.359-4.829-11.791-17.121-11.923-17.645a.513.513,0,0,1,.405-.6.525.525,0,0,1,.608.405c0,.119,2.384,12.328,11.35,16.93a.525.525,0,0,1,.227.692.536.536,0,0,1-.441.215Z" transform="translate(-80.754 -147.919)" fill="#ecbdbb"/>
        <ellipse id="Elipse_35" data-name="Elipse 35" cx="15.499" cy="10.063" rx="15.499" ry="10.063" transform="translate(23.709 149.15) rotate(-89.87)" fill="#f9d4d4"/>
        <path id="Caminho_304" data-name="Caminho 304" d="M109.606,359.861a.513.513,0,0,1-.513-.465c-5.007-61-14.8-146.087-14.9-146.933a.525.525,0,0,1,.453-.572.537.537,0,0,1,.572.453c.1.858,9.9,85.962,14.9,146.957a.525.525,0,0,1-.477.56Z" transform="translate(-85.052 -139.52)" fill="#ecbdbb"/>
        <path id="Caminho_305" data-name="Caminho 305" d="M97.45,336.122s17.49-5.568,30.808.6l-1.991,15.69-27.815.2Z" transform="translate(-84.425 -116.079)" fill="#f9d4d4"/>
      </g>
      <g id="RIGHT_FEET" data-name="RIGHT FEET" transform="translate(8.115 179.761)">
        <path id="Caminho_306" data-name="Caminho 306" d="M95.571,206.59a.5.5,0,0,1-.465-.31.513.513,0,0,1,.274-.668c3.7-1.538,7.821-3.672,8.048-4.447.322-1.109,1.061-21.031,1.478-34.146a.477.477,0,0,1,.525-.489.489.489,0,0,1,.489.525c-.107,3.362-1.049,32.894-1.5,34.409s-6.736,4.3-8.644,5.091a.561.561,0,0,1-.2.036Z" transform="translate(10.166 -147.746)" fill="#ecbdbb"/>
        <path id="Caminho_307" data-name="Caminho 307" d="M71.663,167.985s-5.961,6.4-6.116,7.75S39.317,335.342,35.74,379.062H53.278s55.249-157.378,56.441-164.138,2.385-46.1,1.979-57.228S83.287,148.063,71.663,167.985Z" transform="translate(-1.24 -150.774)" fill="#f68d88"/>
        <path id="Caminho_308" data-name="Caminho 308" d="M97.874,212.779h-.1a.513.513,0,0,1-.417-.584c.906-5.127,1.884-30.2,2.039-47.154a.477.477,0,0,1,.513-.5.513.513,0,0,1,.513.513c-.143,15.189-1.073,41.729-2.051,47.309A.525.525,0,0,1,97.874,212.779Z" transform="translate(10.606 -148.128)" fill="#ecbdbb"/>
        <path id="Caminho_309" data-name="Caminho 309" d="M61.453,188.724a.513.513,0,0,1-.036-1.025c.477,0,11.553-.918,13.842-15.368a.513.513,0,1,1,1,.167c-2.42,15.285-14.653,16.227-14.772,16.227Z" transform="translate(3.605 -146.726)" fill="#ecbdbb"/>
        <path id="Caminho_310" data-name="Caminho 310" d="M50.2,357.32h-.167a.525.525,0,0,1-.322-.656L99.491,210.016a.517.517,0,1,1,.978.334L50.692,357a.513.513,0,0,1-.489.322Z" transform="translate(1.442 -139.452)" fill="#ecbdbb"/>
        <ellipse id="Elipse_36" data-name="Elipse 36" cx="15.499" cy="10.063" rx="15.499" ry="10.063" transform="translate(47.455 147.825) rotate(-80.58)" fill="#f9d4d4"/>
        <path id="Caminho_311" data-name="Caminho 311" d="M51.633,340.08l-3.72,16.465L45.23,368.4H34.5l1.765-18.158.906-9.264Z" transform="translate(-1.478 -114.379)" fill="#ecbdbb"/>
        <path id="Caminho_312" data-name="Caminho 312" d="M36.886,340.974l14.462-.894-3.72,16.465L35.98,350.238Z" transform="translate(-1.193 -114.379)" fill="#404b7c"/>
        <path id="Caminho_313" data-name="Caminho 313" d="M59.6,408.421l-52.09.3S4.832,388.152,21.977,385.47a10.962,10.962,0,0,0,1.717-.525c9.276-3.422,13.484-24.215,13.484-24.215s11.028-2.683,17.586,1.049c0,0,4.352,21.461,5.067,40.012C59.926,404.272,59.676,406.12,59.6,408.421Z" transform="translate(-6.695 -110.589)" fill="#404b7c"/>
        <path id="Caminho_314" data-name="Caminho 314" d="M26.526,389.11a.608.608,0,0,1-.548-.37.6.6,0,0,1,.322-.775,19.887,19.887,0,0,0,7.642-6.951c4.65-6.76,7.917-19.791,7.952-19.923a.6.6,0,0,1,.727-.429.584.584,0,0,1,.429.715c-.131.548-3.362,13.377-8.131,20.268a20.674,20.674,0,0,1-8.167,7.368.488.488,0,0,1-.227.1Z" transform="translate(-3.125 -110.426)" fill="#9ab3da"/>
        <path id="Caminho_315" data-name="Caminho 315" d="M60.379,405.18H6.883s-2.086-21.6,15.058-24.286a8.336,8.336,0,0,0,1.514-.393c4.984,1.824,11.577,6.343,14.033,17.479H60.332C60.427,400.458,60.451,402.879,60.379,405.18Z" transform="translate(-6.803 -106.608)" fill="#9ab3da"/>
        <ellipse id="Elipse_37" data-name="Elipse 37" cx="3.613" cy="7.01" rx="3.613" ry="7.01" transform="translate(40.843 265.343)" fill="#9ab3da"/>
        <path id="Caminho_316" data-name="Caminho 316" d="M32.111,334.582l-1.991,17.1,26.432,1.788,4.173-15.9S45.822,331.005,32.111,334.582Z" transform="translate(-2.32 -115.642)" fill="#f9d4d4"/>
      </g>
      <g id="LEFT_ARM" data-name="LEFT ARM" transform="translate(128.2 91.741)">
        <path id="Caminho_317" data-name="Caminho 317" d="M129.4,79.943S154.041,109.2,164.521,140.2a11.147,11.147,0,0,1-.405,8.155c-3.577,7.893-10.253,24.3-14.307,26.683s-19.672-2.587-19.374-9.741,5.544-24.739,5.544-24.739-14.009-16.1-24.441-30.7S112.408,67.865,129.4,79.943Z" transform="translate(-107.524 -76.948)" fill="#9ab3da"/>
        <path id="Caminho_318" data-name="Caminho 318" d="M149.407,132.224a.68.68,0,0,1-.3-.072c-9.6-5.425-15.988-1.073-16.048-1.025a.608.608,0,0,1-.835-.155.6.6,0,0,1,.143-.823c.286-.2,7.082-4.769,17.335.954a.6.6,0,0,1-.3,1.121Z" transform="translate(-102.795 -67.088)" fill="#404b7c"/>
        <path id="Caminho_319" data-name="Caminho 319" d="M128.514,151.474l-2.814,8.048a11.8,11.8,0,0,0,5.961,6.557,14.426,14.426,0,0,0,8.823,1.49l5.389-9.538S139.936,147.5,128.514,151.474Z" transform="translate(-104.029 -62.791)" fill="#404b7c"/>
        <path id="Caminho_320" data-name="Caminho 320" d="M139.243,164.119c-3.1,6.092-10.73,18.981-13.115,22.438a23.058,23.058,0,0,1-7-8.8c4.042-7.4,9.085-19.2,9.085-19.2C136.322,156.369,139.243,164.119,139.243,164.119Z" transform="translate(-105.292 -61.332)" fill="#ecbdbb"/>
      </g>
      <g id="NECK" transform="translate(98.139 53.818)">
        <path id="Caminho_321" data-name="Caminho 321" d="M93.112,68.174l-10.8-.31,2.146-21.818.083-.906L92.957,46.4l.06,7.666Z" transform="translate(-82.31 -45.14)" fill="#ecbdbb"/>
        <path id="Caminho_322" data-name="Caminho 322" d="M92.67,54.07c-5.461-1.681-7.678-5.2-8.56-8.024l.083-.906L92.611,46.4Z" transform="translate(-81.964 -45.14)" fill="#404b7c"/>
      </g>
      <g id="BODY" transform="translate(59.08 66.352)">
        <path id="Caminho_323" data-name="Caminho 323" d="M63.12,155.158c.441,0,.143,14.605.6,14.605s9.979,3.72,20.113,3.279,41.729-1.347,50.373-7.309l.453-14.9C112.062,158.329,88.11,159.235,63.12,155.158Z" transform="translate(-46.941 -37.355)" fill="#404b7c"/>
        <path id="Caminho_324" data-name="Caminho 324" d="M93.35,156.668s.31,14.772.286,15.368,17.383-.525,18.063-.8.262-15.8.262-15.8S105.3,156.275,93.35,156.668Z" transform="translate(-41.129 -36.468)" fill="#f9d4d4"/>
        <path id="Caminho_325" data-name="Caminho 325" d="M70.755,154.868s-.215,17.145,0,17.514,4.328.739,4.328.739-.072-18.1-.3-18.182S71.137,154.343,70.755,154.868Z" transform="translate(-45.491 -36.623)" fill="#f9d4d4"/>
        <path id="Caminho_326" data-name="Caminho 326" d="M81.015,155.557s-.215,17.133,0,17.514,4.03,0,4.03,0,.227-17.371,0-17.443S81.385,155.033,81.015,155.557Z" transform="translate(-43.519 -36.49)" fill="#f9d4d4"/>
        <path id="Caminho_327" data-name="Caminho 327" d="M118.772,151.84s.167,17.109,0,17.514-3.04.536-3.04.536-.167-17.335,0-17.443S118.45,151.375,118.772,151.84Z" transform="translate(-36.84 -37.185)" fill="#f9d4d4"/>
        <path id="Caminho_328" data-name="Caminho 328" d="M75.06,58.249a34.885,34.885,0,0,1,30.927,2.241l-.894,9.681-28.1,1.86Z" transform="translate(-44.646 -55.653)" fill="#404b7c"/>
        <path id="Caminho_329" data-name="Caminho 329" d="M142.033,166l-4.316,3.124s-29.961,10.587-72.131,4.924l-9.1-8.346a210.071,210.071,0,0,0-1.323-27.315,77.126,77.126,0,0,0-2.253-11.589.412.412,0,0,0-.083-.286c-1.6-5.687-2.385-14.462-2.861-23.034-.334-6.855-.417-13.568-.417-18.468,0-4.566.083-7.535.083-7.535.453,0,23.547-12.96,45.163-13.27s45.747,18.194,45.747,18.194S145.908,129.035,142.033,166Z" transform="translate(-49.55 -54.01)" fill="#9ab3da"/>
        <path id="Caminho_330" data-name="Caminho 330" d="M128.8,132.321a.6.6,0,0,1-.6-.6c0-21.6-1.765-41.538-2.516-49.109a.6.6,0,0,1,.537-.656.608.608,0,0,1,.644.537c.751,7.583,2.5,27.565,2.528,49.228A.6.6,0,0,1,128.8,132.321Z" transform="translate(-34.912 -50.595)" fill="#404b7c"/>
        <path id="Caminho_331" data-name="Caminho 331" d="M61.055,104.019c-.608,8.584-2.134,23.034-5.89,31a77.127,77.127,0,0,0-2.253-11.589.412.412,0,0,0-.083-.286c-1.6-5.687-2.385-14.462-2.861-23.034-.334-6.855-.417-13.568-.417-18.468a33.6,33.6,0,0,1,7.487,7.893,22.4,22.4,0,0,1,4.018,14.486Z" transform="translate(-49.55 -50.657)" fill="#404b7c"/>
        <path id="Caminho_332" data-name="Caminho 332" d="M107.942,171.321h0a.6.6,0,0,1-.572-.62c2.647-57.908-18.218-103.44-18.42-103.893a.595.595,0,1,1,1.073-.513c.215.465,21.2,46.259,18.54,104.453a.6.6,0,0,1-.62.572Z" transform="translate(-41.987 -53.672)" fill="#404b7c"/>
        <path id="Caminho_333" data-name="Caminho 333" d="M111.634,171.23h0a.6.6,0,0,1-.572-.62c2.623-57.9-17.8-102.856-18.051-103.309a.6.6,0,1,1,1.085-.489c.2.441,20.745,45.663,18.087,103.845A.6.6,0,0,1,111.634,171.23Z" transform="translate(-41.208 -53.582)" fill="#404b7c"/>
        <path id="Caminho_334" data-name="Caminho 334" d="M63.952,155.595h0a.584.584,0,0,1-.584-.608c.3-13.306-4.519-44.483-4.566-44.8A.6.6,0,1,1,59.993,110c0,.31,4.876,31.607,4.578,45.008a.6.6,0,0,1-.62.584Z" transform="translate(-47.773 -45.303)" fill="#404b7c"/>
      </g>
      <g id="RIGHT_ARM" data-name="RIGHT ARM" transform="translate(0 35.204)">
        <path id="Caminho_335" data-name="Caminho 335" d="M57.406,75.33,23.129,110.06,9.12,151.932s27.565-3.72,53.2-31.142a44.769,44.769,0,0,0,6.855-24.6A24.286,24.286,0,0,0,57.406,75.33Z" transform="translate(1.758 -20.721)" fill="#9ab3da"/>
        <path id="Caminho_336" data-name="Caminho 336" d="M54.179,121.219a.572.572,0,0,1-.334-.119.6.6,0,0,1-.143-.835,44.531,44.531,0,0,0,6.748-24.286A23.845,23.845,0,0,0,51.675,77.5a.584.584,0,0,1-.083-.834.6.6,0,0,1,.835-.083,24.954,24.954,0,0,1,9.216,19.4,45.89,45.89,0,0,1-6.963,24.942.62.62,0,0,1-.5.3Z" transform="translate(9.897 -20.506)" fill="#404b7c"/>
        <path id="Caminho_337" data-name="Caminho 337" d="M18.028,75.83S10.576,82.685,7.44,88.206-1.347,128.146.287,137.231s10.587,14.605,10.587,14.605,16.692-6.259,19.672-21.6,4.03-33.932,3.577-38.45S30.248,80.6,30.248,80.6Z" transform="translate(0.004 -20.625)" fill="#9ab3da"/>
        <path id="Caminho_338" data-name="Caminho 338" d="M16.926,142.258a.584.584,0,0,1-.465-.227.6.6,0,0,1,.1-.835c5.639-4.459,9.085-9.788,10.265-15.833a226.254,226.254,0,0,0,3.148-24.274.584.584,0,0,1,.644-.548.6.6,0,0,1,.548.644,227.154,227.154,0,0,1-3.171,24.453c-1.192,6.331-4.829,11.923-10.73,16.549A.6.6,0,0,1,16.926,142.258Z" transform="translate(3.144 -15.875)" fill="#404b7c"/>
        <path id="Caminho_339" data-name="Caminho 339" d="M16.577,70.489,13,80.325A20.34,20.34,0,0,0,28.845,86.1l3.374-9.741S27.653,67.914,16.577,70.489Z" transform="translate(2.504 -21.746)" fill="#404b7c"/>
        <path id="Caminho_340" data-name="Caminho 340" d="M38.831,57.239,32.8,71.391,28.625,84.207c-7.678.37-10.885-4.614-10.885-4.614l5.365-8.727-.143-14.152s2.981-8.274,3.648-8.5a36.031,36.031,0,0,1,5.961,0l2.063-17.025a1.884,1.884,0,0,1,2.11-1.645h0a1.9,1.9,0,0,1,1.574,1.824Z" transform="translate(3.415 -29.527)" fill="#ecbdbb"/>
        <path id="Caminho_341" data-name="Caminho 341" d="M30.732,58.064H30.2c-2.277-.37-2.492-3.958-2.516-4.364a.6.6,0,1,1,1.192,0c0,.787.393,3.064,1.514,3.243a3.827,3.827,0,0,0,3.791-2.528,24.167,24.167,0,0,0-.644-7.559c-.2-.525-1.86-.858-2.945-.894a.6.6,0,0,1-.572-.62.656.656,0,0,1,.608-.572c.584,0,3.469.179,4.03,1.669a25.586,25.586,0,0,1,.692,8.143A5.055,5.055,0,0,1,30.732,58.064Z" transform="translate(5.326 -26.597)" fill="#404b7c"/>
        <path id="Caminho_342" data-name="Caminho 342" d="M28.879,62.849h-.1a.584.584,0,0,1-.489-.692,15.726,15.726,0,0,0-.489-7.917.6.6,0,0,1,1.109-.441,16.966,16.966,0,0,1,.56,8.572A.608.608,0,0,1,28.879,62.849Z" transform="translate(5.343 -24.932)" fill="#404b7c"/>
        <path id="Caminho_343" data-name="Caminho 343" d="M28.511,54.713A3.326,3.326,0,0,1,26.425,54a.584.584,0,0,1-.072-.835.62.62,0,0,1,.847-.072,2.122,2.122,0,0,0,1.657.393.608.608,0,0,1,.68.5.6.6,0,0,1-.5.68A2.766,2.766,0,0,1,28.511,54.713Z" transform="translate(5.043 -25.023)" fill="#404b7c"/>
        <path id="Caminho_344" data-name="Caminho 344" d="M32.127,54.056a.584.584,0,0,1-.6-.584,9.1,9.1,0,0,0-.584-3.7,27.254,27.254,0,0,0-5.139.334.608.608,0,0,1-.668-.513.6.6,0,0,1,.513-.668c1.121-.155,4.852-.6,5.771-.227s1.276,2.8,1.3,4.769a.6.6,0,0,1-.584.6Z" transform="translate(4.837 -25.868)" fill="#404b7c"/>
        <path id="Caminho_345" data-name="Caminho 345" d="M33.518,51.694a.6.6,0,0,1-.6-.572c-.06-1.466-.441-3.267-.882-3.493a15.821,15.821,0,0,0-5-.119.608.608,0,0,1-.644-.548.6.6,0,0,1,.548-.644c.739,0,4.519-.358,5.663.25s1.466,3.577,1.5,4.495a.608.608,0,0,1-.572.632Z" transform="translate(5.079 -26.319)" fill="#404b7c"/>
        <path id="Caminho_346" data-name="Caminho 346" d="M31.727,52.841a4.209,4.209,0,0,0,2.3,3.207,11.231,11.231,0,0,0-4.316,6.331c-1.192,4.4-.155,5.222-.155,5.222l5.866-2.015a4.769,4.769,0,0,0,2.838-2.551c1.574-3.386,4.7-10.23,4.864-11.231.227-1.347-1.419-2.158-3.279-1.562S31.87,52.173,31.727,52.841Z" transform="translate(5.606 -25.583)" fill="#ecbdbb"/>
        <path id="Caminho_347" data-name="Caminho 347" d="M35.639,56.74a7.822,7.822,0,0,1-.966,0,4.042,4.042,0,0,1-3.863-3.863.6.6,0,0,1,.119-.441c.131-.167.966-1.073,4.769-1.824a.572.572,0,0,1,.692.465.6.6,0,0,1-.465.7,11.4,11.4,0,0,0-3.887,1.264,2.778,2.778,0,0,0,2.694,2.516,9.538,9.538,0,0,0,3.768-.417.6.6,0,0,1,.763.37.608.608,0,0,1-.382.751,10.1,10.1,0,0,1-3.243.477Z" transform="translate(5.927 -25.476)" fill="#404b7c"/>
      </g>
      <g id="FACE" transform="translate(76.309)">
        <path id="Caminho_348" data-name="Caminho 348" d="M77.6,42.218s5.472,7.261,8.346,9.347,12.328,4.268,15.106,2.48S102.1,30.4,102.1,30.4s-7.356-10.635-18.182-5.961S77.6,42.218,77.6,42.218Z" transform="translate(-61.564 4.471)" fill="#ecbdbb"/>
        <path id="Caminho_349" data-name="Caminho 349" d="M111.44,37.258c-10.48,2.778-23.595-3.386-23.595-3.386a24.561,24.561,0,0,1-1.788,8.25l2.134,4.769-5.508,3.672S64,45.306,64,42.921s3.577-18.885,5.472-19.577a64.906,64.906,0,0,1,9.013-1.192A78.831,78.831,0,0,1,84.507,8.537c4.328,1.931,2.23,7.857,2.1,8.227L101.306,0c11.624,1.979,9.335,12.709,9.335,12.709a18.826,18.826,0,0,1,10.587-3.875C125.544,16.584,121.967,34.468,111.44,37.258Z" transform="translate(-64)" fill="#404b7c"/>
        <path id="Caminho_350" data-name="Caminho 350" d="M83.892,42.432a7.344,7.344,0,0,0-7.475-4.7,5.365,5.365,0,0,0-4.566,3.7c-2.683,6.76,9.931,9.931,13.306,4.173Z" transform="translate(-62.562 7.25)" fill="#ecbdbb"/>
        <path id="Caminho_351" data-name="Caminho 351" d="M82.944,44.819a.584.584,0,0,1-.489-.25c-3.148-4.495-8.215-2.277-8.429-2.182a.6.6,0,0,1-.787-.3.584.584,0,0,1,.3-.787s6.188-2.718,9.9,2.587a.6.6,0,0,1-.143.823A.62.62,0,0,1,82.944,44.819Z" transform="translate(-62.235 7.807)" fill="#404b7c"/>
        <path id="Caminho_352" data-name="Caminho 352" d="M77.11,46.041a.584.584,0,0,1-.584-.5,10.73,10.73,0,0,1,.346-4.471.628.628,0,1,1,1.192.393,9.431,9.431,0,0,0-.31,3.887.608.608,0,0,1-.5.68Z" transform="translate(-61.61 7.813)" fill="#404b7c"/>
      </g>
      <g id="FACE-2" data-name="FACE" transform="translate(102.097 36.017)">
        <path id="Caminho_353" data-name="Caminho 353" d="M85.63,36.05s.62-3.577,3.35-3.088c0,0-.167-1.6.441-1.8S90.7,33.749,90.7,33.749A14.009,14.009,0,0,0,85.63,36.05Z" transform="translate(-85.63 -30.028)" fill="#404b7c"/>
        <path id="Caminho_354" data-name="Caminho 354" d="M97.2,33.453s-.906-3.136-2.3-1.717c0,0-.167-1.574-.525-1.526-.811.119-.274,2.873-.274,2.873A4.507,4.507,0,0,1,97.2,33.453Z" transform="translate(-84.035 -30.209)" fill="#404b7c"/>
        <path id="Caminho_355" data-name="Caminho 355" d="M96.691,43.949a12.268,12.268,0,0,1-2.11,2.218c-1.335,1.025-2.981,1.562-4.03-.68A9,9,0,0,1,89.8,42.84S91.851,44.223,96.691,43.949Z" transform="translate(-84.828 -27.781)" fill="#404b7c"/>
        <path id="Caminho_356" data-name="Caminho 356" d="M94.46,45.77c-1.335,1.025-2.981,1.562-4.03-.68A4.674,4.674,0,0,1,94.46,45.77Z" transform="translate(-84.707 -27.384)" fill="#fff"/>
        <ellipse id="Elipse_38" data-name="Elipse 38" cx="1.377" cy="1.701" rx="1.377" ry="1.701" transform="translate(3.197 6.921) rotate(-9.744)" fill="#404b7c"/>
        <ellipse id="Elipse_39" data-name="Elipse 39" cx="0.358" cy="0.358" rx="0.358" ry="0.358" transform="translate(4.078 7.691)" fill="#fff"/>
        <ellipse id="Elipse_40" data-name="Elipse 40" cx="1.371" cy="1.693" rx="1.371" ry="1.693" transform="matrix(0.986, -0.165, 0.165, 0.986, 10.537, 5.924)" fill="#404b7c"/>
        <ellipse id="Elipse_41" data-name="Elipse 41" cx="0.358" cy="0.358" rx="0.358" ry="0.358" transform="translate(12.018 6.356)" fill="#fff"/>
        <path id="Caminho_357" data-name="Caminho 357" d="M93.552,42.814h-.238a.6.6,0,0,1-.548-.632.608.608,0,0,1,.644-.548s1.383.083,1.562-.775v-.191a2.158,2.158,0,0,0-1.347-.143.584.584,0,0,1-.68-.477l-.572-3.255a.584.584,0,0,1,.477-.692.6.6,0,0,1,.692.477l.477,2.718a2.385,2.385,0,0,1,1.812.548,1.323,1.323,0,0,1,.322,1.264,2.456,2.456,0,0,1-2.6,1.7Z" transform="translate(-84.336 -29.078)" fill="#404b7c"/>
      </g>
    </g>
    <g id="Camada_2-2" data-name="Camada 2" transform="translate(0 134.927)">
      <g id="PLANT" transform="translate(0 187.698)">
        <path id="Caminho_208" data-name="Caminho 208" d="M337.92,302.164c-7.979,5.367-21.028-25.737-21.924-34.421s5.719-3.679,5.719-3.679-6.263-28.092-2.335-36.652,7.435,1.2,7.435,1.2,2.974-28.978,15.766-31.59,2.3,29.464,2.3,29.464,5.224-8.026,10.381-5.881-9.971,38.529-9.971,38.529S351.17,252.7,356,254.712,350.226,293.88,337.92,302.164Z" transform="translate(-14.837 -196.871)" fill="#404b7c"/>
        <path id="Caminho_209" data-name="Caminho 209" d="M337.163,300.372a.486.486,0,0,1-.477-.391c-.086-.553-9.246-55.678,5.233-96.829a.477.477,0,1,1,.9.315c-14.394,40.913-5.281,95.8-5.186,96.352a.486.486,0,0,1-.391.553Z" transform="translate(-15.672 -197.148)" fill="#9ab3da"/>
        <path id="Caminho_210" data-name="Caminho 210" d="M333.709,258.4a.448.448,0,0,1-.286-.1c-9.056-6.6-10.285-22.963-10.333-23.65a.478.478,0,0,1,.953-.067c0,.162,1.23,16.291,9.694,22.763,1.554-1,9.837-7.073,15.385-25.461a.495.495,0,0,1,.953.267c-6.234,20.676-15.7,25.966-16.1,26.185A.439.439,0,0,1,333.709,258.4Z" transform="translate(-15.173 -198.492)" fill="#9ab3da"/>
        <path id="Caminho_211" data-name="Caminho 211" d="M334.908,288.411a.322.322,0,0,1-.133,0c-5.51-1.7-9.685-12.306-9.856-12.754a.477.477,0,1,1,.887-.343c0,.1,4.07,10.323,9.027,12.116,1.049-.763,6.444-5.157,10.609-16.977a.477.477,0,1,1,.9.315c-4.766,13.431-10.914,17.435-11.172,17.6A.477.477,0,0,1,334.908,288.411Z" transform="translate(-15.256 -200.296)" fill="#9ab3da"/>
        <path id="Caminho_212" data-name="Caminho 212" d="M335.975,231.8h0a.505.505,0,0,1-.334-.162c-2.621-3.041-3.212-12.6-3.241-13.012a.467.467,0,0,1,.448-.5.477.477,0,0,1,.505.448c0,.086.543,8.8,2.688,12.011,1.3-1.363,5.529-6.177,7.025-11.839a.458.458,0,0,1,.582-.334.477.477,0,0,1,.343.581c-1.84,6.93-7.426,12.392-7.626,12.668a.457.457,0,0,1-.391.133Z" transform="translate(-15.609 -197.866)" fill="#9ab3da"/>
        <path id="Caminho_213" data-name="Caminho 213" d="M348.625,303.982c-9.141,1.649-8.579-30.942-6.015-38.987s6.463-1.049,6.463-1.049,5.386-27.281,12.2-33.363,6.11,3.956,6.11,3.956,13.908-24.479,26.242-21.81-9.437,26.957-9.437,26.957,7.74-5.062,11.439-1.163-23.831,30.2-23.831,30.2,7.7-3.393,11.191.257S362.761,301.447,348.625,303.982Z" transform="translate(-16.01 -197.604)" fill="#9ab3da"/>
        <path id="Caminho_214" data-name="Caminho 214" d="M348.557,301.861h-.114a.477.477,0,0,1-.343-.581c.133-.524,13.479-52.856,42.3-83.627a.477.477,0,0,1,.677,0,.486.486,0,0,1,0,.677c-28.664,30.589-41.942,82.683-42.085,83.2A.477.477,0,0,1,348.557,301.861Z" transform="translate(-16.342 -197.837)" fill="#404b7c"/>
        <path id="Caminho_215" data-name="Caminho 215" d="M363.38,263.309a.5.5,0,0,1-.41-.238c-5.443-9.37-.162-24.336.067-24.965a.477.477,0,0,1,.9.324c-.057.152-5.252,14.87-.3,23.888,1.792-.3,11.439-2.459,23.5-16.539a.477.477,0,0,1,.724.62c-13.536,15.871-24.021,16.872-24.441,16.91Z" transform="translate(-16.924 -198.786)" fill="#404b7c"/>
        <path id="Caminho_216" data-name="Caminho 216" d="M352.848,290.429a.486.486,0,0,1-.315-.124c-4.213-3.651-3.813-14.661-3.756-15.128a.458.458,0,0,1,.5-.458.486.486,0,0,1,.458.5c0,.114-.429,10.7,3.26,14.222,1.239-.276,7.712-2.078,15.967-10.886a.477.477,0,1,1,.7.648c-9.408,10.037-16.443,11.172-16.739,11.219Z" transform="translate(-16.373 -200.512)" fill="#404b7c"/>
        <path id="Caminho_217" data-name="Caminho 217" d="M375.8,240.541a.514.514,0,0,1-.21,0,.457.457,0,0,1-.248-.3c-1.134-3.708,2.059-12.392,2.2-12.764a.477.477,0,1,1,.887.324c0,.086-2.926,7.969-2.3,11.648,1.7-.715,7.283-3.317,10.8-7.721a.467.467,0,0,1,.667-.076.477.477,0,0,1,.076.667c-4.328,5.424-11.439,8.122-11.715,8.236A.447.447,0,0,1,375.8,240.541Z" transform="translate(-17.606 -198.285)" fill="#404b7c"/>
        <path id="Caminho_218" data-name="Caminho 218" d="M332.236,308.444a3.308,3.308,0,0,1-2.478.3c-13.888-3.584-35.46-34.049-31.7-37.443s10.819.391,11.172.572c-.534-.591-25.442-28.311-21.476-31.885s10.972,1.735,11.334,2.011c-.334-.448-12.573-16.472-11.439-23.916a3.05,3.05,0,0,1,5.433-1.258C318.843,250.3,329.577,295.481,332.236,308.444Z" transform="translate(-13.5 -197.747)" fill="#9ab3da"/>
        <path id="Caminho_219" data-name="Caminho 219" d="M319,267.382h-.1c-2.583-.667-11.82-3.965-22.515-18.55a.486.486,0,0,1,.1-.667.467.467,0,0,1,.667.1c10.486,14.3,19.474,17.539,21.981,18.188a.469.469,0,0,1-.133.925Z" transform="translate(-13.92 -199.266)" fill="#404b7c"/>
        <path id="Caminho_220" data-name="Caminho 220" d="M328.36,295.161h-.143c-.3-.067-7.216-1.725-15.852-12.44a.478.478,0,1,1,.743-.6c8.427,10.485,15.252,12.1,15.318,12.106a.476.476,0,0,1,.362.572A.486.486,0,0,1,328.36,295.161Z" transform="translate(-14.667 -200.85)" fill="#404b7c"/>
        <path id="Caminho_221" data-name="Caminho 221" d="M308.364,243.127a.382.382,0,0,1-.229-.067,29.464,29.464,0,0,1-9.8-8.417.486.486,0,0,1,.124-.667.5.5,0,0,1,.667.124,28.353,28.353,0,0,0,9.466,8.131.467.467,0,0,1,.181.648.486.486,0,0,1-.41.248Z" transform="translate(-14.011 -198.603)" fill="#404b7c"/>
        <path id="Caminho_222" data-name="Caminho 222" d="M352.8,356.919H319.629a10.219,10.219,0,0,1-10.219-9.856L308,306.941a3.508,3.508,0,0,1,3.508-3.641h49.434a3.508,3.508,0,0,1,3.508,3.641l-1.42,40.121A10.228,10.228,0,0,1,352.8,356.919Z" transform="translate(-14.467 -201.849)" fill="#f68d88"/>
        <path id="Caminho_223" data-name="Caminho 223" d="M363.06,303.3h-9.685c-.744,3.25-.524,7.921,5.815,10.133a12.754,12.754,0,0,0,7.13.467l.248-6.959a3.508,3.508,0,0,0-3.508-3.641Z" transform="translate(-16.576 -201.849)" fill="#ecbdbb"/>
        <path id="Caminho_224" data-name="Caminho 224" d="M340.493,316.292c-1.287-4.566,1.153-9.79,3.088-12.992H332.934c-6.12,10.266-2.412,28.9,14.222,24.908,8.245-1.983,13.869-.953,17.558.829l.286-8.064C355.4,315,342.342,322.841,340.493,316.292Z" transform="translate(-15.504 -201.849)" fill="#ecbdbb"/>
        <path id="Caminho_225" data-name="Caminho 225" d="M361.522,352.965c-8.1-17.8-22.62-.334-32.171-19-6.539-12.764-15.252-12.783-20.78-11.124l.305,8.779c17.072-6.673,16.319,21.219,30.837,19.065,7.759-1.163,12.163,2.955,14.584,7.035A10.171,10.171,0,0,0,361.522,352.965Z" transform="translate(-14.494 -202.728)" fill="#ecbdbb"/>
        <path id="Caminho_226" data-name="Caminho 226" d="M316.907,342.046c-4.394,1.106-.238,10.962,3.575,8.341S320.234,341.217,316.907,342.046Z" transform="translate(-14.796 -203.658)" fill="#ecbdbb"/>
        <path id="Caminho_227" data-name="Caminho 227" d="M355.505,334.986c-3.022,1.8,2.269,8.179,4.509,5.386S357.841,333.6,355.505,334.986Z" transform="translate(-16.647 -203.318)" fill="#ecbdbb"/>
        <path id="Caminho_228" data-name="Caminho 228" d="M50.45,311.5c6.673,4.5,17.606-21.543,18.378-28.816s-4.766-3.088-4.766-3.088,5.243-23.516,1.906-30.684-6.215,1-6.215,1-2.488-24.25-13.2-26.443-1.906,24.67-1.906,24.67-4.375-6.72-8.693-4.928,8.379,32.229,8.379,32.229-4.928-5.376-8.97-3.7S40.136,304.565,50.45,311.5Z" transform="translate(-1.669 -198.11)" fill="#404b7c"/>
        <path id="Caminho_229" data-name="Caminho 229" d="M52.393,310.075h-.076a.477.477,0,0,1-.391-.553c.076-.458,7.712-46.394-4.337-80.634a.458.458,0,0,1,.286-.6.467.467,0,0,1,.61.286c12.135,34.478,4.461,80.643,4.375,81.11a.467.467,0,0,1-.467.391Z" transform="translate(-2.286 -198.339)" fill="#9ab3da"/>
        <path id="Caminho_230" data-name="Caminho 230" d="M54.555,274.939a.506.506,0,0,1-.219-.048c-.334-.181-8.284-4.623-13.507-21.972a.477.477,0,0,1,.315-.591.467.467,0,0,1,.591.324c4.6,15.252,11.439,20.332,12.8,21.238,7.025-5.414,8.036-18.826,8.045-18.969a.478.478,0,1,1,.953.067c0,.581-1.077,14.3-8.693,19.865A.439.439,0,0,1,54.555,274.939Z" transform="translate(-1.97 -199.464)" fill="#9ab3da"/>
        <path id="Caminho_231" data-name="Caminho 231" d="M53.765,300.07a.534.534,0,0,1-.257-.076c-.219-.133-5.414-3.508-9.38-14.766a.477.477,0,1,1,.9-.324c3.441,9.761,7.883,13.46,8.817,14.155,4.108-1.525,7.445-10,7.483-10.085a.458.458,0,0,1,.61-.267.467.467,0,0,1,.276.61c-.153.381-3.66,9.294-8.3,10.724Z" transform="translate(-2.124 -200.973)" fill="#9ab3da"/>
        <path id="Caminho_232" data-name="Caminho 232" d="M53.288,252.661a.476.476,0,0,1-.334-.133c-.2-.191-4.89-4.814-6.425-10.638a.492.492,0,1,1,.953-.248c1.23,4.633,4.652,8.579,5.8,9.809,1.744-2.736,2.183-9.866,2.183-9.942a.467.467,0,0,1,.505-.448.477.477,0,0,1,.448.505c0,.343-.515,8.369-2.726,10.934a.505.505,0,0,1-.343.162Z" transform="translate(-2.237 -198.938)" fill="#9ab3da"/>
        <path id="Caminho_233" data-name="Caminho 233" d="M40.849,313.034c7.626,1.373,7.187-25.918,5.033-32.648s-5.4-.877-5.4-.877-4.518-22.877-10.219-27.9-5.119,3.308-5.119,3.308S13.5,234.422,3.215,236.662s7.9,22.563,7.9,22.563-6.482-4.242-9.6-.953S21.46,283.56,21.46,283.56s-6.453-2.86-9.38.21S29.019,310.908,40.849,313.034Z" transform="translate(-0.064 -198.724)" fill="#9ab3da"/>
        <path id="Caminho_234" data-name="Caminho 234" d="M41.452,311.3a.486.486,0,0,1-.467-.362c-.1-.438-11.239-44.039-35.212-69.586a.477.477,0,1,1,.7-.648c24.145,25.737,35.336,69.586,35.441,70.043a.477.477,0,0,1-.343.581Z" transform="translate(-0.324 -198.913)" fill="#404b7c"/>
        <path id="Caminho_235" data-name="Caminho 235" d="M29.687,279.044h0c-.372,0-9.132-.867-20.513-14.184a.467.467,0,0,1,0-.667.486.486,0,0,1,.677.048c9.942,11.639,17.959,13.536,19.57,13.812,4.089-7.53-.229-19.77-.276-19.894a.475.475,0,1,1,.9-.315c.191.524,4.623,13.078.048,20.971a.5.5,0,0,1-.4.229Z" transform="translate(-0.484 -199.708)" fill="#404b7c"/>
        <path id="Caminho_236" data-name="Caminho 236" d="M38.77,301.746h-.076c-.248,0-6.158-.953-14.06-9.418a.486.486,0,0,1,0-.677.467.467,0,0,1,.667,0c6.825,7.273,12.182,8.827,13.345,9.084,3.022-2.945,2.679-11.725,2.679-11.811a.467.467,0,0,1,.448-.5.458.458,0,0,1,.505.448c0,.391.381,9.656-3.184,12.735A.448.448,0,0,1,38.77,301.746Z" transform="translate(-1.207 -201.154)" fill="#404b7c"/>
        <path id="Caminho_237" data-name="Caminho 237" d="M19.9,259.982h-.162c-.248-.1-6.2-2.354-9.837-6.92a.477.477,0,0,1,.744-.591c2.86,3.6,7.407,5.719,8.922,6.406.458-3.1-1.906-9.532-1.906-9.618a.486.486,0,0,1,.286-.61.467.467,0,0,1,.61.286c.114.305,2.8,7.626,1.84,10.743a.476.476,0,0,1-.238.286A.562.562,0,0,1,19.9,259.982Z" transform="translate(-0.521 -199.292)" fill="#404b7c"/>
        <path id="Caminho_238" data-name="Caminho 238" d="M60.088,357.347H32.31a8.579,8.579,0,0,1-8.579-8.255L22.54,315.5a2.936,2.936,0,0,1,2.936-3.041H66.894a2.945,2.945,0,0,1,2.945,3.041l-1.2,33.592a8.579,8.579,0,0,1-8.55,8.255Z" transform="translate(-1.116 -202.278)" fill="#f68d88"/>
        <path id="Caminho_239" data-name="Caminho 239" d="M68.66,312.46h-8.1c-.629,2.717-.438,6.673,4.871,8.474a10.486,10.486,0,0,0,5.967.391l.21-5.824a2.945,2.945,0,0,0-2.945-3.041Z" transform="translate(-2.882 -202.278)" fill="#ecbdbb"/>
        <path id="Caminho_240" data-name="Caminho 240" d="M49.766,323.336c-1.087-3.813.953-8.2,2.583-10.876H43.436c-5.119,8.579-2.021,24.193,11.915,20.847,6.9-1.659,11.6-.772,14.7.7l.238-6.749C62.253,322.25,51.319,328.817,49.766,323.336Z" transform="translate(-1.985 -202.278)" fill="#ecbdbb"/>
        <path id="Caminho_241" data-name="Caminho 241" d="M67.375,354.041c-6.787-14.909-18.941-.286-26.938-15.909-5.472-10.686-12.8-10.7-17.4-9.313l.257,7.349c14.3-5.586,13.66,17.768,25.823,15.928,6.491-.953,10.18,2.478,12.2,5.891a8.522,8.522,0,0,0,6.053-3.946Z" transform="translate(-1.139 -203.013)" fill="#ecbdbb"/>
        <path id="Caminho_242" data-name="Caminho 242" d="M30.012,344.9c-3.679.953-.2,9.18,2.993,6.987S32.786,344.2,30.012,344.9Z" transform="translate(-1.391 -203.792)" fill="#ecbdbb"/>
        <path id="Caminho_243" data-name="Caminho 243" d="M62.333,338.988c-2.526,1.506,1.906,6.854,3.813,4.509S64.249,337.825,62.333,338.988Z" transform="translate(-2.941 -203.507)" fill="#ecbdbb"/>
      </g>
      <g id="BENCH_1" data-name="BENCH 1" transform="translate(47.192 90.273)">
        <path id="Caminho_244" data-name="Caminho 244" d="M208.159,250.57H70.894S48.207,185,49.637,147.46c.867-22.792,9-38.672,23.916-46.708,9.647-5.2,22.134-7.14,37.328-5.538,39.3,4.108,55.7,46.479,58.252,67.927h35.184a13.679,13.679,0,0,1,2.154.172h.1a11.9,11.9,0,0,1,2.116.543,11.6,11.6,0,0,1,1.249.524h0c4,2,7.74,6.959,8.16,18.9C218.7,201.412,215.527,223.88,208.159,250.57Z" transform="translate(-49.572 -94.666)" fill="#404b7c"/>
        <path id="Caminho_245" data-name="Caminho 245" d="M196.8,254.419h-.114a.467.467,0,0,1-.343-.572c3.041-12.468,6.082-40.436,6.758-53.457.124-2.421.153-5.033.181-7.807.1-10.781.219-23,6.959-25.785a.477.477,0,0,1,.62.267.467.467,0,0,1-.257.62c-6.148,2.536-6.263,14.422-6.368,24.908,0,2.783-.057,5.4-.181,7.845-.677,13.059-3.737,41.113-6.787,53.629a.477.477,0,0,1-.467.353Z" transform="translate(-56.436 -98.038)" fill="#9ab3da"/>
        <path id="Caminho_246" data-name="Caminho 246" d="M136.747,264.55l16.72,87.249a3.327,3.327,0,0,1-3.27,3.946h0A3.327,3.327,0,0,1,147,353.352l-26-88.8Z" transform="translate(-52.913 -102.612)" fill="#9ab3da"/>
        <path id="Caminho_247" data-name="Caminho 247" d="M82.447,264.55,65.727,351.8A3.327,3.327,0,0,0,69,355.745h0a3.317,3.317,0,0,0,3.184-2.393l25.995-88.8Z" transform="translate(-50.325 -102.612)" fill="#9ab3da"/>
        <path id="Caminho_248" data-name="Caminho 248" d="M205.5,264.55l16.72,87.249a3.327,3.327,0,0,1-3.27,3.946h0a3.327,3.327,0,0,1-3.193-2.393l-25.985-88.8Z" transform="translate(-56.129 -102.612)" fill="#404b7c"/>
        <path id="Caminho_249" data-name="Caminho 249" d="M151.177,264.55,134.457,351.8a3.327,3.327,0,0,0,3.27,3.946h0a3.317,3.317,0,0,0,3.184-2.393l25.995-88.8Z" transform="translate(-53.54 -102.612)" fill="#404b7c"/>
        <path id="Caminho_250" data-name="Caminho 250" d="M209.2,258.22l-5.719,10.8H75.648l-3.708-10.8Z" transform="translate(-50.618 -102.316)" fill="#9ab3da"/>
        <path id="Caminho_251" data-name="Caminho 251" d="M96.541,270H83.787a.477.477,0,0,1-.477-.477.486.486,0,0,1,.477-.477H96.541a.477.477,0,0,1,0,.953Z" transform="translate(-51.15 -102.823)" fill="#404b7c"/>
        <path id="Caminho_252" data-name="Caminho 252" d="M135.725,270H124.287a.477.477,0,0,1-.477-.477.486.486,0,0,1,.477-.477h11.439a.477.477,0,0,1,0,.953Z" transform="translate(-53.044 -102.823)" fill="#404b7c"/>
        <path id="Caminho_253" data-name="Caminho 253" d="M212.127,258.22l-4.1,10.8H137.365c-.81-2.688-1.849-6.358-2.945-10.8Z" transform="translate(-53.541 -102.316)" fill="#404b7c"/>
      </g>
      <g id="HAIR_WOMAN" data-name="HAIR WOMAN" transform="translate(90.439 0)">
        <path id="Caminho_254" data-name="Caminho 254" d="M154.317,8.148a4.115,4.115,0,0,0-.229-.4c-1.125-1.792-6.472-8.932-19.312-7.626-14.651,1.592-20.37,19.465-15.843,26.852S115.015,37.7,106.179,41.4s-15.843,15.728-7.5,26.566,50.874,13.345,53.619.477-5.958-23.23-4.871-33.6Z" transform="translate(-94.941 0.036)" fill="#404b7c"/>
      </g>
      <g id="NECK-2" data-name="NECK" transform="translate(131.122 32.13)">
        <path id="Caminho_255" data-name="Caminho 255" d="M147.753,38.207l-1.363,6.978-1.382,7.073L137.62,51.3,138.9,37.788l.391-4.118Z" transform="translate(-137.62 -33.67)" fill="#ecbdbb"/>
        <path id="Caminho_256" data-name="Caminho 256" d="M147.815,38.207l-1.363,6.978c-4.413-.572-6.5-4.194-7.492-7.4l.391-4.118Z" transform="translate(-137.683 -33.67)" fill="#404b7c"/>
      </g>
      <g id="BODY_WOMAN" data-name="BODY WOMAN" transform="translate(93.946 46.807)">
        <path id="Caminho_257" data-name="Caminho 257" d="M120.62,51.91s17.158-7.264,34.907,1.43l-3.336,10.247L123,62.52Z" transform="translate(-99.649 -49.068)" fill="#f68d88"/>
        <path id="Caminho_258" data-name="Caminho 258" d="M100.05,75.289s15.49-15.967,35.984-15.49,32.41,16.92,32.41,16.92,10.486,16.443,10.247,24.546-5.958,30.5-5.958,30.5a106.761,106.761,0,0,0,6.911,19.3c4.528,9.294,28.12,26.452,31.933,30.265s6.911,41.113-43.372,41.113S98.62,209.218,98.62,176.808,100.05,75.289,100.05,75.289Z" transform="translate(-98.62 -49.569)" fill="#f68d88"/>
        <path id="Caminho_259" data-name="Caminho 259" d="M151.429,63.3a.41.41,0,0,1-.181,0,38.7,38.7,0,0,0-14.031-3.012,41.389,41.389,0,0,0-12.5,1.7.494.494,0,1,1-.257-.953A42.266,42.266,0,0,1,137.235,59.3a39.5,39.5,0,0,1,14.413,3.088.467.467,0,0,1,.257.62.458.458,0,0,1-.477.3Z" transform="translate(-99.812 -49.546)" fill="#ecbdbb"/>
      </g>
      <g id="LEFT_FEET_WOMAN" data-name="LEFT FEET WOMAN" transform="translate(164.233 179.433)">
        <path id="Caminho_260" data-name="Caminho 260" d="M213.127,320.88l-1.659,6.425-3.108,12H199.62l2.936-13.583,1.039-4.842Z" transform="translate(-173.631 -194.407)" fill="#ecbdbb"/>
        <path id="Caminho_261" data-name="Caminho 261" d="M213.271,320.88l-1.659,6.425-8.913-1.582,1.039-4.842Z" transform="translate(-173.775 -194.407)" fill="#404b7c"/>
        <path id="Caminho_262" data-name="Caminho 262" d="M238.068,359.128H193a36.1,36.1,0,0,1,.1-3.813,53.237,53.237,0,0,1,4.985-18.435c5.567,1.43,12.077.162,12.077.162s24.946,12.707,26.052,14.46a13.4,13.4,0,0,1,1.239,3.813C237.8,357.26,238.068,359.128,238.068,359.128Z" transform="translate(-173.321 -195.156)" fill="#f68d88"/>
        <path id="Caminho_263" data-name="Caminho 263" d="M238.068,360.033H193a36.1,36.1,0,0,1,.1-3.813h44.354C237.8,358.165,238.068,360.033,238.068,360.033Z" transform="translate(-173.321 -196.06)" fill="#404b7c"/>
        <path id="Caminho_264" data-name="Caminho 264" d="M194.408,188.257c-16.1-1.163-27.424,16.09-19.417,30.112,2.021,3.536,4.766,6.2,7.626,7.34,9.532,3.813,29.55,2.545,29.55,2.545l-14.3,88.65h17.473s34-92.787,35.593-104.855-6.52-19.541-21.133-20.971C221.27,190.24,205.78,189.077,194.408,188.257Z" transform="translate(-172.356 -188.201)" fill="#404b7c"/>
        <path id="Caminho_265" data-name="Caminho 265" d="M204.531,313.644h-.086a.477.477,0,0,1-.381-.562l19.208-98.63-42.152-4.938a.467.467,0,0,1-.41-.534.486.486,0,0,1,.524-.419l42.647,4.995a.5.5,0,0,1,.334.2.467.467,0,0,1,.076.372l-19.3,99.136A.467.467,0,0,1,204.531,313.644Z" transform="translate(-172.746 -189.154)" fill="#9ab3da"/>
        <path id="Caminho_266" data-name="Caminho 266" d="M215.1,228.261a.41.41,0,0,1-.21-.057.477.477,0,0,1-.219-.639c.315-.61,7.683-15.147,18.7-18.826a.5.5,0,0,1,.61.305.486.486,0,0,1-.305.6c-10.648,3.546-18.111,18.207-18.111,18.35a.477.477,0,0,1-.467.267Z" transform="translate(-174.333 -189.161)" fill="#9ab3da"/>
      </g>
      <g id="RIGHT_FEET_WOMAN" data-name="RIGHT FEET WOMAN" transform="translate(115.125 178.488)">
        <path id="Caminho_267" data-name="Caminho 267" d="M162.288,320.88l-1.62,6.253-3.146,12.173H148.79l2.841-13.221,1.125-5.2Z" transform="translate(-122.146 -193.462)" fill="#ecbdbb"/>
        <path id="Caminho_268" data-name="Caminho 268" d="M162.427,320.88l-1.62,6.253-9.037-1.049,1.125-5.2Z" transform="translate(-122.285 -193.462)" fill="#404b7c"/>
        <path id="Caminho_269" data-name="Caminho 269" d="M187.236,359.128H142.119a36.11,36.11,0,0,1,.1-3.813A53.237,53.237,0,0,1,147.2,336.88c5.567,1.43,12.077.162,12.077.162s24.946,12.707,26.052,14.46a13.4,13.4,0,0,1,1.239,3.813C186.988,357.26,187.236,359.128,187.236,359.128Z" transform="translate(-121.833 -194.21)" fill="#f68d88"/>
        <path id="Caminho_270" data-name="Caminho 270" d="M187.236,360.033H142.119a36.111,36.111,0,0,1,.1-3.813h44.354C186.988,358.165,187.236,360.033,187.236,360.033Z" transform="translate(-121.833 -195.115)" fill="#404b7c"/>
        <path id="Caminho_271" data-name="Caminho 271" d="M200.11,211.994c-1.582,12.077-35.584,104.855-35.584,104.855h-17.52l14.3-88.65a138.654,138.654,0,0,1-15.909-.048c-4.947-.334-10.037-1.049-13.641-2.488-9.532-3.813-17.8-24.469-2.231-38.453,0,0,34.85,2.393,49.415,3.813S201.655,199.926,200.11,211.994Z" transform="translate(-120.838 -187.21)" fill="#9ab3da"/>
        <path id="Caminho_272" data-name="Caminho 272" d="M173.786,214.3a51.474,51.474,0,0,0-11.277,15.166,138.657,138.657,0,0,1-15.909-.048Z" transform="translate(-122.043 -188.477)" fill="#404b7c"/>
        <path id="Caminho_273" data-name="Caminho 273" d="M153.7,313.644h-.1a.477.477,0,0,1-.372-.562l19.208-98.63-42.152-4.938a.486.486,0,0,1-.419-.534.505.505,0,0,1,.534-.419l42.657,5a.458.458,0,0,1,.324.2.429.429,0,0,1,.086.372l-19.3,99.136a.486.486,0,0,1-.467.372Z" transform="translate(-121.261 -188.209)" fill="#404b7c"/>
        <path id="Caminho_274" data-name="Caminho 274" d="M164.266,228.261a.438.438,0,0,1-.219-.057.477.477,0,0,1-.21-.639c.305-.61,7.683-15.147,18.7-18.826a.478.478,0,0,1,.305.906c-10.648,3.546-18.111,18.207-18.159,18.35a.457.457,0,0,1-.419.267Z" transform="translate(-122.847 -188.216)" fill="#404b7c"/>
      </g>
      <g id="LEFT_ARM_WOMAN" data-name="LEFT ARM WOMAN" transform="translate(140.865 67.59)">
        <path id="Caminho_275" data-name="Caminho 275" d="M165.427,72.157c-8.97-4.766-22.086,4.127-16.052,19.7s47.023,50.6,54.248,50.836,6.758-19.379,6.758-19.379S181.155,80.574,165.427,72.157Z" transform="translate(-147.841 -70.87)" fill="#f68d88"/>
      </g>
      <g id="TABLET" transform="translate(131.779 86.054)">
        <path id="Caminho_276" data-name="Caminho 276" d="M255.272,146.884l16.4-54.334H213.426l-16.4,54.334Z" transform="translate(-141.057 -90.348)" fill="#404b7c"/>
        <path id="Caminho_277" data-name="Caminho 277" d="M208.01,90.24l5.929,2.2h58.242l-5.939-2.2Z" transform="translate(-141.57 -90.24)" fill="#e9f3ff"/>
        <path id="Caminho_278" data-name="Caminho 278" d="M207.205,90.24l-16.4,54.334,5.929,2.2,16.4-54.334Z" transform="translate(-140.766 -90.24)" fill="#9ab3da"/>
        <path id="Caminho_279" data-name="Caminho 279" d="M195.532,143.5l-56.755-.62-.467,6.31,56.755.62Z" transform="translate(-138.31 -92.702)" fill="#4674b7"/>
      </g>
      <g id="RIGHT_ARM-2" data-name="RIGHT ARM" transform="translate(67.224 70.008)">
        <path id="Caminho_280" data-name="Caminho 280" d="M138.727,140.313s-7.082,1.906-11.83,2.86c-8.827,1.63-17.787,2.86-29.274,5.271-15.728,3.27-26.214,1.906-27-8.1S83.964,91.069,98.739,76c8.894-9.056,23.192,13.984,16.519,24.946-4.185,6.873-9.847,16.834-9.847,16.834l6.673.543h1.458c4.957-.067,8.15.648,10.876.81l16.987,1.134C152.529,124.518,138.727,140.313,138.727,140.313Z" transform="translate(-70.587 -73.432)" fill="#f68d88"/>
        <path id="Caminho_281" data-name="Caminho 281" d="M98.977,152.234a.467.467,0,0,1-.458-.353.477.477,0,0,1,.343-.581c9.008-2.3,23.182-3.718,30.084-5.462.248-.067.515-.076.658.143s.1.6-.153.658c-8.579,2.049-21.219,3.251-30.36,5.586Z" transform="translate(-71.892 -76.793)" fill="#ecbdbb"/>
        <path id="Caminho_282" data-name="Caminho 282" d="M107.014,118.183a.448.448,0,0,1-.372-.181.467.467,0,0,1,0-.524c.057-.1,5.719-10.047,9.856-16.853,2.555-4.194,2.088-11-1.182-17.339-2.679-5.186-6.606-8.684-10.009-8.932a.477.477,0,0,1-.448-.505.467.467,0,0,1,.515-.438c3.813.267,7.921,3.88,10.791,9.437,3.422,6.673,3.87,13.8,1.153,18.273-3.355,5.51-7.712,13.1-9.265,15.8l34.021,2.86a.495.495,0,0,1,.267.953L107.2,118.192a.324.324,0,0,1-.181-.01Z" transform="translate(-72.19 -73.407)" fill="#ecbdbb"/>
        <path id="Caminho_283" data-name="Caminho 283" d="M149.5,144.512s-3.355-.057-8.341-.429c-4.957-10.371.9-18.636,3.46-21.543l6.4,2.517C157.236,135.218,149.5,144.512,149.5,144.512Z" transform="translate(-73.797 -75.705)" fill="#9ab3da"/>
        <path id="Caminho_284" data-name="Caminho 284" d="M148.736,142.129s-2.593-7.855,1.039-12.7l13.755,2.726s8.7-4.07,10.314-3.9,3.117,2.364,3.117,2.364,2.717-.953,3.355,1.754a9.409,9.409,0,0,1,2.965,5.367s5.472,1.535,6.673,2.86-.315,2.793-2.488,2.126a10.59,10.59,0,0,0-4.213-.743c-.9.1-7.826-1.411-7.826-1.411l-11.9.448Z" transform="translate(-74.2 -75.973)" fill="#ecbdbb"/>
      </g>
      <g id="RIGHT_SIDE_BENCH" data-name="RIGHT SIDE BENCH" transform="translate(47.192 126.639)">
        <path id="Caminho_285" data-name="Caminho 285" d="M152.547,252.355H70.894S48.207,186.782,49.637,149.244q.172-4.69.763-8.989c1.42-10.371,16.72-9.694,17.158.763.353,8.112,1.268,16.853,2.574,25.823h56.345l3,.076c10.228,0,13.908,6.129,15.109,17.759C146.513,203.1,152.547,252.355,152.547,252.355Z" transform="translate(-49.572 -132.816)" fill="#404b7c"/>
        <path id="Caminho_286" data-name="Caminho 286" d="M127.356,167.686H71.01a.486.486,0,0,1-.477-.4,259.379,259.379,0,0,1-2.574-25.871.486.486,0,0,1,.458-.505.477.477,0,0,1,.5.458c.324,7.578,1.172,16.11,2.507,25.365h55.935a.477.477,0,0,1,0,.953Z" transform="translate(-50.432 -133.195)" fill="#9ab3da"/>
        <path id="Caminho_287" data-name="Caminho 287" d="M133.7,253.4a.477.477,0,0,1-.467-.381c-2.545-11.906-14.765-71.845-4.547-82.874a.479.479,0,1,1,.677.677c-10.114,10.9,3.222,74.781,4.766,81.978a.477.477,0,0,1-.362.572Z" transform="translate(-53.084 -134.556)" fill="#9ab3da"/>
      </g>
      <g id="HEAD_WOMAN" data-name="HEAD WOMAN" transform="translate(120.128 2.129)">
        <path id="Caminho_288" data-name="Caminho 288" d="M145.132,11.368c-7.95,4.328-12.154,28.711,2.03,29.9S161.336,2.55,145.132,11.368Z" transform="translate(-126.636 -2.567)" fill="#ecbdbb"/>
        <path id="Caminho_289" data-name="Caminho 289" d="M135.906,30.654s2.745-6.911,6.2-11.2c0,0,8.465,5.367,15.728,2.745s11.315-16.567,5.119-19.3-9.532,3.451-9.532,3.451S126.726-1.394,135.906,30.654Z" transform="translate(-126.456 -2.198)" fill="#404b7c"/>
        <path id="Caminho_290" data-name="Caminho 290" d="M138.51,29.438s-2.269-8.932-9.418-7.149-.591,15.376,9.656,10.848Z" transform="translate(-126.087 -3.126)" fill="#ecbdbb"/>
        <path id="Caminho_291" data-name="Caminho 291" d="M135.87,31.657a.486.486,0,0,1-.448-.305c0-.048-2.04-5.09-6.272-5.719a.481.481,0,1,1,.133-.953c4.766.724,6.939,6.1,7.035,6.329a.477.477,0,0,1-.276.62A.543.543,0,0,1,135.87,31.657Z" transform="translate(-126.21 -3.249)" fill="#404b7c"/>
        <path id="Caminho_292" data-name="Caminho 292" d="M132.147,30.9a.477.477,0,0,1-.477-.458,6.768,6.768,0,0,1,1.134-3.451.467.467,0,0,1,.658-.153.486.486,0,0,1,.153.658,5.958,5.958,0,0,0-.953,2.936.467.467,0,0,1-.467.486Z" transform="translate(-126.348 -3.346)" fill="#404b7c"/>
      </g>
      <g id="FACE-3" data-name="FACE" transform="translate(136.469 22.264)">
        <path id="Caminho_293" data-name="Caminho 293" d="M143.23,25.779s1.7-3.069,4.023-1.763c0,0,.1-.705.724-.7s.591,1.964.591,1.964A13.536,13.536,0,0,0,143.23,25.779Z" transform="translate(-143.23 -23.32)" fill="#404b7c"/>
        <path id="Caminho_294" data-name="Caminho 294" d="M157.049,27.958s-.048-3.212-1.906-2.412c0,0,0-.591-.419-.677-.686-.143-.953,1.687-.953,1.687a5.643,5.643,0,0,1,3.279,1.4Z" transform="translate(-143.723 -23.392)" fill="#404b7c"/>
        <ellipse id="Elipse_30" data-name="Elipse 30" cx="1.63" cy="1.315" rx="1.63" ry="1.315" transform="translate(1.774 7.85) rotate(-85.62)" fill="#404b7c"/>
        <ellipse id="Elipse_31" data-name="Elipse 31" cx="0.353" cy="0.353" rx="0.353" ry="0.353" transform="translate(3.184 5.414)" fill="#fff"/>
        <ellipse id="Elipse_32" data-name="Elipse 32" cx="1.63" cy="1.315" rx="1.63" ry="1.315" transform="translate(9.502 8.442) rotate(-85.62)" fill="#404b7c"/>
        <ellipse id="Elipse_33" data-name="Elipse 33" cx="0.353" cy="0.353" rx="0.353" ry="0.353" transform="translate(10.914 6.005)" fill="#fff"/>
        <path id="Caminho_295" data-name="Caminho 295" d="M151.054,35.808a3.3,3.3,0,0,1-1.01-.162.467.467,0,0,1-.305-.6.486.486,0,0,1,.6-.305s1.354.429,1.754-.41a.268.268,0,0,0,0-.276c-.153-.257-.858-.448-1.315-.486a.467.467,0,0,1-.429-.505l.219-3.174a.486.486,0,0,1,.505-.448.467.467,0,0,1,.438.505l-.181,2.736a2.383,2.383,0,0,1,1.592.906,1.2,1.2,0,0,1,0,1.163A1.973,1.973,0,0,1,151.054,35.808Z" transform="translate(-143.533 -23.606)" fill="#404b7c"/>
        <path id="Caminho_296" data-name="Caminho 296" d="M150.724,39.066s-3.613,2.1-5.624-2.326Z" transform="translate(-143.317 -23.948)" fill="#fff"/>
      </g>
      <g id="TABLE" transform="translate(78.036 143.066)">
        <rect id="Retângulo_30" data-name="Retângulo 30" width="194.582" height="10.962" rx="5.481" transform="translate(106.113 194.582) rotate(-90)" fill="#404b7c"/>
        <rect id="Retângulo_31" data-name="Retângulo 31" width="184.688" height="10.962" rx="5.481" transform="translate(38.491 0)" fill="#9ab3da"/>
        <rect id="Retângulo_32" data-name="Retângulo 32" width="76.973" height="10.962" rx="5.481" transform="translate(0 0)" fill="#e9f3ff"/>
      </g>
    </g>
    <g id="Camada_2-3" data-name="Camada 2" transform="translate(480.154 39.551)">
      <g id="GROUND" transform="translate(10.185 434.437)">
        <path id="Caminho_358" data-name="Caminho 358" d="M10.083,408.985H59.3a.533.533,0,1,0,0-1.065H10.083a.533.533,0,1,0,0,1.065Z" transform="translate(-9.55 -407.92)" fill="#404b7c"/>
        <path id="Caminho_359" data-name="Caminho 359" d="M137.783,408.985h49.258a.533.533,0,1,0,0-1.065H137.783a.533.533,0,1,0,0,1.065Z" transform="translate(-1.245 -407.92)" fill="#404b7c"/>
        <path id="Caminho_360" data-name="Caminho 360" d="M39.133,412.065h76.789a.533.533,0,0,0,0-1.065H39.133a.543.543,0,0,0-.533.533A.533.533,0,0,0,39.133,412.065Z" transform="translate(-7.661 -407.72)" fill="#404b7c"/>
        <path id="Caminho_361" data-name="Caminho 361" d="M187.6,412.065h19.927a.533.533,0,0,0,0-1.065H187.6a.533.533,0,1,0,0,1.065Z" transform="translate(1.995 -407.72)" fill="#404b7c"/>
      </g>
      <g id="BACK_SHIRT" data-name="BACK SHIRT" transform="translate(70.391 170.233)">
        <path id="Caminho_362" data-name="Caminho 362" d="M182.169,217.032s-18.02,20.63-61.059,17.648-55.03-26.626-55.03-26.626l10.405-48.2L164.1,171Z" transform="translate(-66.08 -159.85)" fill="#9ab3da"/>
      </g>
      <g id="LEFT_FEET-2" data-name="LEFT FEET" transform="translate(71.12 163.256)">
        <path id="Caminho_363" data-name="Caminho 363" d="M94.57,364.912l.692,15.976a7.945,7.945,0,0,0,7.935,0l1.193-17.158Z" transform="translate(-64.955 -139.614)" fill="#ecbdbb"/>
        <path id="Caminho_364" data-name="Caminho 364" d="M108.772,393.133a53.412,53.412,0,0,1-1.289,15.3h-3.472s-1.587-9.351-3.376-13.515S107.079,389.426,108.772,393.133Z" transform="translate(-64.577 -137.843)" fill="#404b7c"/>
        <path id="Caminho_365" data-name="Caminho 365" d="M106.2,377.6s-3.77,1.885-10.32,0c0,0-10.65,18.052-14.378,21.3s-11.694,6.816-14.485,8.35,18.446,2.577,23.431,1.683,9.127-7.136,13.292-10.512a27.862,27.862,0,0,1,7.242-4.463S109.862,384.736,106.2,377.6Z" transform="translate(-66.764 -138.712)" fill="#f68d88"/>
        <path id="Caminho_366" data-name="Caminho 366" d="M79.734,165.1s-6.39,33.815-5.549,47.8,8.627,73.488,8.627,73.488l9.82,93.723s11.151,2.13,16.359-.746c0,0,1.64-26.179,3.419-39.864s0-26.775-1.193-37.628c0,0,7.594-45.221,9.372-85.086s-3.568-61.879-19.032-63.37S79.734,165.1,79.734,165.1Z" transform="translate(-66.286 -153.3)" fill="#404b7c"/>
        <path id="Caminho_367" data-name="Caminho 367" d="M102.143,373.693a.543.543,0,0,0,.533-.469c.149-1.427,3.77-35.04,3.568-43.315s-2.556-31.344-2.577-31.568l6.39-86.737a.533.533,0,0,0-.5-.564.522.522,0,0,0-.564.49l-6.39,86.822c0,.319,2.386,23.367,2.577,31.589s-3.525,42.815-3.568,43.166a.533.533,0,0,0,.479.586Z" transform="translate(-64.498 -149.544)" fill="#9ab3da"/>
      </g>
      <g id="RIGHT_FEET-2" data-name="RIGHT FEET" transform="translate(110.904 163.193)">
        <path id="Caminho_368" data-name="Caminho 368" d="M157.62,364.912l1.885,17.211a7.913,7.913,0,0,0,7.935,0V363.73Z" transform="translate(-100.64 -139.55)" fill="#ecbdbb"/>
        <path id="Caminho_369" data-name="Caminho 369" d="M172.94,394.211a53.315,53.315,0,0,1-1.289,15.294h-3.429s-1.587-9.34-3.376-13.5S171.246,390.548,172.94,394.211Z" transform="translate(-100.186 -137.707)" fill="#404b7c"/>
        <path id="Caminho_370" data-name="Caminho 370" d="M170.407,378.72s-3.77,1.885-10.32,0c0,0-10.7,18.042-14.378,21.3s-11.715,6.838-14.474,8.329,18.446,2.577,23.431,1.683,9.127-7.136,13.292-10.512a27.861,27.861,0,0,1,7.242-4.463S174.028,385.856,170.407,378.72Z" transform="translate(-102.372 -138.575)" fill="#f68d88"/>
        <path id="Caminho_371" data-name="Caminho 371" d="M110.43,183.743l2.609,35.008s23.047,67.033,27.808,81.614S156.12,377.91,156.12,377.91s3.2,2.929,10.118,2.929,8.52-3.323,8.52-3.323,1.48-47.4,0-59.642-6.2-30.6-6.539-39.215.3-55.936-1.779-75.618-11.311-49.918-32.579-49.8S109.4,169.833,110.43,183.743Z" transform="translate(-103.72 -153.24)" fill="#404b7c"/>
        <path id="Caminho_372" data-name="Caminho 372" d="M166.855,374.149h0a.543.543,0,0,0,.533-.543c0-.288-.4-28.937-1-43.848-.447-11.449-2.62-25.944-4.068-35.54-.458-3.046-.852-5.677-1.065-7.54-.905-7.019-2.769-21.62-2.769-33.016,0-11.194-4.526-69.856-4.569-70.442a.522.522,0,0,0-.575-.49.533.533,0,0,0-.49.564c.053.6,4.569,59.216,4.569,70.367,0,11.5,1.874,26.157,2.78,33.2.234,1.874.628,4.516,1.065,7.562,1.438,9.585,3.611,24.027,4.058,35.423.6,14.911.99,43.539,1,43.816A.532.532,0,0,0,166.855,374.149Z" transform="translate(-100.95 -151.322)" fill="#9ab3da"/>
        <path id="Caminho_373" data-name="Caminho 373" d="M113.439,217.616a.533.533,0,0,0,.341-.937l-4.09-3.419a8.254,8.254,0,0,1-2.929-5.836l-1.576-28.053a.533.533,0,1,0-1.065.064l1.566,28.053A9.319,9.319,0,0,0,109,214.07l4.09,3.419A.5.5,0,0,0,113.439,217.616Z" transform="translate(-104.119 -151.573)" fill="#9ab3da"/>
        <path id="Caminho_374" data-name="Caminho 374" d="M113.064,217.566h0a.532.532,0,0,0,.49-.575l-2.6-36.861a.522.522,0,0,0-.564-.49.533.533,0,0,0-.5.564l2.609,36.861a.533.533,0,0,0,.564.5Z" transform="translate(-103.744 -151.523)" fill="#9ab3da"/>
      </g>
      <g id="LEFT_ARM-2" data-name="LEFT ARM" transform="translate(0 65.923)">
        <path id="Caminho_375" data-name="Caminho 375" d="M90.429,61.91S80.46,71.879,69,115.705l1.193,24.1s8.084,3.621,12.844,1.832,9.032-13.686,12.589-37.031a83.158,83.158,0,0,0-5.2-42.7Z" transform="translate(4.501 -61.91)" fill="#f68d88"/>
        <path id="Caminho_376" data-name="Caminho 376" d="M72.769,111.717a25.891,25.891,0,0,1,5.325,22.76c-2.418,10.033-9.287,11.6-9.287,11.6l-7.53-4.058s-3.919-9.777-3.131-19.288S63.131,108,63.131,108Z" transform="translate(3.788 -58.912)" fill="#404b7c"/>
        <path id="Caminho_377" data-name="Caminho 377" d="M2.387,96.373c-1.172-1.9-.916-3.2.4-2.705q1.73.66,3.387,1.491C5.113,93.178,6,91.623,7.7,92.39a22.228,22.228,0,0,1,2.034,1.182c-.149-1.459.831-2.332,2.141-1.459a71.275,71.275,0,0,1,6.113,5.325c1.065-.17,1.992-.32,2.812-.426a38.554,38.554,0,0,1-2.535-4.9c-.3-1.14.394-2.13,1.14-1.779.533.277,6.326,5.581,9.585,8.616,2.812,1.3,5.5,2.684,5.5,2.684L68.163,113.52s4.164,11.715.6,22.11c0,0-37.681-27.766-40.258-28.958s-17.978-1.981-19.98-2.577S.416,97.545,0,96.16C-.148,95.585.949,95.83,2.387,96.373Z" transform="translate(0.013 -60.066)" fill="#ecbdbb"/>
        <path id="Caminho_378" data-name="Caminho 378" d="M8.493,99.3h.1l9.4-1.789a.543.543,0,0,0,.426-.628.533.533,0,0,0-.618-.426L8.557,98.218,2.486,95.513a.543.543,0,0,0-.7.266.522.522,0,0,0,.277.7L8.28,99.23a.479.479,0,0,0,.213.075Z" transform="translate(0.126 -59.727)" fill="#404b7c"/>
        <path id="Caminho_379" data-name="Caminho 379" d="M9.237,97.768a.533.533,0,0,0,.309-.969L6.181,94.456a.522.522,0,0,0-.735.138.533.533,0,0,0,.128.735l3.366,2.343A.543.543,0,0,0,9.237,97.768Z" transform="translate(0.362 -59.799)" fill="#404b7c"/>
        <path id="Caminho_380" data-name="Caminho 380" d="M12.517,96.693a.533.533,0,0,0,.415-.192.554.554,0,0,0-.075-.756L9.513,93.008a.543.543,0,0,0-.756.064.554.554,0,0,0,.075.756l3.387,2.748a.6.6,0,0,0,.3.117Z" transform="translate(0.576 -59.896)" fill="#404b7c"/>
      </g>
      <g id="BODY-2" data-name="BODY" transform="translate(70.413 49.851)">
        <path id="Caminho_381" data-name="Caminho 381" d="M120.457,50.46l21.727,18.883S164.5,179.724,163.6,179.724s-29.949,9.213-56.33,4.164S76.13,171.981,76.13,171.981l12.78-71.358,2.833-35.146Z" transform="translate(-65.448 -46.582)" fill="#9ab3da"/>
        <path id="Caminho_382" data-name="Caminho 382" d="M124.377,178.537a150.682,150.682,0,0,0,37.851-5.325c.7-.181,1.31-.341,1.438-.362a.511.511,0,0,0,.511-.533.543.543,0,0,0-.543-.522,9.584,9.584,0,0,0-1.672.383c-26.061,6.774-44.05,5.8-54.562,3.781-25.859-4.952-30.748-11.609-30.8-11.715a.533.533,0,0,0-.735-.138.543.543,0,0,0-.138.746c.2.288,5.187,7.072,31.483,12.12a91.518,91.518,0,0,0,17.168,1.566Z" transform="translate(-65.48 -39.197)" fill="#404b7c"/>
        <path id="Caminho_383" data-name="Caminho 383" d="M134,171.494c9.745,0,16.455-.628,16.615-.65a.535.535,0,0,0-.1-1.065c-.426,0-42.825,4-69.941-8.286a.532.532,0,0,0-.7.266.522.522,0,0,0,.266.7C96.743,170,118.971,171.494,134,171.494Z" transform="translate(-65.208 -39.364)" fill="#404b7c"/>
        <path id="Caminho_384" data-name="Caminho 384" d="M117.75,137.525c2.588,45.019,19.639,82.114,19.639,82.114,16.86,9.511,41.419,4.558,41.419,4.558s-16.061-64.658-20-90.837-7-64.85-7-64.85S135.376,54.09,123.682,49.67c.533,5.559,2.513,28.554.522,45.019C121.914,113.519,117.75,137.525,117.75,137.525Z" transform="translate(-62.741 -46.634)" fill="#f68d88"/>
        <path id="Caminho_385" data-name="Caminho 385" d="M115.912,49.67A138.1,138.1,0,0,0,90.617,62.706v7.285S84.376,90.823,84.1,94.54,86.921,111.2,86.921,111.2,68.177,183.62,66.1,215.177a140.265,140.265,0,0,0,22.76-3.429s0-27.02.937-47.053a205.66,205.66,0,0,1,4.164-33.517s11.311-47.2,13.984-57.118S115.912,49.67,115.912,49.67Z" transform="translate(-66.1 -46.634)" fill="#f68d88"/>
        <path id="Caminho_386" data-name="Caminho 386" d="M79.6,137.083a.469.469,0,0,0,.447-.351c3.557-15.134,6.39-26.211,6.454-26.317a.788.788,0,0,0,0-.224c0-.128-3.11-12.919-2.822-16.519s6.465-24.24,6.529-24.5a.32.32,0,0,0,0-.138v-5.08a.458.458,0,0,0-.458-.458.469.469,0,0,0-.458.458v5.07c-.447,1.5-6.252,20.917-6.539,24.57s2.482,15.337,2.812,16.7c-.309,1.193-3.057,11.886-6.39,26.221a.458.458,0,0,0,.341.554Z" transform="translate(-65.251 -45.734)" fill="#ecbdbb"/>
        <path id="Caminho_387" data-name="Caminho 387" d="M121.1,46.916c6,.937,11.715,13.345,13.941,25.146l-6.72,6.145,6.72,11.907s-10.065,25.188-15.624,47.6c0,0,2.577-36.488,4.367-56.628-.351-20.672-9.862-21.429-17.552-1.981-7.455,21.524-13.984,52.261-13.984,52.261s-.788-30.737.809-47.3l9.915-7.636L99.995,68.7S109.7,45.127,121.1,46.916Z" transform="translate(-64.412 -46.819)" fill="#f68d88"/>
        <path id="Caminho_388" data-name="Caminho 388" d="M92.274,131.422h0a.458.458,0,0,0,.447-.469c0-.309-.767-30.662.777-47.053l9.766-7.466a.469.469,0,0,0,.149-.533l-2.876-7.6a73.6,73.6,0,0,1,8.52-14.6.469.469,0,0,0-.085-.65.458.458,0,0,0-.639.085,74.765,74.765,0,0,0-8.659,14.985.469.469,0,0,0,0,.341l2.854,7.455-9.649,7.455a.458.458,0,0,0-.17.32c-1.576,16.391-.8,47.043-.8,47.352a.458.458,0,0,0,.362.383Z" transform="translate(-64.434 -46.42)" fill="#ecbdbb"/>
        <path id="Caminho_389" data-name="Caminho 389" d="M119.928,129.262a.469.469,0,0,0,.447-.33c5.57-19.554,13.238-38.8,13.313-38.991a.426.426,0,0,0,0-.394l-6.539-11.588,6.454-5.9a.447.447,0,0,0,.138-.426,68.759,68.759,0,0,0-6.39-19.3.447.447,0,0,0-.618-.181.458.458,0,0,0-.181.618,67.63,67.63,0,0,1,6.262,18.787l-6.582,6a.437.437,0,0,0-.085.554l6.6,11.715c-.831,2.13-7.977,20.364-13.26,38.874a.458.458,0,0,0,.319.564Z" transform="translate(-62.629 -46.476)" fill="#ecbdbb"/>
      </g>
      <g id="NOTE" transform="translate(30.62 68.533)">
        <path id="Caminho_390" data-name="Caminho 390" d="M36.37,102.68l10.81,3.632c1.555-.192,3.589-1.917,3.4-3.483l-4-32.675c-.192-1.172-2.4-1.555-4.1-2.13l-10.8-3.664a2.844,2.844,0,0,0-2.482,3.2l4.058,32.633A2.844,2.844,0,0,0,36.37,102.68Z" transform="translate(-28.709 -64.36)" fill="#404b7c"/>
        <path id="Caminho_391" data-name="Caminho 391" d="M35.94,103.54l10.8,3.632a2.844,2.844,0,0,0,2.471-3.2l-4-32.6c-.192-1.555-1.512-1.885-3.2-2.471L31.232,65.22a2.844,2.844,0,0,0-2.471,3.2l4,32.675A2.854,2.854,0,0,0,35.94,103.54Z" transform="translate(-28.737 -64.304)" fill="#9ab3da"/>
        <ellipse id="Elipse_42" data-name="Elipse 42" cx="1.395" cy="1.725" rx="1.395" ry="1.725" transform="translate(12.07 6.465)" fill="#404b7c"/>
      </g>
      <g id="RIGHT_ARM-3" data-name="RIGHT ARM" transform="translate(29.091 71.728)">
        <path id="Caminho_392" data-name="Caminho 392" d="M153.187,67.36c6.763,5.453,11.715,23.612,0,37.777-10.427,12.674-38.224,37.937-44.316,39.119s-12.205-6.539-12.205-6.539-.586-17.232,1.342-20.885a7.455,7.455,0,0,1,5.059-4.111l4.015,2.386s17.392-25.561,26.477-34.656A62.614,62.614,0,0,1,153.187,67.36Z" transform="translate(-22.796 -67.36)" fill="#f68d88"/>
        <path id="Caminho_393" data-name="Caminho 393" d="M107.577,144.712a6.986,6.986,0,0,0,1.406-.138c6.326-1.235,33.73-26.381,43.975-38.544a.458.458,0,0,0-.053-.639.469.469,0,0,0-.65,0c-11.13,13.217-37.649,37.106-43.454,38.235-5.325,1.065-10.874-5.325-11.652-6.262,0-1.715-.469-17.168,1.289-20.5a7.125,7.125,0,0,1,4.569-3.834l3.866,2.29a.469.469,0,0,0,.618-.138c.17-.256,17.467-25.657,26.413-34.592a62.582,62.582,0,0,1,14.027-10.373.458.458,0,0,0,.181-.618.447.447,0,0,0-.618-.181,63.466,63.466,0,0,0-14.229,10.576c-8.424,8.424-24.144,31.248-26.285,34.369l-3.642-2.13a.415.415,0,0,0-.3,0,7.9,7.9,0,0,0-5.4,4.345c-1.97,3.717-1.416,20.406-1.385,21.109a.4.4,0,0,0,.1.266C96.575,138.2,101.8,144.712,107.577,144.712Z" transform="translate(-22.823 -67.23)" fill="#ecbdbb"/>
        <path id="Caminho_394" data-name="Caminho 394" d="M107.216,110.712l-9.394-5.922s-5.964,2.354-7.785,11.225S91.1,134.909,91.1,134.909s8.787,6.838,8.787,6.614a25.284,25.284,0,0,0,9.468-12.685C112.626,119.541,107.216,110.712,107.216,110.712Z" transform="translate(-23.26 -64.926)" fill="#404b7c"/>
        <path id="Caminho_395" data-name="Caminho 395" d="M101.789,110.812,62.382,89.979,47.919,79.18l.692,5.6s-.138.234-.277.288c-2.13.841-3.973,1.693-5.6,1.4S32.551,83.27,29.8,82.2,26.97,83.4,27.673,84.58s4.313,2.908,4.313,2.908a10.8,10.8,0,0,0,2.45,3.834A6.273,6.273,0,0,0,37.12,94.74a15.826,15.826,0,0,0,3.025,3.472c1.48,1.065,18.478,1.065,20.662,1.4s29.012,26.37,35.562,32.526C96.368,132.134,106.326,125.594,101.789,110.812Z" transform="translate(-27.301 -66.591)" fill="#ecbdbb"/>
        <path id="Caminho_396" data-name="Caminho 396" d="M40.483,91.091a.542.542,0,1,0,.2-1.065c-2.13-.841-6.88-2.876-6.88-2.876l-.415.98s4.814,2.034,6.9,2.886a.608.608,0,0,0,.192.075Z" transform="translate(-26.905 -66.073)" fill="#404b7c"/>
        <path id="Caminho_397" data-name="Caminho 397" d="M40.742,93.937a.534.534,0,0,0,.16-1.044,50.644,50.644,0,0,1-5.325-2.13.533.533,0,0,0-.714.256.522.522,0,0,0,.256.7,51.123,51.123,0,0,0,5.421,2.215Z" transform="translate(-26.813 -65.841)" fill="#404b7c"/>
        <path id="Caminho_398" data-name="Caminho 398" d="M42.37,96.372a.536.536,0,1,0,.117-1.065,34.638,34.638,0,0,1-4.441-1.544.534.534,0,1,0-.426.98,36.575,36.575,0,0,0,4.6,1.619Z" transform="translate(-26.651 -65.646)" fill="#404b7c"/>
        <path id="Caminho_399" data-name="Caminho 399" d="M40.483,91.091a.542.542,0,1,0,.2-1.065c-2.13-.841-6.88-2.876-6.88-2.876l-.415.98s4.814,2.034,6.9,2.886a.608.608,0,0,0,.192.075Z" transform="translate(-26.905 -66.073)" fill="#404b7c"/>
        <path id="Caminho_400" data-name="Caminho 400" d="M40.742,93.937a.534.534,0,0,0,.16-1.044,50.644,50.644,0,0,1-5.325-2.13.533.533,0,0,0-.714.256.522.522,0,0,0,.256.7,51.123,51.123,0,0,0,5.421,2.215Z" transform="translate(-26.813 -65.841)" fill="#404b7c"/>
        <path id="Caminho_401" data-name="Caminho 401" d="M42.37,96.372a.536.536,0,1,0,.117-1.065,34.638,34.638,0,0,1-4.441-1.544.534.534,0,1,0-.426.98,36.575,36.575,0,0,0,4.6,1.619Z" transform="translate(-26.651 -65.646)" fill="#404b7c"/>
      </g>
      <g id="HAIR" transform="translate(100.41)">
        <path id="Caminho_402" data-name="Caminho 402" d="M120.271,16.582s-.554-9.3,4.431-14.282,12.514-1.235,17.648,5.6,3.44,16.37-8.861,14.261C123.85,20.512,120.271,16.582,120.271,16.582Z" transform="translate(-92.575 -0.012)" fill="#404b7c"/>
        <path id="Caminho_403" data-name="Caminho 403" d="M122.462,13.742s12.429-.533,16.551,8.616-6.827,24.751-17.765,24.73-13.143-8.169-13.143-8.169-7.455,3.61-11.715-3.131S94.941,25.724,99,24.243c0,0-6.39-7.679.948-13.153S115.805,6.276,122.462,13.742Z" transform="translate(-94.266 0.473)" fill="#404b7c"/>
        <path id="Caminho_404" data-name="Caminho 404" d="M136.427,20.593a.287.287,0,0,0,.085-.075.511.511,0,0,0,0-.746c-5.325-5.751-14.367-5.453-14.751-5.442A.533.533,0,1,0,121.8,15.4c.085,0,8.968-.3,13.931,5.091a.533.533,0,0,0,.692.106Z" transform="translate(-92.511 0.918)" fill="#9ab3da"/>
      </g>
      <g id="NECK-3" data-name="NECK" transform="translate(112.237 36.922)">
        <path id="Caminho_405" data-name="Caminho 405" d="M105.37,79.891a13.462,13.462,0,0,0,5.751,7.828c6.39-.479,11.8-5.836,11.8-5.836l-1.448-23.431c.075-5.7,2.844-16.913,3.344-21.908.117-1.172.192-1.864.192-1.864l-9.82,2.13a76.961,76.961,0,0,0-1.832,10.842,47.255,47.255,0,0,1-2.215,11.087C109.545,63.457,105.37,79.891,105.37,79.891Z" transform="translate(-105.37 -34.68)" fill="#ecbdbb"/>
        <path id="Caminho_406" data-name="Caminho 406" d="M123.516,52.453c3.951-4.409,3.685-8.946,3.121-12.93l-.788-1.693-7.338,6.848a41.644,41.644,0,0,1,5.006,7.775Z" transform="translate(-104.515 -34.475)" fill="#404b7c"/>
      </g>
      <g id="HEAD" transform="translate(109.807 16.745)">
        <path id="Caminho_407" data-name="Caminho 407" d="M105.27,30.982a34.859,34.859,0,0,0,4.26,15.976c4.441,7.828,11.066,4.984,15.677-1.353s3.206-17.488,3.206-17.488-1.789-9.33-9.063-9.734a13.047,13.047,0,0,0-14.08,12.6Z" transform="translate(-102.947 -15.565)" fill="#ecbdbb"/>
        <path id="Caminho_408" data-name="Caminho 408" d="M120.141,21.428s-4.26,11.449-17.041,13.3c0,0-.98-18.67,15.145-18.99s16.21,12.78,10.65,18.265C128.821,34.006,122.729,31.993,120.141,21.428Z" transform="translate(-103.089 -15.735)" fill="#404b7c"/>
        <path id="Caminho_409" data-name="Caminho 409" d="M125.14,38.975l.4-6.145s1.459-4.8,5.6-4.75S137.175,38.507,125.14,38.975Z" transform="translate(-101.655 -14.932)" fill="#ecbdbb"/>
        <path id="Caminho_410" data-name="Caminho 410" d="M126.4,36.537a.554.554,0,0,0,.224-.266,10.65,10.65,0,0,1,4.91-5.378.534.534,0,0,0-.447-.969,11.715,11.715,0,0,0-5.453,5.964.533.533,0,0,0,.309.692.5.5,0,0,0,.458-.043Z" transform="translate(-101.625 -14.815)" fill="#404b7c"/>
        <path id="Caminho_411" data-name="Caminho 411" d="M130.645,35.45a.522.522,0,0,0,.224-.618,10.736,10.736,0,0,0-1.811-3.131.543.543,0,0,0-.756-.064.522.522,0,0,0-.064.746,9.585,9.585,0,0,1,1.587,2.78.533.533,0,0,0,.671.341Z" transform="translate(-101.462 -14.708)" fill="#404b7c"/>
        <path id="Caminho_412" data-name="Caminho 412" d="M133.149,45.334c1.651-.99,1.715-3.813.138-6.39a7.87,7.87,0,0,0-1.981-2.332.533.533,0,1,0-.628.852,6.987,6.987,0,0,1,1.693,1.992c1.214,2.034,1.321,4.26.224,4.963s-3.067-.49-4.26-2.524-1.289-4.313-.224-4.974a.522.522,0,0,0,.181-.735.533.533,0,0,0-.724-.181c-1.651.99-1.715,3.823-.138,6.39S131.5,46.325,133.149,45.334Z" transform="translate(-101.58 -14.421)" fill="#f68d88"/>
      </g>
      <g id="FACE-4" data-name="FACE" transform="translate(113.711 29.695)">
        <path id="Caminho_413" data-name="Caminho 413" d="M120.871,29.711s-2.524-3.11-4.878-1.161c0,0-.256-.777-.959-.639s-.266,2.332-.266,2.332a15.443,15.443,0,0,1,6.1-.533Z" transform="translate(-106.242 -27.894)" fill="#404b7c"/>
        <path id="Caminho_414" data-name="Caminho 414" d="M106.824,34.6s-.6-3.61,1.693-3.089c0,0-.107-.671.33-.852.746-.3,1.363,1.715,1.363,1.715a6.507,6.507,0,0,0-3.387,2.226Z" transform="translate(-106.754 -27.716)" fill="#404b7c"/>
        <ellipse id="Elipse_43" data-name="Elipse 43" cx="1.502" cy="1.864" rx="1.502" ry="1.864" transform="matrix(0.968, -0.253, 0.253, 0.968, 9.894, 5.389)" fill="#404b7c"/>
        <circle id="Elipse_44" data-name="Elipse 44" cx="0.405" cy="0.405" r="0.405" transform="translate(10.923 5.853)" fill="#fff"/>
        <ellipse id="Elipse_45" data-name="Elipse 45" cx="1.504" cy="1.867" rx="1.504" ry="1.867" transform="translate(1.496 8.01) rotate(-14.452)" fill="#404b7c"/>
        <circle id="Elipse_46" data-name="Elipse 46" cx="0.405" cy="0.405" r="0.405" transform="translate(2.349 8.09)" fill="#fff"/>
        <path id="Caminho_415" data-name="Caminho 415" d="M115.689,41.351a.533.533,0,0,0-.522-.927c-.064,0-1.438.767-2.13-.106-.138-.192-.106-.277-.1-.309.117-.33.873-.692,1.385-.831a.522.522,0,0,0,.373-.639l-.831-3.515a.543.543,0,0,0-.65-.383.533.533,0,0,0-.383.65l.767,3.046a2.705,2.705,0,0,0-1.6,1.31,1.363,1.363,0,0,0,.234,1.3c.948,1.3,2.673.841,3.451.415Z" transform="translate(-106.418 -27.457)" fill="#404b7c"/>
        <path id="Caminho_416" data-name="Caminho 416" d="M118.6,44.236a8.169,8.169,0,0,0,2.886-3.089.533.533,0,0,0-.927-.522c-2.13,3.717-5.325,3.493-5.325,3.493a.535.535,0,0,0-.1,1.065,6.177,6.177,0,0,0,3.461-.948Z" transform="translate(-106.241 -27.083)" fill="#404b7c"/>
      </g>
    </g>
  </g>
  <rect id="Retângulo_33" data-name="Retângulo 33" width="725" height="470" fill="url(#linear-gradient)"/>
</svg>
