<svg xmlns="http://www.w3.org/2000/svg" viewBox="0 0 145.54 100.1"><defs><style>.cls-1{fill:#679977;}.cls-2{fill:#5d4092;stroke:#679977;stroke-miterlimit:10;stroke-width:2px;}</style></defs><g id="Camada_2" data-name="Camada 2"><g id="Camada_1-2" data-name="Camada 1"><path class="cls-1" d="M0,78.11c0-.8.15-1.36.94-1.67l1.67-.6a1.26,1.26,0,0,1,.53-.15c.26,0,.38.11.53.41L6.73,82l2.68-5.26c.49-.9.8-1.09,1.14-1.09a2.75,2.75,0,0,1,.86.19l1.29.45c.57.23.64.68.64,1.29V99.84H11c-.95,0-1.18-.3-1.18-1.21V86.46c0-1.36,0-2.76.08-4-.45.91-.87,1.7-1.28,2.54L7.22,87.67a.63.63,0,0,1-1.17,0L4.54,84.91c-.42-.76-.87-1.7-1.25-2.46,0,1.36,0,2.8,0,4V99.84H1.17c-.94,0-1.17-.3-1.17-1.21Z"/><path class="cls-1" d="M18.4,77.92c0-.57,0-1,.61-1.21l2.49-.87a1.32,1.32,0,0,1,.57-.15c.27,0,.34.15.34.49V99.84H19.58c-.95,0-1.18-.3-1.18-1.21Z"/><path class="cls-1" d="M27.47,78.11c0-.8.16-1.36,1-1.67l1.66-.6a1.33,1.33,0,0,1,.53-.15c.27,0,.38.11.53.41L34.2,82l2.69-5.26c.49-.9.79-1.09,1.13-1.09a2.86,2.86,0,0,1,.87.19l1.28.45c.57.23.65.68.65,1.29V99.84H38.51c-.94,0-1.17-.3-1.17-1.21V86.46c0-1.36,0-2.76.07-4-.45.91-.86,1.7-1.28,2.54l-1.44,2.68a.63.63,0,0,1-1.17,0L32,84.91c-.42-.76-.87-1.7-1.25-2.46,0,1.36,0,2.8,0,4V99.84H28.65c-.95,0-1.18-.3-1.18-1.21Z"/><path class="cls-1" d="M45.88,77.92c0-.57,0-1,.6-1.21l2.5-.87a1.26,1.26,0,0,1,.57-.15c.26,0,.34.15.34.49V99.84H47.05c-.94,0-1.17-.3-1.17-1.21Z"/><path class="cls-1" d="M54.8,81.92a4.54,4.54,0,0,1,.94-3.32A10.32,10.32,0,0,1,59.22,76a2.82,2.82,0,0,1,1.28-.3,4.46,4.46,0,0,1,1.25.19l4.08,1.17c.46.11.46.45.23.79L64.4,80.41c-.27.38-.57.49-1.17.3l-2.2-.6a1.63,1.63,0,0,0-1.51.23,1.81,1.81,0,0,0-.68,1.58V93.45c0,1,.15,1.29,1,1.51l4.8,1.4c.42.11.42.46.23.76l-1.7,2.61a.75.75,0,0,1-.68.37,3.14,3.14,0,0,1-.83-.19l-4.5-1.28c-2-.57-2.34-1.36-2.34-3.59Z"/><path class="cls-1" d="M67.16,90.54V87.67h6.76c1,0,1.17.3,1.17,1.17v2.83H68.33C67.38,91.67,67.16,91.41,67.16,90.54Z"/><path class="cls-1" d="M79.4,81.92a4.54,4.54,0,0,1,.94-3.32A10.42,10.42,0,0,1,83.82,76a2.84,2.84,0,0,1,1.29-.3,4.44,4.44,0,0,1,1.24.19l4.73,1.36a.44.44,0,0,1,.23.75L89.6,80.6c-.22.38-.56.45-1.2.3l-2.76-.79a1.65,1.65,0,0,0-1.52.23,1.81,1.81,0,0,0-.68,1.58v2.46c0,.91.23,1.13,1.21,1.13h3.18c.94,0,1.21.27,1.21,1.14v3.21h-5.6v10H80.61c-1,0-1.21-.3-1.21-1.21Z"/><path class="cls-1" d="M103.36,99.84c-.94,0-1.21-.3-1.21-1.21V91.15c0-.87-.23-1.14-1.17-1.14h-3.1v9.83H95.05c-1,0-1.21-.3-1.21-1.21V81.92a4.54,4.54,0,0,1,.94-3.32A10.32,10.32,0,0,1,98.26,76a2.82,2.82,0,0,1,1.28-.3,4.51,4.51,0,0,1,1.25.19l3.29.94c2,.57,2.11,1.17,2.11,3.4V99.84Zm-1.21-18c0-.87-.07-1.17-.83-1.4l-1.21-.34a1.53,1.53,0,0,0-1.74.42A1.92,1.92,0,0,0,97.88,82v2.72c0,.87.23,1.1,1.21,1.1h3.06ZM100.45,68a1.06,1.06,0,0,1,1.21-.76h2.68c.49,0,.61.3.38.68l-3,5.07a1.15,1.15,0,0,1-1.09.53H98Z"/><path class="cls-1" d="M111.07,81.92A4.54,4.54,0,0,1,112,78.6,10.42,10.42,0,0,1,115.49,76a2.84,2.84,0,0,1,1.29-.3,4.44,4.44,0,0,1,1.24.19l4.09,1.17c.45.11.45.45.22.79l-1.66,2.57c-.27.38-.57.49-1.17.3l-2.19-.6a1.65,1.65,0,0,0-1.52.23,1.81,1.81,0,0,0-.68,1.58V93.45c0,1,.15,1.29,1,1.51l4.8,1.4c.41.11.41.46.22.76l-1.7,2.61a.75.75,0,0,1-.68.37,3.14,3.14,0,0,1-.83-.19l-4.5-1.28c-2-.57-2.34-1.36-2.34-3.59Z"/><path class="cls-1" d="M125.54,77.92c0-.57,0-1,.61-1.21l2.49-.87a1.32,1.32,0,0,1,.57-.15c.26,0,.34.15.34.49V99.84h-2.84c-.94,0-1.17-.3-1.17-1.21Z"/><path class="cls-1" d="M134.61,77.92c0-.57,0-1,.61-1.21l2.49-.87a1.32,1.32,0,0,1,.57-.15c.26,0,.34.15.34.49V94.36c0,.91.26,1.13,1.21,1.13h4.91c.76,0,.87.3.76.91l-.68,3.44H137c-1.7,0-2.38-.83-2.38-2.46Z"/><path class="cls-2" d="M73.93,66.76a3,3,0,0,1-2.36,4.88H71.5A23.17,23.17,0,0,1,48.34,48.48v-5a4.09,4.09,0,0,0,4.09,4.09h0a4.09,4.09,0,0,0,4.09-4.09v.26a4,4,0,0,0,4,4h.08a4,4,0,0,0,4.05-4V40.07a4.68,4.68,0,0,0,4.68,4.68h9.08a.33.33,0,0,1,.16.63l-.29.16h0a14.37,14.37,0,0,0-4.4,21.22Z"/><path class="cls-2" d="M56.52,32.94V43.45a4.09,4.09,0,0,1-4.09,4.09h0a4.09,4.09,0,0,1-4.09-4.09v-11a3.85,3.85,0,0,1,3.85-3.84,4.34,4.34,0,0,1,4.33,4.33Z"/><path class="cls-2" d="M64.7,27.53V43.71a4,4,0,0,1-4.05,4h-.08a4,4,0,0,1-4-4V27.53a4.09,4.09,0,0,1,4.09-4.09h0A4.09,4.09,0,0,1,64.7,27.53Z"/><path class="cls-2" d="M94.66,48.48A23.16,23.16,0,0,1,83.42,68.34a7.36,7.36,0,0,1-9.85-2.08,14.36,14.36,0,0,1,4.76-20.72h0l.31-.17a.33.33,0,0,0-.15-.62h-9a4.74,4.74,0,0,1-4.76-4.37,4.69,4.69,0,0,1,3.37-4.81l.06,0a4.58,4.58,0,0,1,1.24-.16H88.11a4.44,4.44,0,0,1,3.62,1.82l0,0h0a21.42,21.42,0,0,1,1.17,2.41h0a22.87,22.87,0,0,1,1.44,5.09c.12.76.21,1.54.26,2.33C94.65,47.54,94.66,48,94.66,48.48Z"/><path class="cls-2" d="M89,7.83,84,35.39H69.38a4.58,4.58,0,0,0-1.24.16l-.06,0,0-.18-2.6-9.27-.75-2.67h0L59.86,6.23a4.13,4.13,0,0,1,2.85-5.08h0A4.13,4.13,0,0,1,67.79,4l6,21.43,2,7.16a.15.15,0,0,0,.3,0l1.18-6.53h0L80.88,6.36A4.13,4.13,0,0,1,85.67,3h0A4.12,4.12,0,0,1,89,7.83Z"/></g></g></svg>