<svg xmlns="http://www.w3.org/2000/svg" viewBox="0 0 143.69 107.72"><defs><style>.cls-1{fill:#679977;}.cls-2{fill:#5d4092;stroke:#679977;stroke-miterlimit:10;stroke-width:2px;}</style></defs><g id="Camada_2" data-name="Camada 2"><g id="Camada_1-2" data-name="Camada 1"><path class="cls-1" d="M0,84c0-.85.16-1.46,1-1.79l1.79-.65a1.54,1.54,0,0,1,.57-.16c.28,0,.4.12.57.44l3.29,6.39,2.89-5.65c.53-1,.86-1.18,1.22-1.18a3.31,3.31,0,0,1,.94.2l1.38.49c.61.24.7.73.7,1.38v23.93H11.88c-1,0-1.26-.32-1.26-1.3V93c0-1.46,0-3,.08-4.31-.49,1-.93,1.83-1.38,2.73L7.77,94.33a.68.68,0,0,1-1.26,0l-1.63-3c-.44-.82-.93-1.84-1.34-2.65,0,1.47,0,3,0,4.31v14.41H1.26c-1,0-1.26-.32-1.26-1.3Z"/><path class="cls-1" d="M19.82,83.83c0-.61,0-1.06.65-1.3l2.69-.94a1.48,1.48,0,0,1,.61-.16c.28,0,.36.16.36.53v25.47H21.08c-1,0-1.26-.32-1.26-1.3Z"/><path class="cls-1" d="M29.58,84c0-.85.17-1.46,1-1.79l1.79-.65a1.59,1.59,0,0,1,.57-.16c.29,0,.41.12.57.44l3.3,6.39,2.89-5.65c.53-1,.85-1.18,1.22-1.18a3.25,3.25,0,0,1,.93.2l1.39.49c.61.24.69.73.69,1.38v23.93H41.47c-1,0-1.26-.32-1.26-1.3V93c0-1.46,0-3,.08-4.31-.49,1-.94,1.83-1.39,2.73l-1.54,2.89a.68.68,0,0,1-1.26,0l-1.63-3c-.45-.82-.94-1.84-1.34-2.65,0,1.47,0,3,0,4.31v14.41H30.85c-1,0-1.27-.32-1.27-1.3Z"/><path class="cls-1" d="M49.4,83.83c0-.61,0-1.06.65-1.3l2.69-.94a1.52,1.52,0,0,1,.61-.16c.29,0,.37.16.37.53v25.47H50.66c-1,0-1.26-.32-1.26-1.3Z"/><path class="cls-1" d="M59,88.14a4.91,4.91,0,0,1,1-3.58,11.17,11.17,0,0,1,3.75-2.81,3.13,3.13,0,0,1,1.38-.32,5.11,5.11,0,0,1,1.34.2l4.4,1.26c.49.12.49.49.24.86l-1.79,2.76c-.28.41-.61.53-1.26.33l-2.36-.65a1.78,1.78,0,0,0-1.63.24,2,2,0,0,0-.73,1.71v12.41c0,1,.16,1.39,1.06,1.63l5.17,1.51c.44.12.44.48.24.81L68,107.31a.82.82,0,0,1-.73.41,3.87,3.87,0,0,1-.9-.21l-4.84-1.38c-2.16-.61-2.52-1.47-2.52-3.87Z"/><path class="cls-1" d="M84.52,107.43c-1,0-1.3-.32-1.3-1.3V98.07c0-.94-.24-1.22-1.26-1.22H78.62v10.58H75.57c-1,0-1.3-.32-1.3-1.3v-18a4.91,4.91,0,0,1,1-3.58A11.27,11.27,0,0,1,79,81.75a3.13,3.13,0,0,1,1.38-.32,5.11,5.11,0,0,1,1.34.2l3.54,1c2.12.61,2.28,1.26,2.28,3.66v21.12Zm-1.3-19.37c0-.94-.08-1.26-.9-1.51L81,86.19a1.64,1.64,0,0,0-1.87.45,2,2,0,0,0-.53,1.54v2.93c0,.94.24,1.18,1.3,1.18h3.3Z"/><path class="cls-1" d="M93,83.71c0-.66,0-1.23.65-1.47l2-.69a1.25,1.25,0,0,1,.49-.12c.41,0,.53.24.65.53l4.35,11.76c.37,1,1,2.8,1.47,4.19-.08-1.43-.12-2.81-.12-4.07V83.58c0-.69.2-1,.69-1.18l2.28-.81a1.37,1.37,0,0,1,.57-.16c.28,0,.4.16.4.49v25.51h-2.56c-.77,0-1.14-.08-1.46-.89L98.44,96.16c-.61-1.59-1.34-3.5-1.79-5,0,1.59.08,3.22.08,5v11.23H94.25c-1,0-1.26-.32-1.26-1.3Z"/><path class="cls-1" d="M111.83,83.5c0-1.26.53-1.79,1.67-1.79h7c2.76,0,4.59,1.14,4.59,4.76V101c0,1.91-.28,2.73-1,3.58a10.44,10.44,0,0,1-3.75,2.81,2.92,2.92,0,0,1-1.38.33,5.13,5.13,0,0,1-1.34-.21l-3.3-.93c-2.12-.66-2.48-1.47-2.48-3.87Zm5.37,19.13,1.18.32a1.84,1.84,0,0,0,1.67-.24,2.08,2.08,0,0,0,.73-1.71V88.71c0-1.71-.33-2.36-1.83-2.36h-1.51c-1,0-1.3.29-1.3,1.3V101C116.14,102,116.3,102.38,117.2,102.63Z"/><path class="cls-1" d="M132.91,106.58c-2.16-.66-2.53-1.47-2.53-3.87V88.14a4.91,4.91,0,0,1,1-3.58,11.17,11.17,0,0,1,3.75-2.81,3.1,3.1,0,0,1,1.38-.32,5.18,5.18,0,0,1,1.34.2l3.3.94c2.15.65,2.52,1.46,2.52,3.86V101a4.85,4.85,0,0,1-1,3.58,10.76,10.76,0,0,1-3.74,2.81,3.18,3.18,0,0,1-1.38.33,5.27,5.27,0,0,1-1.35-.21Zm6.43-18.44c0-1-.17-1.38-1.06-1.63l-1.18-.32a1.78,1.78,0,0,0-1.63.24,2,2,0,0,0-.73,1.71V101c0,1,.16,1.38,1.06,1.63L137,103a1.73,1.73,0,0,0,1.62-.24,2,2,0,0,0,.74-1.71Z"/><path class="cls-2" d="M70.94,71.81a3.26,3.26,0,0,1-2.54,5.25h-.08A24.93,24.93,0,0,1,43.38,52.12V46.71a4.41,4.41,0,0,0,4.4,4.41h0a4.41,4.41,0,0,0,4.4-4.41V47a4.36,4.36,0,0,0,4.36,4.36h.09A4.36,4.36,0,0,0,61,47V43.07a5,5,0,0,0,5,5h9.78a.36.36,0,0,1,.18.68l-.32.17h0a15.46,15.46,0,0,0-4.73,22.85Z"/><path class="cls-2" d="M52.19,35.39V46.71a4.41,4.41,0,0,1-4.4,4.41h0a4.41,4.41,0,0,1-4.4-4.41V34.87a4.14,4.14,0,0,1,4.14-4.14,4.66,4.66,0,0,1,4.67,4.66Z"/><path class="cls-2" d="M61,29.57V47a4.36,4.36,0,0,1-4.35,4.36h-.09A4.36,4.36,0,0,1,52.19,47V29.57a4.4,4.4,0,0,1,4.4-4.4h0A4.4,4.4,0,0,1,61,29.57Z"/><path class="cls-2" d="M93.26,52.12A24.94,24.94,0,0,1,81.15,73.51a7.93,7.93,0,0,1-10.61-2.24A15.48,15.48,0,0,1,75.67,49h0l.34-.19a.35.35,0,0,0-.17-.66H66.13A5.1,5.1,0,0,1,61,43.41a5,5,0,0,1,1.46-3.91,4.93,4.93,0,0,1,2.16-1.27l.07,0A4.85,4.85,0,0,1,66,38H86.21a4.77,4.77,0,0,1,3.89,2l0,0h0a27,27,0,0,1,1.25,2.6h0a24.09,24.09,0,0,1,1.55,5.48,22.94,22.94,0,0,1,.28,2.51C93.24,51.12,93.26,51.62,93.26,52.12Z"/><path class="cls-2" d="M87.14,8.35,81.76,38H66a4.85,4.85,0,0,0-1.33.18l-.07,0,0-.2-2.81-10L61,25.17h0L55.79,6.63a4.42,4.42,0,0,1,3.07-5.46h0a4.42,4.42,0,0,1,5.46,3.06L70.8,27.31,73,35a.16.16,0,0,0,.32,0l1.28-7h0L78.42,6.77A4.43,4.43,0,0,1,83.57,3.2h0A4.43,4.43,0,0,1,87.14,8.35Z"/></g></g></svg>