<svg xmlns="http://www.w3.org/2000/svg" viewBox="0 0 926.64 738.76"><defs><style>.cls-1{font-size:252.91px;fill:#679977;font-family:Adso-Bold, Adso;font-weight:700;}.cls-2{letter-spacing:0em;}.cls-3{fill:#5d4092;stroke:#679977;stroke-miterlimit:10;stroke-width:12px;}</style></defs><g id="Camada_2" data-name="Camada 2"><g id="Camada_2-2" data-name="Camada 2"><text class="cls-1" transform="translate(0 667.44)">MIMI<tspan class="cls-2" x="367.72" y="0">C</tspan><tspan x="462.56" y="0">ANDO</tspan></text></g><g id="Camada_3" data-name="Camada 3"><path class="cls-3" d="M457.81,446.08c10.14,13.3.91,32.58-15.8,32.63h-.48a155,155,0,0,1-155-155V290.1a27.36,27.36,0,0,0,27.36,27.36h0a27.36,27.36,0,0,0,27.36-27.36v1.73a27.09,27.09,0,0,0,27.09,27.09h.55A27.09,27.09,0,0,0,396,291.83V267.44a31.32,31.32,0,0,0,31.32,31.32H488.1a2.24,2.24,0,0,1,1.07,4.22c-.65.35-1.3.7-1.94,1.07h0a96.14,96.14,0,0,0-29.41,142Z"/><path class="cls-3" d="M341.28,219.74V290.1a27.36,27.36,0,0,1-27.36,27.36h0a27.36,27.36,0,0,1-27.36-27.36V216.5a25.75,25.75,0,0,1,25.75-25.74,29,29,0,0,1,29,29Z"/><path class="cls-3" d="M396,183.56V291.83a27.09,27.09,0,0,1-27.09,27.09h-.55a27.09,27.09,0,0,1-27.09-27.09V183.56a27.36,27.36,0,0,1,27.36-27.36h0A27.36,27.36,0,0,1,396,183.56Z"/><path class="cls-3" d="M596.51,323.73a154.88,154.88,0,0,1-75.23,132.91,49.25,49.25,0,0,1-65.93-13.93,96.16,96.16,0,0,1,31.87-138.66h0c.69-.39,1.39-.78,2.1-1.15a2.21,2.21,0,0,0-1.06-4.14H427.92c-16.58,0-30.75-12.66-31.84-29.2a31.32,31.32,0,0,1,22.54-32.21l.42-.12a31.47,31.47,0,0,1,8.29-1.11H552.7a29.82,29.82,0,0,1,24.22,12.18l.1.15,0,0s0,0,0,0h0a149.46,149.46,0,0,1,7.8,16.17l0,.05a153.85,153.85,0,0,1,11.36,49.63Q596.51,319,596.51,323.73Z"/><path class="cls-3" d="M558.51,51.7,525.06,236.12H427.33a31.47,31.47,0,0,0-8.29,1.11l-.42.12-.17-1.23L401,174.1l-5-17.89h0L363.65,41A27.55,27.55,0,0,1,382.72,7h0A27.54,27.54,0,0,1,416.67,26.1L457,169.51l13.46,47.9a1,1,0,0,0,2-.09l7.93-43.66h0l23.94-131.8a27.55,27.55,0,0,1,32-22.18h0A27.54,27.54,0,0,1,558.51,51.7Z"/></g></g></svg>