<svg xmlns="http://www.w3.org/2000/svg" width="360.419" height="292.272" viewBox="0 0 360.419 292.272">
  <g id="Grupo_47" data-name="Grupo 47" transform="translate(-546.561 -2162.455)">
    <g id="Camada_2" data-name="Camada 2" transform="matrix(0.848, 0.53, -0.53, 0.848, 696.538, 2124.164)">
      <g id="Camada_1" data-name="Camada 1" transform="translate(0 -0.054)">
        <path id="Path-41" d="M132.642,168.123a1.294,1.294,0,0,0-1.622-.828L114.1,171.7c-.707.207-.92,1.323-.725,1.99s.983,1.432,1.691,1.225l16.641-5.21a1.288,1.288,0,0,0,.932-1.564Z" transform="translate(-48.154 -71.039)" fill="#cfcdcc"/>
        <circle id="Oval-11" cx="1.098" cy="1.098" r="1.098" transform="translate(66.254 100.96)" fill="#353535"/>
        <path id="Path-42" d="M132.237,170.752a.3.3,0,0,0-.276-.052l-11.84,3.364a.316.316,0,0,0-.247.38.322.322,0,0,0,.38.253h.046l11.84-3.358a.322.322,0,0,0,.219-.4.31.31,0,0,0-.121-.173Z" transform="translate(-50.94 -72.506)" fill="#fff" opacity="0.5"/>
        <path id="Path-43" d="M137.859,165.7a2.225,2.225,0,0,0,2.3,2.128l3.531-.121a2.225,2.225,0,1,0-.144-4.445H143.5l-3.513.15A2.225,2.225,0,0,0,137.859,165.7Z" transform="translate(-58.586 -69.35)" fill="#969596"/>
        <path id="Path-44" d="M142.869,166.4a1.1,1.1,0,1,0,1.047-1.15,1.075,1.075,0,0,0-.759.357A1.1,1.1,0,0,0,142.869,166.4Z" transform="translate(-60.715 -70.195)" fill="#353535"/>
        <g id="Group-7" transform="translate(97.628 28.002)">
          <path id="Path-49" d="M174.638,67.6l-.27-.138c.057-.109,5.67-10.925,7.286-13.933.132-.242.253-.575.1-.742-.65-.7-5,.84-7.59,1.972l-.127-.282c.707-.3,6.929-2.984,7.935-1.9.23.242.207.61-.058,1.1C180.308,56.7,174.7,67.49,174.638,67.6Z" transform="translate(-171.59 -50.206)" fill="#969596"/>
          <path id="Path-50" d="M183.12,80.181c-.23-1.1-3.007-27.17-3.2-29.993a1.15,1.15,0,0,0-.575-.989c-1.489-.891-5.365.863-5.411.88l-.126-.282c.167-.075,4.071-1.834,5.693-.863a1.449,1.449,0,0,1,.742,1.236c.184,2.812,2.961,28.843,3.191,29.947Z" transform="translate(-171.493 -48.642)" fill="#969596"/>
          <path id="Path-51" d="M169.78,67.9l1.852-2.9.771.495-1.869,2.91Z" transform="translate(-169.78 -55.594)" fill="#969596"/>
        </g>
        <path id="Path-52" d="M55.33,170.277V168.04l39.521.374v2.237Z" transform="translate(-23.514 -71.382)" fill="#ce7013"/>
        <path id="Shape" d="M165.547,132.555a29.579,29.579,0,1,1,10.994,19.806,29.579,29.579,0,0,1-10.994-19.806Z" transform="translate(-70.271 -42.302)" fill="#353535"/>
        <path id="Shape-2" d="M168.865,133.738a27.687,27.687,0,1,1,30.66,24.358h0A27.687,27.687,0,0,1,168.865,133.738Z" transform="translate(-71.686 -43.698)" fill="#f1f1f1"/>
        <path id="Shape-3" d="M171.232,134.6a26.3,26.3,0,1,1,29.119,23.145A26.3,26.3,0,0,1,171.232,134.6Z" transform="translate(-72.696 -44.724)" fill="#cfcdcc"/>
        <path id="Path-53" d="M213.7,150.673a1.84,1.84,0,1,1,2.036,1.616,1.84,1.84,0,0,1-2.036-1.616Z" transform="translate(-90.812 -63.129)" fill="#cfcdcc"/>
        <path id="Path-54" d="M168.262,143.228a29.355,29.355,0,0,1,20.7-44.7c.575-.086,1.15-.149,1.725-.2a12.311,12.311,0,0,0,1.553-2.3,31.586,31.586,0,0,0-25.209,49.452c.426.19,1.3-1.967,1.208-2.237Z" transform="translate(-68.627 -40.779)" fill="#ea931e"/>
        <path id="Path-55" d="M193.462,126.918h-.351c-.288,0-28.458,1.029-29.735,1.1a4.359,4.359,0,0,1-2.6-.782.466.466,0,0,1-.1-.638.454.454,0,0,1,.638-.1h0a3.45,3.45,0,0,0,2.007.575c1.219-.063,25.98-.966,29.4-1.087.713-3.134,6.107-26.7,6.9-30.476a2.047,2.047,0,0,0-.374-1.892c-1.15-1.288-4.157-.955-4.2-.949L182.675,94.13a12.685,12.685,0,0,0-7.694,3.807.477.477,0,0,1-.575.069.46.46,0,0,1-.127-.638.225.225,0,0,1,.046-.058l.247-.259a12.65,12.65,0,0,1,7.688-3.8L194.94,91.8c.138,0,3.49-.38,4.968,1.236a2.915,2.915,0,0,1,.575,2.7c-.828,4.025-6.9,30.563-6.969,30.827Z" transform="translate(-68.245 -38.966)" fill="#ea931e"/>
        <path id="Path-56" d="M176.992,57.1c-3.013.9-5.06,2.938-4.6,4.554s3.318,2.191,6.325,1.3Z" transform="translate(-73.235 -24.235)" fill="#cfcdcc"/>
        <path id="Path-57" d="M173.146,62.17a2.453,2.453,0,0,1,.765-2.3c-1.15.932-1.725,2.024-1.466,2.979.477,1.616,3.312,2.191,6.325,1.3l-.132-.454C175.947,64.234,173.583,63.631,173.146,62.17Z" transform="translate(-73.259 -25.412)" fill="#969596"/>
        <path id="Path-58" d="M149.363,57.04a.431.431,0,0,1-.276-.057.454.454,0,0,1-.178-.615h0c.644-1.15,3.025-2.041,6.325-3.168.575-.207,1.15-.4,1.668-.575-.719-.794-1.9-2.174-2.185-2.519a.46.46,0,0,1,.086-.644.454.454,0,0,1,.61.052c1.116,1.317,2.386,2.772,2.582,2.938a.466.466,0,0,1,.167.426.454.454,0,0,1-.276.357c-.633.259-1.466.546-2.352.845-2.231.771-5.29,1.823-5.813,2.754A.454.454,0,0,1,149.363,57.04Z" transform="translate(-63.259 -20.949)" fill="#cfcdcc"/>
        <path id="Path-59" d="M165.74,65.535c-3.479-7.769-3.45-7.889-3.45-8.234s.1-.575,1.392-1.984c.615-.679,1.305-1.4,1.685-1.777.075-.069,1.811-1.788.633-3-.713-.742-4.025-.575-6.67.075l-.489-2.07c1.116-.27,6.768-1.5,8.717.518,1.834,1.892.932,4.445-.679,6.015-.575.575-1.765,1.846-2.3,2.49.483,1.15,1.863,4.3,3.122,7.113Z" transform="translate(-67.503 -20.335)" fill="#cfcdcc"/>
        <path id="Path-60" d="M152.849,49.59a1.426,1.426,0,0,1-1.1,1.9l-7.067,1.432a1.622,1.622,0,1,1-.633-3.128l7.073-1.415a1.341,1.341,0,0,1,1.725,1.219Z" transform="translate(-60.552 -20.509)" fill="#353535"/>
        <path id="Path-61" d="M158.352,46.925c.213-.046.437.161.506.466l.719,3.157c.069.3-.04.575-.253.633l-1.035.236c-.207.046-.437-.167-.5-.472l-.713-3.157a.513.513,0,0,1,.253-.638Z" transform="translate(-66.745 -19.908)" fill="#353535"/>
        <path id="Path-62" d="M175.438,61.023a.3.3,0,0,1-.339-.27.27.27,0,0,1,.029-.161c.086-.184.518-.679,2.657-1.242a.3.3,0,0,1,.155.575c-1.863.489-2.243.9-2.271.932a.31.31,0,0,1-.236.15Z" transform="translate(-74.411 -25.191)" fill="#fff" opacity="0.5"/>
        <path id="Shape-4" d="M3.857,151.555A29.579,29.579,0,1,1,36.633,177.58h0A29.579,29.579,0,0,1,3.857,151.555Z" transform="translate(-1.556 -50.377)" fill="#353535"/>
        <path id="Shape-5" d="M7.156,152.742a27.687,27.687,0,1,1,30.66,24.364,27.687,27.687,0,0,1-30.66-24.364Z" transform="translate(-2.964 -51.777)" fill="#f1f1f1"/>
        <path id="Shape-6" d="M9.562,153.6a26.3,26.3,0,1,1,29.125,23.139h0A26.307,26.307,0,0,1,9.562,153.6Z" transform="translate(-3.99 -52.795)" fill="#cfcdcc"/>
        <path id="Path-63" d="M2.2,144.881a29.608,29.608,0,0,1,58.653-2.961c.627.644,1.512,1.317,2.3,1.1A31.741,31.741,0,0,0,0,146.043C.575,146.376,1.311,146.273,2.2,144.881Z" transform="translate(0 -49.109)" fill="#ea931e"/>
        <path id="Path-64" d="M24.987,122.476a30.476,30.476,0,0,1,42.552,7.884l.219-.23a30.816,30.816,0,0,0-42.788-8.05Z" transform="translate(-10.612 -49.572)" fill="#fff" opacity="0.5"/>
        <path id="Path-65" d="M49.143,167.887a3.45,3.45,0,1,1,3.83,3.03h0a3.45,3.45,0,0,1-3.83-3.03Z" transform="translate(-20.875 -69.682)" fill="#cfcdcc"/>
        <path id="Path-66" d="M94.657,176.092c-.4-.052-39.809-5.313-41.689-5.5s-2.3-.391-3.324-1.288a3.347,3.347,0,0,1-.748-3.226,3.9,3.9,0,0,1,2.093-2.358c.92-.27,7.82-.765,8.114-.788h.2l-.2.909-.3-.069.115-.506c-1.179.086-7.044.523-7.843.759a3.617,3.617,0,0,0-1.892,2.156,3.053,3.053,0,0,0,.7,2.927c.92.782,1.248,1,3.14,1.19s41.3,5.457,41.7,5.514Z" transform="translate(-20.721 -69.21)" fill="#353535"/>
        <g id="Group-8" transform="translate(5.092 55.354)">
          <path id="Path-67" d="M55.062,144.58a.471.471,0,0,1-.293-.063.46.46,0,0,1-.15-.633h0l21.333-34.375a.454.454,0,0,1,.627-.149.46.46,0,0,1,.15.633h0L55.384,144.367a.466.466,0,0,1-.322.213Z" transform="translate(-28.275 -101.769)" fill="#ea931e"/>
          <path id="Path-68" d="M35.493,157.7a.437.437,0,0,1-.293-.069L9.077,141.224a.457.457,0,0,1,.472-.782h0l26.141,16.394a.454.454,0,0,1-.2.84Z" transform="translate(-8.856 -114.979)" fill="#ea931e"/>
          <path id="Path-69" d="M38.769,143.747a.454.454,0,0,1-.414-.173c-.184-.236-18.527-23.68-19.741-25.042A8.127,8.127,0,0,1,16.447,115a2.95,2.95,0,0,1,.443-2.461c.863-1.19,2.68-1.926,5.417-2.214h.121l1.369-.167c19.93-2.45,22.915-2.7,23.294-2.639.88.132,8.131,4.474,10.35,5.8.213.132.052.213-.075.431s-.184.483-.4.357c-3.519-2.116-9.338-5.532-10.011-5.681-.42,0-4.778.4-23,2.639l-1.38.167h-.121c-3.065.311-4.284,1.15-4.767,1.834a2.053,2.053,0,0,0-.3,1.725,7.371,7.371,0,0,0,1.967,3.14c1.225,1.374,19.016,24.117,19.775,25.083a.466.466,0,0,1-.311.742Z" transform="translate(-12.04 -101.011)" fill="#ea931e"/>
          <path id="Path-70" d="M151.915,131.941a.46.46,0,0,1-.322-.086L149.023,130a.46.46,0,0,1,.495-.776l.04.035,2.565,1.852a.454.454,0,0,1,.1.638.472.472,0,0,1-.316.19Z" transform="translate(-68.333 -110.211)" fill="#ea931e"/>
          <path id="Path-71" d="M160.335,96.21l1.788,1.351-27.216,35.991-1.817-1.328Z" transform="translate(-61.652 -96.21)" fill="#ea931e"/>
        </g>
        <path id="Path-72" d="M161.726,98l-27.147,35.9-1.42-1.035-.069.092,1.817,1.328L162.123,98.3Z" transform="translate(-56.56 -41.616)" fill="#ce7013" opacity="0.5"/>
        <path id="Path-73" d="M118.408,115.512a12.177,12.177,0,0,1-1.225.075,18.976,18.976,0,0,1-14.209-6.049,1.07,1.07,0,0,1,1.553-1.466h0a16.676,16.676,0,0,0,12.651,5.382c5.336-.092,10.207-4.249,14.468-12.357,5.589-10.615,10.529-22.6,10.575-22.725a1.07,1.07,0,1,1,1.978.817h0c-.052.115-5.026,12.2-10.661,22.9-4.347,8.263-9.425,12.771-15.1,13.421Z" transform="translate(-43.655 -32.993)" fill="#ea931e"/>
        <path id="Path-74" d="M144.006,78.36a.167.167,0,0,1,0,.052c-.046.121-5.026,12.2-10.661,22.9-4.347,8.263-9.425,12.771-15.1,13.421a12.078,12.078,0,0,1-1.225.081,19.039,19.039,0,0,1-14.209-6.049.092.092,0,0,1,0-.04,1.047,1.047,0,0,0,.224,1.087,18.976,18.976,0,0,0,14.209,6.049,10.776,10.776,0,0,0,1.225-.075c5.675-.65,10.747-5.175,15.1-13.421,5.635-10.707,10.609-22.788,10.661-22.9a1.064,1.064,0,0,0-.224-1.1Z" transform="translate(-43.665 -33.27)" fill="#ce7013" opacity="0.5"/>
        <path id="Path-75" d="M88.38,103.864l1.99-1.024,16.6,32.2-1.99,1.024Z" transform="translate(-37.559 -43.673)" fill="#ea931e"/>
        <path id="Path-76" d="M88.35,105.727l.926-.477,16.44,32.328-.932.472Z" transform="translate(-37.547 -44.697)" fill="#ce7013" opacity="0.5"/>
        <path id="Path-77" d="M92.65,108.78l.575,1.041,1.5,2.766,2.087,3.927c.753,1.438,1.553,2.979,2.363,4.514l2.3,4.537c.748,1.443,1.415,2.806,2.007,3.968s1.052,2.139,1.4,2.818l.523,1.07-.575-1.029-1.5-2.766c-.61-1.15-1.334-2.478-2.087-3.927l-2.363-4.514-2.3-4.537-2.007-3.968-1.4-2.818Z" transform="translate(-39.374 -46.198)" fill="#fff" opacity="0.4"/>
        <path id="Shape-7" d="M96.091,175.195s-20.954-1.15-32.932-3.237H63.1a7.6,7.6,0,0,1-5.555-5.635c-.311-1.116-2.507-1.627-2.507-1.627l.247-.069h0c.081-1.311.265-.828.265-.828a7.027,7.027,0,0,1,.857-1.38,15.2,15.2,0,0,0,2.076-3.352s35.007-2.478,36.894-2.34a9.39,9.39,0,0,1,9.666,8.206,9.2,9.2,0,0,1-8.114,10.212h0a8.12,8.12,0,0,1-.84.052Z" transform="translate(-23.391 -66.57)" fill="#ea931e"/>
        <path id="Shape-8" d="M113.966,168.478a6.952,6.952,0,1,1,7.694,6.118h0a6.946,6.946,0,0,1-7.694-6.118Z" transform="translate(-48.414 -68.278)" fill="#fff" opacity="0.7"/>
        <path id="Shape-9" d="M86.616,173.832a3.638,3.638,0,0,1-.437,0H85.73a4.751,4.751,0,0,1-.7-.069c-4.6-.454-15.623-1.6-18.062-2.3l-.3-.081a4.192,4.192,0,0,1,.955-8.269c7.97-.4,17.717-.868,18.8-.765h.069a5.75,5.75,0,0,1,.132,11.454Z" transform="translate(-26.963 -68.957)" fill="#fff" opacity="0.7"/>
        <path id="Path-78" d="M97.825,174.516a1.225,1.225,0,0,1,1.087-1.351l16.411-2.76c.69-.1,1.305.8,1.4,1.443s-.3,1.627-.995,1.725l-16.492,1.938a1.219,1.219,0,0,1-1.415-.995Z" transform="translate(-41.57 -72.383)" fill="#cfcdcc"/>
        <circle id="Oval-12" cx="1.047" cy="1.047" r="1.047" transform="translate(72.033 98.751)" fill="#353535"/>
        <path id="Path-79" d="M103.416,175.817a.334.334,0,0,1,.224-.155l11.6-1.662a.3.3,0,0,1,.086.575l-11.587,1.685A.3.3,0,0,1,103.4,176a.339.339,0,0,1,.035-.184Z" transform="translate(-43.941 -73.915)" fill="#fff" opacity="0.5"/>
        <path id="Path-80" d="M100.328,174.6a2.116,2.116,0,0,1-2.7,1.3h0l-3.163-1.116a2.129,2.129,0,1,1,1.386-4.025h0l3.163,1.11a2.11,2.11,0,0,1,1.294,2.7Z" transform="translate(-39.536 -72.485)" fill="#969596"/>
        <path id="Path-81" d="M99.727,174.868a1.052,1.052,0,1,1-.046-.8A1.052,1.052,0,0,1,99.727,174.868Z" transform="translate(-41.512 -73.69)" fill="#353535"/>
        <path id="Path-82" d="M124.46,158.443l.575-.092.288-.046h.753a3.705,3.705,0,0,1,.437,0l.483.04.506.1a7.114,7.114,0,0,1,1.075.3,8.506,8.506,0,0,1,1.087.512,10.115,10.115,0,0,1,1.035.69,9.777,9.777,0,0,1,.909.851,8.356,8.356,0,0,1,.742.943,8.136,8.136,0,0,1,.535.983l.213.472a4.163,4.163,0,0,1,.144.454,2.755,2.755,0,0,1,.121.426c.029.138.058.265.081.4s.04.236.063.345a1.26,1.26,0,0,1,0,.293c.029.351.035.575.035.575s-.057-.2-.15-.535a1.172,1.172,0,0,0-.075-.276l-.115-.322a7.02,7.02,0,0,0-.3-.748c-.057-.132-.121-.276-.19-.42s-.155-.276-.242-.426a3.076,3.076,0,0,0-.27-.437c-.1-.144-.2-.293-.3-.443a9.341,9.341,0,0,0-.73-.851,8,8,0,0,0-1.8-1.426,10.878,10.878,0,0,0-.989-.529c-.173-.063-.339-.121-.5-.19a3.764,3.764,0,0,0-.489-.167l-.472-.144-.449-.1a6.261,6.261,0,0,0-.794-.109l-.339-.04h-.293Z" transform="translate(-52.892 -67.242)" fill="#fff" opacity="0.5"/>
        <circle id="Oval-13" cx="1.047" cy="1.047" r="1.047" transform="translate(30.655 96.768)" fill="#353535"/>
        <path id="Path-83" d="M197.85,119.1c-.063-.058-6.5-5.906-8.545-8.022-1.357-1.409-5.957-11.65-8.8-18.4l.058-.035L172.877,76.9l-2.007.978,7.809,15.963c1.806,4.249,7.194,16.75,9.1,18.723,2.093,2.162,8.39,7.872,8.625,8.119a1.07,1.07,0,0,0,1.438-1.581Z" transform="translate(-72.616 -32.649)" fill="#ea931e"/>
        <path id="Path-84" d="M197.254,120.481c-.27-.242-6.555-5.952-8.625-8.114-1.9-1.972-7.286-14.468-9.1-18.717l-7.838-15.963,1.259-.615-.086-.173-2.007.983,7.809,15.963c1.806,4.244,7.194,16.745,9.1,18.717,2.093,2.168,8.39,7.878,8.625,8.119a1.075,1.075,0,0,0,.84.27,1.15,1.15,0,0,0,.529-.213A1,1,0,0,1,197.254,120.481Z" transform="translate(-72.611 -32.649)" fill="#ce7013" opacity="0.4"/>
        <path id="Path-85" d="M175.659,111.94s-.575.575-1.386,1.455c-.4.454-.863.972-1.346,1.541-.242.288-.489.575-.73.891s-.489.615-.719.937-.477.638-.7.96-.443.638-.644.949-.4.621-.575.909l-.265.437-.23.4-.414.713-.3.575c-.167.3-.27.483-.27.483s.052-.2.161-.529c.052-.173.121-.38.2-.61s.2-.489.316-.771c.057-.144.121-.288.184-.437s.15-.3.23-.46c.167-.311.316-.638.518-.966s.385-.673.615-1,.454-.656.7-.989.5-.644.759-.949.535-.575.782-.88a9.811,9.811,0,0,1,.776-.771c.253-.242.495-.466.736-.661a14.418,14.418,0,0,1,1.15-.9Z" transform="translate(-71.43 -47.541)" fill="#fff" opacity="0.5"/>
        <path id="Path-86" d="M215.075,151.137a1.047,1.047,0,1,1,1.15.92,1.035,1.035,0,0,1-.771-.218A1.058,1.058,0,0,1,215.075,151.137Z" transform="translate(-91.399 -63.702)" fill="#353535"/>
        <path id="Path-87" d="M172.628,75.814a.385.385,0,0,1-.167.518h0l-1.955.932a.385.385,0,0,1-.512-.19h0l-.454-.96a.38.38,0,0,1,.173-.512l1.961-.937a.385.385,0,0,1,.512.19Z" transform="translate(-72.033 -31.684)" fill="#969596"/>
        <path id="Path-88" d="M83.33,93.38l1.622-.84,3.283,6.371L86.59,99.7Z" transform="translate(-35.413 -39.296)" fill="#cfcdcc"/>
        <path id="Path-89" d="M83.45,93.985l.575-.3,3.214,6.233-.575.3Z" transform="translate(-35.464 -39.781)" fill="#969596" opacity="0.5"/>
        <path id="Path-90" d="M90.516,102.437a.38.38,0,0,1-.155.523l-1.909,1.047a.385.385,0,0,1-.518-.167h0l-.5-.932a.379.379,0,0,1,.155-.523l1.9-1.029a.385.385,0,0,1,.523.161h0Z" transform="translate(-37.136 -43.023)" fill="#969596"/>
        <path id="Path-91" d="M75.209,84.758c-2.237.213-8.39.575-9.034,2.185a2.53,2.53,0,0,0-.035,2.116.541.541,0,0,0,.759,0,.506.506,0,0,0,.138-.207c.224-.621,1.265-1.357,3.933.408,1.88,1.1,4.456,2.191,8.361.058s6.475-2.375,7.3-2.3,2.225.236,2.1-.891-1.587-2.168-5.4-2.128A58.291,58.291,0,0,0,75.209,84.758Z" transform="translate(-28.017 -35.666)" fill="#353535"/>
        <path id="Path-92" d="M86.511,87.051c-.817-.057-3.4.19-7.309,2.3s-6.475,1.047-8.355-.058c-2.674-1.777-3.709-1.035-3.933-.408a.541.541,0,0,1-.7.311.575.575,0,0,1-.2-.132,1.219,1.219,0,0,1-.063-.121,2.082,2.082,0,0,0,.19,1.219.529.529,0,0,0,.759,0,.506.506,0,0,0,.138-.207c.224-.621,1.259-1.357,3.933.414,1.88,1.1,4.456,2.185,8.355.052s6.481-2.375,7.309-2.3,2.225.236,2.1-.886a1.524,1.524,0,0,0-.207-.575c-.3.575-1.351.42-2.018.374Z" transform="translate(-28.019 -36.797)" opacity="0.2"/>
        <g id="Group-2" transform="translate(73.602)">
          <path id="Path-3" d="M149.327,178.143a1.265,1.265,0,0,0,1.11-1.392L130.512,1.093a1.259,1.259,0,1,0-2.5.288l19.925,175.653a1.265,1.265,0,0,0,1.392,1.11Z" transform="translate(-127.999 0.054)" fill="#8a694f"/>
        </g>
        <rect id="Rectangle" width="13.105" height="3.272" rx="1.636" transform="matrix(0.994, -0.113, 0.113, 0.994, 68.566, 3.902)" fill="#9b7d63"/>
        <path id="Path-4" d="M137.827,11.76l3.732,1.19-1.88,18.4-6.774,2L129.34,13.088Z" transform="translate(-54.966 -4.967)" fill="#c1946f"/>
        <path id="Path-5" d="M116.3,14.286l-3.37,2,5.951,17.527,7.05.414-2.3-20.4Z" transform="translate(-47.992 -5.842)" fill="#c9a788"/>
        <g id="Group-3" transform="translate(63.558 3.934)">
          <rect id="Rectangle-2" width="15.865" height="2.473" rx="1.236" transform="matrix(0.994, -0.113, 0.113, 0.994, 6.358, 24.114)" fill="#8a694f"/>
          <g id="Group-4">
            <path id="Path-6" d="M116.7,8.473,131.462,6.8a2.066,2.066,0,1,1,.466,4.106l-14.767,1.673a2.066,2.066,0,1,1-.466-4.106Z" transform="translate(-112.371 -6.787)" fill="#8a694f"/>
            <path id="Path-7" d="M111.91,14.462l21.65-2.455a1.236,1.236,0,0,0-.242-2.461h-.035L111.629,12a1.239,1.239,0,1,0,.282,2.461Z" transform="translate(-110.531 -7.957)" fill="#8a694f"/>
          </g>
        </g>
        <rect id="Rectangle-3" width="9.758" height="2.473" rx="1.236" transform="matrix(0.994, -0.113, 0.113, 0.994, 69.92, 28.048)" fill="#9b7d63"/>
        <path id="Path-8" d="M111.915,15.265,123.99,13.9a1.236,1.236,0,0,0-.242-2.461h-.035L111.639,12.8a1.239,1.239,0,0,0,.282,2.461Z" transform="translate(-46.977 -4.826)" fill="#9b7d63"/>
        <path id="Rectangle-4" d="M148.277,303.016l16.722-1.9a2.237,2.237,0,0,1,2.484,1.978h0a2.243,2.243,0,0,1-1.978,2.484l-16.722,1.9A2.248,2.248,0,0,1,146.3,305.5h0a2.243,2.243,0,0,1,1.978-2.484Z" transform="translate(-62.167 -127.93)" fill="#8a694f"/>
      </g>
    </g>
    <g id="Camada_2-2" data-name="Camada 2" transform="translate(556.451 2293.143)">
      <g id="Camada_1-2" data-name="Camada 1">
        <path id="Rectangle-2-2" data-name="Rectangle" d="M373.28,150.962h0a1.572,1.572,0,0,1,1.572-1.572h10.084a1.572,1.572,0,0,1,1.581,1.572h0a1.572,1.572,0,0,1-1.581,1.572h-10.1a1.572,1.572,0,0,1-1.554-1.572Z" transform="translate(-35.988 -14.403)" fill="#d3d5ec"/>
        <path id="Rectangle-2-3" data-name="Rectangle-2" d="M211.73,150.962h0a1.572,1.572,0,0,1,1.572-1.572H354.849a1.563,1.563,0,0,1,1.572,1.572h0a1.563,1.563,0,0,1-1.572,1.572H213.3A1.572,1.572,0,0,1,211.73,150.962Z" transform="translate(-20.413 -14.403)" fill="#d3d5ec"/>
        <path id="Path-83-2" data-name="Path-83" d="M294.747,10.253a7.762,7.762,0,0,1,1.184-.28,6.724,6.724,0,1,1,1.852,13.319,2.331,2.331,0,0,1-.352,0,6.723,6.723,0,0,0-2.711-13.075Z" transform="translate(-28.414 -0.955)" fill="#11192b"/>
        <path id="Path-84-2" data-name="Path-84" d="M302.325,20.186a6.714,6.714,0,0,0,.09-9.506,7.089,7.089,0,0,1,.849.542,7.233,7.233,0,0,1,.714.651,6.722,6.722,0,1,1-9.57,9.443,6.723,6.723,0,0,0,7.916-1.13Z" transform="translate(-28.384 -1.03)" fill="#11192b"/>
        <path id="Path-85-2" data-name="Path-85" d="M284.906,43.43a10.328,10.328,0,0,1,10.328,10.328,4.717,4.717,0,0,1-4.717,4.717h-12.65a4.717,4.717,0,0,1-4.717-4.717A10.328,10.328,0,0,1,283.478,43.43Z" transform="translate(-26.335 -4.187)" fill="#f5b0be"/>
        <path id="Path-86-2" data-name="Path-86" d="M294.109,76.862H276.39V64.51h17.719Z" transform="translate(-26.647 -6.219)" fill="#f7c1cc"/>
        <path id="Path-87-2" data-name="Path-87" d="M294.274,76.862H278.1V64.51h16.174Z" transform="translate(-26.812 -6.219)" fill="#f5b0be"/>
        <path id="Path-88-2" data-name="Path-88" d="M294.109,69.624H276.39V64.51h17.719Z" transform="translate(-26.647 -6.219)" fill="#f39eb3"/>
        <g id="Group-7-2" data-name="Group-7" transform="translate(211.53 58.291)">
          <path id="Path-89-2" data-name="Path-89" d="M277.935,69.624H276.39V64.51h1.545Z" transform="translate(-238.177 -64.51)" fill="#f5b0be"/>
          <path id="Path-90-2" data-name="Path-90" d="M234.145,145.538a3.235,3.235,0,0,0,3.2,2.539l10.22-.343a4.888,4.888,0,0,0,1.2-.117,4.943,4.943,0,0,0,3.759-5.891l-.777-3.488c-.361-1.654-.813-2.873-2.349-2.16l-13.418,5.846a3.235,3.235,0,0,0-1.807,3.614Z" transform="translate(-234.1 -71.39)" fill="#f5b0be"/>
          <path id="Path-91-2" data-name="Path-91" d="M253.582,142.205H244.32V130.82h9.262Z" transform="translate(-235.086 -70.903)" fill="#f5b0be"/>
        </g>
        <path id="Path-92-2" data-name="Path-92" d="M234.142,145.053a3.244,3.244,0,0,1,1.807-3.614l7.391-3.208V130.84H252.6v.551h-7.554v7.382l-1.708.75-5.693,2.467a3.244,3.244,0,0,0-.434,5.62,3.244,3.244,0,0,1-3.063-2.539Z" transform="translate(-22.567 -12.614)" fill="#f7c1cc"/>
        <path id="Rectangle-4-2" data-name="Rectangle-4" d="M290.008,89.4h0a7.057,7.057,0,0,1-5.376,8.4L251.8,105.036a7.039,7.039,0,0,1-8.4-5.422h0a7.048,7.048,0,0,1,5.367-8.4L281.6,83.983a7.066,7.066,0,0,1,8.412,5.422Z" transform="translate(-23.45 -8.081)" fill="#037bb0"/>
        <path id="Path-93" d="M254.189,132.113l-10.093.154h0a2,2,0,0,1-2.006-2.006V99.394a7.057,7.057,0,1,1,14.1.063v30.65A2.006,2.006,0,0,1,254.189,132.113Z" transform="translate(-23.34 -8.881)" fill="#037bb0"/>
        <path id="Path-94" d="M242.06,99.54a7.057,7.057,0,0,1,4.979-6.75,7.355,7.355,0,0,0-2.62,5.656v31.806a2.069,2.069,0,0,0,1.69,2.051h-2.042a2,2,0,0,1-2.006-2.006V99.531Z" transform="translate(-23.337 -8.946)" fill="#0894c4"/>
        <path id="Path-95" d="M236.077,43.749l36.921.7h0a5.1,5.1,0,1,1-.208,10.183l-9.036-.181-27.876-.533a5.088,5.088,0,0,1,.2-10.174Z" transform="translate(-22.26 -4.217)" fill="#f5b0be"/>
        <ellipse id="Oval" cx="5.756" cy="6.831" rx="5.756" ry="6.831" transform="translate(203.32 49.429) rotate(-83.69)" fill="#f5b0be"/>
        <path id="Path-96" d="M226.2,50.691a5.042,5.042,0,0,1-.479-2.711,5.268,5.268,0,0,1,2.34-3.75,5.521,5.521,0,0,0-1.139,2.648c-.723,4.193,4.193,6.325,6.4,4.518l5.277.1,30.559.569v2.5l-33.568-.605c-.271.108-.551.2-.831.28h-.045a8.132,8.132,0,0,1-2.837.19l-.461-.072h-.018l-.407-.081h-.045l-.434-.117h-.045l-.361-.117h-.081a8.387,8.387,0,0,1-.777-.334h-.081l-.307-.181H228.8l-.343-.217-.063-.045-.271-.19-.072-.054c-.208-.163-.4-.334-.587-.515l-.072-.072-.217-.235h-.045l-.244-.3a.387.387,0,0,1,0-.063l-.181-.244-.054-.081a6.325,6.325,0,0,1-.352-.642h0Z" transform="translate(-21.759 -4.264)" fill="#f39eb3"/>
        <path id="Path-99" d="M291.4,76.359a10.5,10.5,0,0,1,3.5.6A11.033,11.033,0,0,1,302.122,87.4v.515a9.939,9.939,0,0,1-12.063,9.144c-2.485-.506-5.277-1.256-6.623-2.2A16.68,16.68,0,0,1,276.37,81.2V76.35Z" transform="translate(-26.645 -7.361)" fill="#037bb0"/>
        <path id="Path-100" d="M295.116,66.291h0a1.337,1.337,0,0,1-1.337,1.337H276.457a1.337,1.337,0,0,1-1.337-1.337v-2.9h20Z" transform="translate(-26.525 -6.111)" fill="#79c9d9"/>
        <path id="Rectangle-5" d="M298.447,56.95h0a6.75,6.75,0,0,1-6.75,6.75H275.939a6.75,6.75,0,0,1-6.759-6.75h0a6.75,6.75,0,0,1,6.759-6.75H291.7A6.75,6.75,0,0,1,298.447,56.95Z" transform="translate(-25.952 -4.84)" fill="#79c9d9"/>
        <path id="Path-101" d="M269.18,56.959a6.759,6.759,0,0,1,6.75-6.759h3.28a6.759,6.759,0,0,0-1.392,13.373v1.464a1.337,1.337,0,0,0,1.337,1.337h-3.271a1.337,1.337,0,0,1-1.337-1.337V63.573a6.759,6.759,0,0,1-5.367-6.614Z" transform="translate(-25.952 -4.84)" fill="#a1d7e2"/>
        <path id="Path-102" d="M377.633,148.069l-10.247-.361a5.286,5.286,0,0,1-1.193-.108,4.979,4.979,0,0,1-3.786-5.937l.777-3.506c.361-1.663.813-2.882,2.358-2.169l13.5,5.882a3.253,3.253,0,0,1-1.41,6.2Z" transform="translate(-34.929 -13.091)" fill="#f5b0be"/>
        <path id="Path-103" d="M362.026,143.4l12.216-1.943-14.069-9.939-6.325-5.15-9.479,5.882Z" transform="translate(-33.201 -12.183)" fill="#f5b0be"/>
        <path id="Path-104" d="M353.827,126.33l6.325,5.16,7.328,5.178,9.822,4.292a3.253,3.253,0,0,1-.063,5.937v-.063a3.262,3.262,0,0,0-1.563-4.337l-2.142-.9-7.68-3.352L362,135.529l-3.479-2.458-6.325-5.15-7.446,4.617-.425-.271Z" transform="translate(-33.197 -12.18)" fill="#f7c1cc"/>
        <path id="Path-105" d="M291.172,95.507a8.668,8.668,0,1,1,10.436-13.843l56.926,44.077a2.548,2.548,0,0,1,.452,3.533l-6.325,8.575h0a2.53,2.53,0,0,1-3.542.551Z" transform="translate(-27.739 -7.705)" fill="#037bb0"/>
        <circle id="Oval-3" cx="6.723" cy="6.723" r="6.723" transform="translate(260.875 11.376)" fill="#057db1"/>
        <circle id="Oval-4" cx="6.723" cy="6.723" r="6.723" transform="translate(260.875 11.376)" fill="#057db1"/>
        <path id="Path-106" d="M289.1,21.571a8.026,8.026,0,0,1-.253-.9,6.725,6.725,0,0,1,13.174-2.711,6.723,6.723,0,0,0-12.912,3.614Z" transform="translate(-27.834 -1.213)" fill="#009fd3"/>
        <path id="Path-107" d="M283.867,38.672A8.6,8.6,0,0,1,276,29.383l.4-4.681a9.18,9.18,0,0,1,9.939-8.376l2.087.172h0a6.56,6.56,0,0,1,5.982,7.084l-.614,7.3h0a8.593,8.593,0,0,1-9.289,7.843Z" transform="translate(-26.606 -1.571)" fill="#057db1"/>
        <path id="Path-108" d="M288.7,37.973a2.819,2.819,0,0,0-5.611-.1L282.6,42.6v.47a2.819,2.819,0,1,0,5.611.461l.352-3.479.172-1.608A4.124,4.124,0,0,0,288.7,37.973Z" transform="translate(-27.243 -3.411)" fill="#f5b0be"/>
        <path id="Path-109" d="M288.7,37.973a2.819,2.819,0,0,0-5.611-.1L282.6,42.6a9.451,9.451,0,0,0,5.918-2.548l.172-1.608a4.126,4.126,0,0,0,.009-.47Z" transform="translate(-27.246 -3.411)" fill="#f39eb3"/>
        <path id="Path-110" d="M289.468,17.291A6.4,6.4,0,0,0,288.239,17H287.8a9.8,9.8,0,0,0-10.843,7.9,2.224,2.224,0,0,1-.072.416c-.027.136,0,.063,0,.09l-.7,5.123a7.3,7.3,0,0,0,6.253,8.15h0a9.47,9.47,0,0,0,10.662-8.132l.831-6.1a6.659,6.659,0,0,0-4.473-7.156Z" transform="translate(-26.622 -1.632)" fill="#f5b0be"/>
        <path id="Path-111" d="M276.193,30.459l.7-5.114v-.1c0-.036.045-.271.072-.416a9.813,9.813,0,0,1,10.843-7.9h.434a6.949,6.949,0,0,1,1.229.289,6.689,6.689,0,0,1,1.075.47,7.384,7.384,0,0,0-.777-.154h-.434a9.8,9.8,0,0,0-10.843,7.9,3.337,3.337,0,0,1-.072.416.154.154,0,0,0,0,.09l-.7,5.123a7.319,7.319,0,0,0,3.8,7.437A7.31,7.31,0,0,1,276.193,30.459Z" transform="translate(-26.621 -1.625)" fill="#f7c1cc"/>
        <path id="Path-112" d="M294.582,29.862h0a3.614,3.614,0,0,1-4.635-2.078,4.391,4.391,0,0,0-4.681-2.8l-2.91.389a8.638,8.638,0,0,1-5.286-.542,9.813,9.813,0,0,1,10.843-7.9h.136l.307.045a7.319,7.319,0,0,1,1.229.28A8.629,8.629,0,0,1,293.47,22.8a.054.054,0,0,1,0,.054,5.16,5.16,0,0,1-.352,1.093H292.9a3.551,3.551,0,0,1,.614,1.039l1.491,3.931a.7.7,0,0,1-.425.949Z" transform="translate(-26.713 -1.625)" fill="#f39eb3"/>
        <path id="Path-113" d="M296.007,30.79a5.141,5.141,0,0,1-4.7-5.566l.325-3.9,1,.081h0a5.16,5.16,0,0,1,4.717,5.566l-.244,2.9h0a1.021,1.021,0,0,1-1.093.9Z" transform="translate(-28.083 -2.055)" fill="#057db1"/>
        <circle id="Oval-5" cx="2.964" cy="2.964" r="2.964" transform="translate(263.405 24.18)" fill="#f5b0be"/>
        <path id="Path-114" d="M295.135,31.062a.307.307,0,0,1-.154.045.361.361,0,0,1-.4-.325l-.145-1.645a.388.388,0,0,1,0-.145.37.37,0,0,1,.452-.244,1.255,1.255,0,0,1,.244,2.313Z" transform="translate(-28.387 -2.77)" fill="#f39eb3"/>
        <circle id="Oval-6" cx="0.705" cy="0.705" r="0.705" transform="translate(252.327 24.478)" fill="#23132f"/>
        <circle id="Oval-7" cx="0.705" cy="0.705" r="0.705" transform="translate(258.734 25.011)" fill="#23132f"/>
        <g id="Group-8-2" data-name="Group-8" transform="translate(253.943 27.074)">
          <ellipse id="Oval-8" cx="0.795" cy="0.958" rx="0.795" ry="0.958" transform="translate(0 1.584) rotate(-84.78)" fill="#e11714"/>
          <ellipse id="Oval-9" cx="0.795" cy="0.958" rx="0.795" ry="0.958" transform="translate(1.442 1.71) rotate(-84.78)" fill="#e11714"/>
          <path id="Path-115" d="M282.684,32.267a1.509,1.509,0,0,0,1.807-1.139l-3.352-.3C281.058,31.535,281.763,32.185,282.684,32.267Z" transform="translate(-281.047 -30.046)" fill="#e11714"/>
        </g>
        <path id="Path-116" d="M282.08,31.13c0,.253.289.479.714.524s.777-.136.8-.38" transform="translate(-27.196 -3.001)" fill="#e83b3c"/>
        <path id="Path-117" d="M285.181,13.861h0a8.539,8.539,0,0,1,9.623,7.292l.316,2.3L284.585,24.9A8.53,8.53,0,0,1,275,17.593a2.313,2.313,0,0,1,1.979-2.611l8.241-1.139Z" transform="translate(-26.511 -1.329)" fill="#057db1"/>
        <path id="Path-118" d="M285.181,13.861h0a8.539,8.539,0,0,1,9.623,7.292l.316,2.3L284.585,24.9A8.53,8.53,0,0,1,275,17.593a2.313,2.313,0,0,1,1.979-2.611l8.241-1.139Z" transform="translate(-26.511 -1.329)" fill="#057db1"/>
        <path id="Path-119" d="M289.45,17.706a3.94,3.94,0,0,1,4.437,3.37h0a1.075,1.075,0,0,1-.9,1.211l-6.19.849h0a3.94,3.94,0,0,1-4.455-3.361h0a1.075,1.075,0,0,1,.9-1.2l6.181-.849Z" transform="translate(-27.22 -1.704)" fill="#009fd3"/>
        <path id="Path-120" d="M276.959,14.991l8.232-1.129a8.44,8.44,0,0,1,5.259.967,8.729,8.729,0,0,0-2.06,0l-8.241,1.139a2.322,2.322,0,0,0-1.988,2.6,8.521,8.521,0,0,0,4.364,6.325,8.53,8.53,0,0,1-7.527-7.3A2.313,2.313,0,0,1,276.959,14.991Z" transform="translate(-26.511 -1.328)" fill="#009fd3"/>
        <path id="Rectangle-6" d="M264.977,46.193h0a.849.849,0,0,1-.9.84l-23.493-.47a.9.9,0,0,1-.84-.9h0a.9.9,0,0,1,.9-.84l23.493.47A.9.9,0,0,1,264.977,46.193Z" transform="translate(-23.114 -4.321)" fill="#f7c1cc"/>
        <path id="Path-97" d="M291.316,77.076l21.4-12.813h0c1.626-.985,1.807-3.75.38-6.181s-3.876-3.614-5.494-2.62l-5.2,3.163-16.138,9.65a3.135,3.135,0,0,0-1.346,2.711,6.93,6.93,0,0,0,3.75,6.144A2.882,2.882,0,0,0,291.316,77.076Z" transform="translate(-27.468 -5.313)" fill="#f5b0be"/>
        <ellipse id="Oval-2" cx="6.831" cy="5.756" rx="6.831" ry="5.756" transform="matrix(0.813, -0.583, 0.583, 0.813, 252.692, 66.689)" fill="#f5b0be"/>
        <path id="Path-98" d="M289.1,69.511l-3.063,1.807c-2.178-.9-3.614,2.611-1.111,6.036a6.985,6.985,0,0,0,2.232,1.635c-1.2-.352-3.036-.9-3.894-2.151a7.149,7.149,0,0,1-1.057-2.521h0a5.832,5.832,0,0,1-.1-.678v-.081a2.705,2.705,0,0,0,0-.28v-.822a3.062,3.062,0,0,1,.1-.642v-.072a.4.4,0,0,1,.063-.262c.063-.09,0,0,0-.054a2.862,2.862,0,0,1,.09-.3v-.054a.848.848,0,0,1,.09-.253v-.063a3.529,3.529,0,0,1,.289-.551.189.189,0,0,1,0-.054c.045-.072.09-.145.145-.217h0l.2-.244h0l.2-.208h0l.235-.208a3.615,3.615,0,0,1,1.762-.768h0a3.658,3.658,0,0,1,.633,0L305.359,56.87l1.22,2.187Z" transform="translate(-27.199 -5.483)" fill="#f39eb3"/>
        <path id="Rectangle-7" d="M306.963,66.665h0c.235.407.208.9-.072,1.039l-13.644,8.132c-.28.163-.7,0-.9-.443h0c-.235-.416-.208-.9.072-1.039l13.644-8.132C306.313,66.014,306.728,66.249,306.963,66.665Z" transform="translate(-28.17 -6.377)" fill="#f7c1cc"/>
        <path id="Path-97-2" data-name="Path-97" d="M309.575,53.759l-19.048-8.214h0c-1.455-.623-3.614.958-4.744,3.515s-.9,5.132.515,5.747l4.672,1.979,14.358,6.2" transform="translate(-27.483 -4.378)" fill="#f5b0be"/>
        <path id="Path-98-2" data-name="Path-98" d="M305.515,63.791,288.22,56.318l1.066-2.268,15.75,6.795" transform="translate(-27.788 -5.211)" fill="#f39eb3"/>
        <path id="Rectangle-7-2" data-name="Rectangle-7" d="M307.595,56.265l-12.117-5.3c-.244-.108-.28-.542-.081-.976h0c.2-.434.56-.7.8-.587l12.117,5.277" transform="translate(-28.467 -4.76)" fill="#f7c1cc"/>
      </g>
    </g>
    <g id="Camada_2-3" data-name="Camada 2" transform="translate(534.663 2281.646)">
      <g id="Camada_2-4" data-name="Camada 2" transform="translate(0 -0.002)">
        <path id="Caminho_433" data-name="Caminho 433" d="M102.185,139.264c-.965,2.017-.651,2.776-2.3,3.329,0,0-6.712,17.166-16.83,19.92a20.214,20.214,0,0,1-3.448.423,20.4,20.4,0,0,1-3.448-.423C66.053,159.759,58.7,142.658,58.7,142.658c-1.659-.553-2.169-2.57-3.166-4.6s0-15.81,0-15.81l24.074,1.084,23.119-1.084S103.129,137.236,102.185,139.264Z" transform="translate(-34.57 10.146)" fill="#e8c5a6"/>
        <path id="Caminho_434" data-name="Caminho 434" d="M95.34,126.085s1.789,13.934.477,19.584c0,0,1.865-5.585,1.518-8.133l.824,6.2s1.518-14.477.835-18.749Z" transform="translate(-31.173 10.377)" fill="#f4e152"/>
        <path id="Caminho_435" data-name="Caminho 435" d="M58.792,126.85s-.412,14.412,1.084,18.749c0,0-4.132-16.266-3.785-19.519" transform="translate(-34.487 10.469)" fill="#f4e152"/>
        <path id="Caminho_436" data-name="Caminho 436" d="M55.24,128.435l1.236-17.09S71.723,110,78.945,110s23.857,1.843,23.857,1.843l.564,14.433s.455,1.377-1.843,2.169a97.78,97.78,0,0,1-22.2,2.939C69.9,131.373,62,130.6,55.24,128.435Z" transform="translate(-34.557 9.112)" fill="#282421"/>
        <path id="Caminho_437" data-name="Caminho 437" d="M98.26,118.656s10.02,1.475,14.618-2.169,12.687-10.942,16.819-11.213,12.232,2.3,15.355,2.017,8.274-3.763,8.675-5.238c0,0-22.241-1.193-26.2.369s-17.838,8.675-20.322,9.2a47.213,47.213,0,0,1-8,.087Z" transform="translate(-30.927 8.405)" fill="#282421"/>
        <path id="Caminho_438" data-name="Caminho 438" d="M98.78,110.664s15.084-9.76,17.014-11.408A18.023,18.023,0,0,1,129.4,95.58c6.506.922,18.847,2.115,21.5,3.589,0,0,3.774-1.193,4.511-3.253,0,0-11.863-4.338-23.542-4.045s-22.523,6.105-27.945,10.595-6.43,5.812-6.43,5.812Z" transform="translate(-30.991 7.581)" fill="#282421"/>
        <path id="Caminho_439" data-name="Caminho 439" d="M64.48,115.382s22.436-.271,27.956,1.084c0,0,1.583.163,1.648,4.229a48.114,48.114,0,0,1-.249,6.506s0,1.084-2.234,1.193c-3.253.239-17.35.922-26.568,0,0,0-1.193-.271-1.193-2.754v-9.011S63.753,115.393,64.48,115.382Z" transform="translate(-33.832 9.564)" fill="#c4c4c4"/>
        <path id="Caminho_440" data-name="Caminho 440" d="M54.492,133.8V122.188l-3.86,4.782,3.86-10.3-7.352,3.969,6.8-10.584-5.867-8.469,8.1,4.229L55.75,89.548l6.506,7.905s-.087-11.3,3.633-14.509l5.52,9.217S76.831,83.486,82.99,81.22l2.95,9.651L97.868,86.74l-1.453,9.1L99.82,93.81l-1.377,2.95h10.844l-5.205,6.506s6.7,1.442,7.743,2.5l-5.107,2.527s5.606,3.123,7.255,5.975a25.95,25.95,0,0,1-7.591,2.169l4.62,3.991-5.726-1.692,2.581,10.757L99.18,118.74l-.965,13.013-6.506-18.576s-18.934-.737-23.531.737l-1.93,19.855-4.967-15.561Z" transform="translate(-35.241 6.683)" fill="#f4e152"/>
        <path id="Caminho_441" data-name="Caminho 441" d="M159.06,73.23s1.182.5,1.084,1.41-4.153,14.607-4.153,14.607.249,1.843-3.741,1.225Z" transform="translate(4.744 40.99)" fill="#91632f"/>
        <path id="Caminho_442" data-name="Caminho 442" d="M110.876,73.18l-.922.423s-.455.314-.26,1.41l3.871,14.238s.434,1.778,4.479.976l-4.2-13.9Z" transform="translate(1.148 40.986)" fill="#91632f"/>
        <path id="Caminho_443" data-name="Caminho 443" d="M113.54,79.657l6.81,24.843,6.062,5.78,5.7,3.253h7.352l5.877-2.548,6.81-6.506,5.877-18.673,1.475-9.2s.737-6.984,0-7.721-3.492-8.09-3.492-8.09l-3.86-4.587-10.3-1.843L130.3,54s-5.693,0-7.591.737A65.723,65.723,0,0,0,116.1,58.6l-1.843,7.537Z" transform="translate(1.477 39.367)" fill="#a9793f"/>
        <path id="Caminho_444" data-name="Caminho 444" d="M138.825,90.72h-6.062s-.466,2.169-10.573,2.169l3.492,14.347a9.857,9.857,0,0,0,9.38,6.344c7.255,0,8.925-3.4,9.922-5.151l4.338-15.539S142.23,93.117,138.825,90.72Zm3.86,16.092c-2.017,2.169-7.07,2.386-7.07,2.386s-5.151-.553-6.81-2.017-2.483-9.76-2.483-9.76H144.9S144.756,104.6,142.685,106.812Z" transform="translate(2.207 42.466)" fill="#d7d7d8"/>
        <path id="Caminho_445" data-name="Caminho 445" d="M129,99.532a16.266,16.266,0,0,0,10.844-.922,5.671,5.671,0,0,1-4.771,2.852A8.577,8.577,0,0,1,129,99.532Z" transform="translate(2.781 43.132)" fill="#d7d7d8"/>
        <path id="Caminho_446" data-name="Caminho 446" d="M137.45,78.564V75.81h9.467l3.221,2.754-3.589-.369Z" transform="translate(3.495 41.208)" fill="#d7d7d8"/>
        <path id="Caminho_447" data-name="Caminho 447" d="M132.837,78.564V75.81H123.37l-3.21,2.754,3.578-.369Z" transform="translate(2.035 41.208)" fill="#d7d7d8"/>
        <path id="Caminho_448" data-name="Caminho 448" d="M115.068,87.246l.455-8.545,5.053-6.3V62.055s16.266-4.956,32.445,0v10.67l5.064,5.975.271,8.176s3.036-9.38,4.782-10.757c0,0,2.852-19.573-3.958-27.761,0,0-11.158-6.8-22.165-6.8s-23.152,6.983-23.152,6.983-6.333,7.081-3.394,27.489C110.471,76.033,113.778,79.893,115.068,87.246Z" transform="translate(1.152 38.317)" fill="#efefef"/>
        <path id="Caminho_449" data-name="Caminho 449" d="M113.866,48.464A63.979,63.979,0,0,1,129.047,42.5V60.306a55.761,55.761,0,0,0-8.491,1.67V72.321L115.5,78.578l-.455,8.545c-1.29-7.352-4.6-11.213-4.6-11.213C107.533,55.545,113.866,48.464,113.866,48.464Z" transform="translate(1.151 38.397)" fill="#d7d7d8"/>
        <path id="Caminho_450" data-name="Caminho 450" d="M160.463,76.05c-1.746,1.377-4.782,10.757-4.782,10.757l-.271-8.176-5.064-5.975V61.985A49.525,49.525,0,0,0,141.67,60.2V42.39a55.51,55.51,0,0,1,14.791,5.9C163.293,56.476,160.463,76.05,160.463,76.05Z" transform="translate(3.851 38.387)" fill="#d7d7d8"/>
        <path id="Caminho_451" data-name="Caminho 451" d="M109.775,61.35l10.844,6.365V70.73l-5.053,6.257-.455,8.545c-1.29-7.352-4.6-11.213-4.6-11.213a65.649,65.649,0,0,1-.737-12.969Z" transform="translate(1.154 39.987)" fill="#c4c3c4"/>
        <path id="Caminho_452" data-name="Caminho 452" d="M159.787,74.44c-1.746,1.377-4.782,10.757-4.782,10.757l-.271-8.176-5.064-5.975V67.533l10.595-6.073a70.672,70.672,0,0,1-.477,12.98Z" transform="translate(4.526 39.997)" fill="#c4c3c4"/>
        <path id="Caminho_453" data-name="Caminho 453" d="M156.3,86.6l-.184.607a1.16,1.16,0,0,1,.694,1.084,1.133,1.133,0,0,1-2.266,0,1.019,1.019,0,0,1,.087-.445l-.477-.455a1.681,1.681,0,0,0-.26.9,1.778,1.778,0,1,0,2.407-1.659Z" transform="translate(4.882 42.118)" fill="#f4e07b"/>
        <line id="Linha_7" data-name="Linha 7" x1="0.184" y2="0.607" transform="translate(160.995 128.718)" fill="none"/>
        <line id="Linha_8" data-name="Linha 8" x1="0.477" y1="0.455" transform="translate(159.032 129.478)" fill="none"/>
        <path id="Caminho_454" data-name="Caminho 454" d="M100.466,59.706c-3.058,8.068-3.958,9.955-6.192,12.395s-7.721,8.675-9.955,8.675H76.913c-2.234,0-9.955-5.682-12.189-8.122s-3.253-3.86-5.487-12.189,0-30.059,0-30.059C65.126,11.234,80.556,12.09,80.556,12.09s15.182-.857,21.026,18.24C101.973,31.707,103.882,50.706,100.466,59.706Z" transform="translate(-13.036 -1.978)" fill="#f2d8bd"/>
        <path id="Caminho_455" data-name="Caminho 455" d="M55.88,47.565v-1.3a7.461,7.461,0,0,1,2.3-.3s-.228-6.214,4.5-7.591a19.313,19.313,0,0,1,8.513-1.215c5.509.249,6.647,1.822,6.929,2.169s1.876,1.551.737,5.227S72.818,53.92,68.6,54.527s-6.626.586-8.881-3.253a15.105,15.105,0,0,1-1.28-3.589S58.342,47.435,55.88,47.565Z" transform="translate(-13.236 0.132)" fill="#423a34"/>
        <path id="Caminho_456" data-name="Caminho 456" d="M103.99,47.564v-1.3a7.493,7.493,0,0,0-2.266-.3s.228-6.214-4.489-7.591a19.313,19.313,0,0,0-8.556-1.193c-5.509.249-6.658,1.822-6.94,2.169s-1.876,1.518-.7,5.238,6.04,9.369,10.248,9.976,6.637.586,8.892-3.253a14.846,14.846,0,0,0,1.269-3.589S101.517,47.434,103.99,47.564Z" transform="translate(-11.149 0.134)" fill="#423a34"/>
        <path id="Caminho_457" data-name="Caminho 457" d="M71.728,37.29H88.08l-1.681.531H72.617l-1.117-.38Z" transform="translate(-11.918 0.149)" fill="#423a34"/>
        <path id="Caminho_458" data-name="Caminho 458" d="M76.93,40.8a2.05,2.05,0,0,1,2.1-1.572,2.093,2.093,0,0,1,2.31,1.475l-.228.488s-.488-1.529-1.789-1.529a1.833,1.833,0,0,0-2.017,1.486C77.31,41.845,76.93,40.8,76.93,40.8Z" transform="translate(-11.459 0.311)" fill="#423a34"/>
        <path id="Caminho_459" data-name="Caminho 459" d="M60.109,60.726s-1.518-.868-.911-8.578c0,0-.857-1.9-.152-9.554a9.933,9.933,0,0,1,1.724-5,8.241,8.241,0,0,0,1.724-4.977s2.646.661-.347,5.986c0,0-2.288,2.852-.152,5.238,0,0,1.008.857,1.822.607,0,0-1.974-1.572-1.475-3.253a5.953,5.953,0,0,1,1.475-2.537s1.377-1.171,1.019-3.958,3.524-4.62,3.524-4.62A7.97,7.97,0,0,1,66.529,35a5.693,5.693,0,0,0,1.269,6.04c2.7,3.145,1.833,7.059-.152,9.705s-3.546,6.04-1.93,7.667,3.156,2.939,2.342,4.012-1.171.813-2.44,1.366a1.843,1.843,0,0,0-1.019,2.44,1.355,1.355,0,0,0,1.93.455s-1.366-.455-1.008-1.084.3-1.171,2.483-1.572,2.288-1.583,2.288-2.4-.911-1.518-2.744-2.386a3.253,3.253,0,0,1-1.475-4.262,44.914,44.914,0,0,1,3.806-6.04c1.323-1.627,1.084-5.422-.369-8.144a7.493,7.493,0,0,1,0-6.853c.683-.911,4.338-3.926,4.836-5.52,0,0,.531,2.353-1.594,7.157a5.617,5.617,0,0,0,.564,4.338c1.258,2.624,2.169,4.793,1.789,6.051s-1.084,1.789-2.592,2.483-3.687,3.73-3.5,5.422-.184,1.746,1.3,3.2,2.928,2.852,2.7,4.338-2.169,3.774-2.9,4.685a2.407,2.407,0,0,0,.119,2.971,12.469,12.469,0,0,0,1.9,1.258,1.084,1.084,0,0,0,1.3-.954s-1.084.8-1.377.3-.792-.911-.488-1.865,2.212-4.923,2-6.994a15.9,15.9,0,0,0-2.245-5.715c-.423-.564-.531-3.806,1.182-4.717A6.984,6.984,0,0,0,76.05,45.36c.152-2.017-1.681-6.246-1.334-7.764A7.938,7.938,0,0,1,77.34,33.02c1.789-1.67,1.486-5.791,1.258-6.279a4.576,4.576,0,0,0-1.3-1.8s2.819-1.789,8.729-.878a4.229,4.229,0,0,0,2.668,6.669c2.353.683,2.169,3.156,1.366,3.351s-3.7,1.182-3.156,3.123a1.713,1.713,0,0,0,2.4,1.366,1.464,1.464,0,0,0,.835-1.247s-1.486,1.019-1.941,0a1.3,1.3,0,0,1,.987-1.757c.5-.152,2.819-.727,3.253-2.169s-4.685-4.641-4.793-5.14-1.562-.987.184-3.156a26.546,26.546,0,0,0,3.741-1.529,4.685,4.685,0,0,1-.77,2.169A2.787,2.787,0,0,0,92.25,29.4c2.516,1.366,3.958,2.971,2.288,4.8a1.909,1.909,0,0,0,2.017-2.212c-.2-2.353-2.744-3.579-2.9-4.186a2.917,2.917,0,0,1,1.713-3.427s-.835,2.776,2.516,4.641c0,0,3.351,1.225,2.928,4.576,0,0-.8,2.624,1.182,3.958S103.008,48.4,103.008,48.4l-1.659,6.7s.271,4.956-2.7,6.506a2.331,2.331,0,0,0,2.44-.878,5.183,5.183,0,0,0,1.2-2.993,3.134,3.134,0,0,0,3.73,1.681s1.366-.119,2.245-2.256,1.215-.3,1.215-.3.228-1.713-.835-1.334-.683,2.407-2.516,2.407-1.637-3.427-1.334-3.7a3.568,3.568,0,0,1,2.711-2.321c2.321-.531,2.472-3.741,2.429-4.457s-1.4-3.318-1.215-4.273.987-1.974,1.833-1.171-.727,1.9,1.084,2.624a1.789,1.789,0,0,0,1.29-.423,1.431,1.431,0,0,1-1.084-1.366,6.4,6.4,0,0,1,.108-1.713.477.477,0,0,0-.38-.423s-2.9-.228-2.819-1.713a5.227,5.227,0,0,1,1.6-2.9,3.785,3.785,0,0,0,.716-4.077,20.311,20.311,0,0,1-.412-8.415c.3-1.67,1.637-5.216-.607-9.174a35.221,35.221,0,0,0-6.994-7.927A14.357,14.357,0,0,0,96.23,4.8c-3.654.108-5.335-1.225-6.355-2.364a6.3,6.3,0,0,0-6.018-1.084C81.949,2.169,76.96,0,75.551,0S71.94-.217,67.96,3.622c-1.768,1.713-.293,1.8-2.082,2.971s-4.5,2.245-5.368,3.915-.954,4.338-2.169,5.682-5.259,3.882-5.747,7.233.868,5.259,0,7.081-2.819,4.273-.878,6.788,2.093,3.123,1.366,4.262-2.5,3-2.169,4.229A1.421,1.421,0,0,0,52.2,47a1.692,1.692,0,0,1-.2-2.169c.727-1.442,2.169-1.41,2.516-2.668a4.164,4.164,0,0,0-.076-2.364s2.288,1.757,1.486,3.741-2.624,2.809-2.169,4.685,2.288,1.865,2.288,3.579a4.338,4.338,0,0,1-.542,2.44s1.876-.727,2.169-1.757c0,0-.607,4.706.759,6.821a3.427,3.427,0,0,0,1.67,1.421Z" transform="translate(-13.659 -2.998)"/>
        <path id="Caminho_460" data-name="Caminho 460" d="M61.283,61.49a3.633,3.633,0,0,1-2.234,3.557c-2.516,1.182-4.912,3.383-4.912,3.915a7.005,7.005,0,0,0,.911,3.665c.694,1.334-1.746,3.383-2.169,4.457s-1.258,2.7,1.084,3c0,0-1.529-2.017-.651-3.08s3.145-1.453,3.579-2.288a3.34,3.34,0,0,0,0-3.546c-.911-1.594.846-2.548,2.256-2.44,0,0-1.529,1.019-.727,2.06s3.156,2.928,3.123,5.064-1.789,1.865-1.681,3.654.3,2.939,1.084,3.123a6.507,6.507,0,0,0,2.169.423s-2.169-.38-2.06-2.06,1.562-2.353,2.407-2.776A2.971,2.971,0,0,0,65.4,75.251a3.676,3.676,0,0,0-2.1-2.96,3.253,3.253,0,0,1-.716-2.407c.184-1.377.184-2.169.488-2.093s1.659,1.9,2.353,2.05a3.513,3.513,0,0,0,1.876.076S63.245,67.8,61.283,61.49Z" transform="translate(-13.531 2.192)"/>
        <path id="Caminho_461" data-name="Caminho 461" d="M96.089,60.67a10.942,10.942,0,0,0,3.253,5.509c2.548,2.093,3.253,5.639,2.093,7.005s-2.4,3.5-1.084,4.988,2.516,4.045.878,4.609c0,0,.868-2.277-.5-3s-2.744-.987-2.4-2.624,2.776-3.654,2.353-5.422A6.322,6.322,0,0,0,97.954,68.4a1.984,1.984,0,0,1-.976-1.952,1.247,1.247,0,0,0-.651,1.681c.455,1.215,2.321,3.644,1.865,4.826s-2.744,1.974-2.9,4.11a4.121,4.121,0,0,0,.455,1.789,2.169,2.169,0,0,1,.228,1.6l-1.637.228s.878-.694.651-1.453-1.366-1.7-1.29-2.6a5.3,5.3,0,0,1,.987-2.993,2.483,2.483,0,0,0,.727-1.453A5.238,5.238,0,0,1,92.673,73.9c-1.529.239-2.819.347-3.2,2.169a1.659,1.659,0,0,1,.8-2.169c1.41-.792,1.215-1.67,1.941-2.353a2.668,2.668,0,0,0,1.03-2.744,7.526,7.526,0,0,0-2.971,2.44,5.422,5.422,0,0,1-3.557,2.169S94.81,65.43,96.089,60.67Z" transform="translate(-10.633 2.122)"/>
      </g>
    </g>
  </g>
</svg>
