<svg xmlns="http://www.w3.org/2000/svg" viewBox="0 0 268.25 312.21"><defs><style>.cls-1{fill:#cfcdcc;}.cls-2{fill:#353535;}.cls-10,.cls-3,.cls-9{fill:#fff;}.cls-12,.cls-3,.cls-8{opacity:0.5;}.cls-10,.cls-11,.cls-12,.cls-13,.cls-3,.cls-8,.cls-9{isolation:isolate;}.cls-12,.cls-4{fill:#969596;}.cls-11,.cls-5,.cls-8{fill:#ce7013;}.cls-6{fill:#f1f1f1;}.cls-7{fill:#ea931e;}.cls-11,.cls-9{opacity:0.4;}.cls-10{opacity:0.7;}.cls-13{opacity:0.2;}.cls-14{fill:#c4c7e5;}.cls-15{fill:#e11714;}.cls-16{fill:#8a694f;}.cls-17{fill:#9b7d63;}.cls-18{fill:#c1946f;}.cls-19{fill:#c9a788;}.cls-20{fill:#dde9f8;}.cls-21{fill:#7385ac;}.cls-22{fill:#a8c2e7;}</style></defs><g id="Camada_2" data-name="Camada 2"><g id="Camada_1-2" data-name="Camada 1"><path id="Path-41" class="cls-1" d="M146.93,168.78a2.25,2.25,0,0,0-2.82-1.44L114.69,175c-1.23.36-1.6,2.3-1.26,3.46s1.71,2.49,2.94,2.13l28.94-9.06a2.24,2.24,0,0,0,1.62-2.72Z"/><circle id="Oval-11" class="cls-2" cx="117.13" cy="177.43" r="1.91"/><path id="Path-42" class="cls-3" d="M141.38,170.8a.52.52,0,0,0-.48-.09l-20.59,5.85a.55.55,0,0,0-.43.66.56.56,0,0,0,.66.44l.08,0,20.59-5.84a.56.56,0,0,0,.38-.69.54.54,0,0,0-.21-.3Z"/><path id="Path-43" class="cls-4" d="M137.86,167.51a3.87,3.87,0,0,0,4,3.7L148,171a3.87,3.87,0,1,0-.25-7.73h-.08l-6.11.26A3.87,3.87,0,0,0,137.86,167.51Z"/><path id="Path-44" class="cls-2" d="M142.87,167.25a1.91,1.91,0,1,0,1.82-2,1.87,1.87,0,0,0-1.32.62A1.91,1.91,0,0,0,142.87,167.25Z"/><g id="Group-7"><path id="Path-49" class="cls-4" d="M175.08,78.89l-.47-.24c.1-.19,9.86-19,12.67-24.23.23-.42.44-1,.18-1.29-1.13-1.21-8.7,1.46-13.2,3.43l-.22-.49c1.23-.53,12.05-5.19,13.8-3.3.4.42.36,1.06-.1,1.91C184.94,59.94,175.18,78.7,175.08,78.89Z"/><path id="Path-50" class="cls-4" d="M190,103.49c-.4-1.92-5.23-47.25-5.56-52.16a2,2,0,0,0-1-1.72c-2.59-1.55-9.33,1.5-9.41,1.53l-.22-.49c.29-.13,7.08-3.19,9.9-1.5A2.52,2.52,0,0,1,185,51.3c.32,4.89,5.15,50.16,5.55,52.08Z"/><path id="Path-51" class="cls-4" d="M169.78,70.05,173,65l1.34.86-3.25,5.06Z"/></g><path id="Path-52" class="cls-5" d="M55.33,171.93l0-3.89,68.73.65,0,3.89Z"/><path id="Shape" class="cls-2" d="M165.69,156.9a51.44,51.44,0,1,1,57,45.26,51.44,51.44,0,0,1-57-45.26Z"/><path id="Shape-2" class="cls-6" d="M169,156.53a48.15,48.15,0,1,1,53.32,42.36h0A48.15,48.15,0,0,1,169,156.53Z"/><path id="Shape-3" class="cls-1" d="M171.36,156.25A45.74,45.74,0,1,1,222,196.5,45.73,45.73,0,0,1,171.36,156.25Z"/><path id="Path-53" class="cls-1" d="M213.71,152.19a3.2,3.2,0,1,1,3.54,2.81,3.2,3.2,0,0,1-3.54-2.81Z"/><path id="Path-54" class="cls-7" d="M173.27,178.11a51.05,51.05,0,0,1,36-77.73c1-.15,2-.26,3-.35a21.41,21.41,0,0,0,2.7-4,54.93,54.93,0,0,0-43.84,86c.74.33,2.26-3.42,2.1-3.89Z"/><path id="Path-55" class="cls-7" d="M217.76,152.9l-.61,0c-.5,0-49.49,1.79-51.71,1.91a7.58,7.58,0,0,1-4.53-1.36.81.81,0,0,1-.18-1.11.79.79,0,0,1,1.11-.18l0,0a6,6,0,0,0,3.49,1c2.12-.11,45.18-1.68,51.12-1.89,1.24-5.45,10.62-46.44,12-53a3.56,3.56,0,0,0-.65-3.29c-2-2.24-7.23-1.66-7.3-1.65L199,95.88a22.06,22.06,0,0,0-13.38,6.62.83.83,0,0,1-1,.12.8.8,0,0,1-.22-1.11.39.39,0,0,1,.08-.1l.43-.45a22,22,0,0,1,13.37-6.61l22.05-2.52c.24,0,6.07-.66,8.64,2.15a5.07,5.07,0,0,1,1,4.7c-1.44,7-12,53.15-12.12,53.61Z"/><path id="Path-56" class="cls-1" d="M180.44,57.1c-5.24,1.57-8.8,5.11-8,7.92s5.77,3.81,11,2.26Z"/><path id="Path-57" class="cls-4" d="M173.71,63.87c-.38-1.28.15-2.7,1.33-4-2,1.62-3,3.52-2.55,5.18.83,2.81,5.76,3.81,11,2.26l-.23-.79C178.58,67.46,174.47,66.41,173.71,63.87Z"/><path id="Path-58" class="cls-1" d="M149.74,62.71a.75.75,0,0,1-.48-.1.79.79,0,0,1-.31-1.07h0c1.12-2,5.26-3.55,11-5.51,1-.36,2-.7,2.9-1-1.25-1.38-3.3-3.78-3.8-4.38a.8.8,0,0,1,.15-1.12.79.79,0,0,1,1.06.09c1.94,2.29,4.15,4.82,4.49,5.11a.81.81,0,0,1,.29.74.79.79,0,0,1-.48.62c-1.1.45-2.55.95-4.09,1.47-3.88,1.34-9.2,3.17-10.11,4.79A.79.79,0,0,1,149.74,62.71Z"/><path id="Path-59" class="cls-1" d="M170.84,78.55c-6.05-13.51-6-13.72-6-14.32s.18-1,2.42-3.45c1.07-1.18,2.27-2.44,2.93-3.09.13-.12,3.15-3.11,1.1-5.22-1.24-1.29-7-1-11.6.13L158.84,49c1.94-.47,11.77-2.61,15.16.9,3.19,3.29,1.62,7.73-1.18,10.46-1,1-3.07,3.21-4,4.33.84,2,3.24,7.48,5.43,12.37Z"/><path id="Path-60" class="cls-2" d="M160.51,50.52c.3,1.5-.11,2.93-1.91,3.3l-12.29,2.49a3.1,3.1,0,0,1-3.81-2.06,3.09,3.09,0,0,1,2.71-3.38l12.3-2.46c1.8-.37,2.7.63,3,2.12Z"/><path id="Path-61" class="cls-2" d="M159.31,46.93c.37-.08.76.28.88.81l1.25,5.49c.12.53-.07,1-.44,1.1l-1.8.41c-.36.08-.76-.29-.87-.82l-1.24-5.49c-.12-.53.08-1,.44-1.11Z"/><path id="Path-62" class="cls-3" d="M175.69,62.26a.52.52,0,0,1-.59-.47.47.47,0,0,1,.05-.28c.15-.32.9-1.18,4.62-2.16a.53.53,0,0,1,.27,1c-3.24.85-3.9,1.56-3.95,1.62a.54.54,0,0,1-.41.26Z"/><path id="Shape-4" class="cls-2" d="M4,175.9a51.44,51.44,0,1,1,57,45.26h0A51.44,51.44,0,0,1,4,175.9Z"/><path id="Shape-5" class="cls-6" d="M7.29,175.53A48.15,48.15,0,1,1,60.61,217.9,48.14,48.14,0,0,1,7.29,175.53Z"/><path id="Shape-6" class="cls-1" d="M9.69,175.25a45.74,45.74,0,1,1,50.65,40.24h0A45.75,45.75,0,0,1,9.69,175.25Z"/><path id="Path-63" class="cls-7" d="M3.83,166.5a51.49,51.49,0,0,1,102-5.15c1.09,1.12,2.63,2.29,4,1.91A55.2,55.2,0,0,0,0,168.52C1,169.1,2.28,168.92,3.83,166.5Z"/><path id="Path-64" class="cls-3" d="M25,126.73a53,53,0,0,1,74,13.71l.38-.4a53.59,53.59,0,0,0-74.41-14Z"/><path id="Path-65" class="cls-1" d="M49.16,170.73A6,6,0,1,1,55.82,176h0A6,6,0,0,1,49.16,170.73Z"/><path id="Path-66" class="cls-2" d="M128.58,185.82c-.69-.09-69.23-9.24-72.5-9.57s-4-.68-5.78-2.24A5.82,5.82,0,0,1,49,168.4a6.79,6.79,0,0,1,3.64-4.1c1.6-.47,13.6-1.33,14.11-1.37l.35,0-.35,1.58-.52-.12.2-.88c-2.05.15-12.25.91-13.64,1.32a6.29,6.29,0,0,0-3.29,3.75,5.31,5.31,0,0,0,1.21,5.09c1.6,1.36,2.17,1.74,5.46,2.07s71.83,9.49,72.51,9.59Z"/><g id="Group-8"><path id="Path-67" class="cls-7" d="M55.44,170.66a.82.82,0,0,1-.51-.11.8.8,0,0,1-.26-1.1h0l37.1-59.78a.79.79,0,0,1,1.09-.26.8.8,0,0,1,.26,1.1h0L56,170.29A.81.81,0,0,1,55.44,170.66Z"/><path id="Path-68" class="cls-7" d="M55.18,170.5a.76.76,0,0,1-.51-.12L9.24,141.85a.79.79,0,1,1,.82-1.36l0,0L55.52,169a.79.79,0,0,1-.34,1.46Z"/><path id="Path-69" class="cls-7" d="M55.34,170.53a.79.79,0,0,1-.72-.3c-.32-.41-32.22-41.18-34.33-43.55-2.31-2.61-3.27-4.16-3.77-6.15a5.13,5.13,0,0,1,.77-4.28c1.5-2.07,4.66-3.35,9.42-3.85l.21,0,2.38-.29c34.66-4.26,39.85-4.69,40.51-4.59,1.53.23,14.14,7.78,18,10.08.37.23.09.37-.13.75s-.32.84-.69.62c-6.12-3.68-16.24-9.62-17.41-9.88-.73,0-8.31.69-40,4.59l-2.4.29-.21,0c-5.33.54-7.45,2-8.29,3.19a3.57,3.57,0,0,0-.52,3c.43,1.68,1.29,3.07,3.42,5.46s33.07,41.94,34.39,43.62a.81.81,0,0,1-.54,1.29Z"/><path id="Path-70" class="cls-7" d="M154.21,134a.8.8,0,0,1-.56-.15l-4.47-3.22a.8.8,0,0,1,.86-1.35l.07.06,4.46,3.22a.79.79,0,0,1,.18,1.11.82.82,0,0,1-.55.33Z"/><path id="Path-71" class="cls-7" d="M180.47,96.21l3.11,2.35-47.33,62.59-3.16-2.31Z"/></g><path id="Path-72" class="cls-8" d="M182.89,98l-47.21,62.44-2.47-1.8-.12.16,3.16,2.31,47.33-62.59Z"/><path id="Path-73" class="cls-7" d="M130,143.45a21.18,21.18,0,0,1-2.13.13,33,33,0,0,1-24.71-10.52,1.86,1.86,0,0,1,2.7-2.55h0a29,29,0,0,0,22,9.36c9.28-.16,17.75-7.39,25.16-21.49,9.72-18.46,18.31-39.31,18.39-39.52a1.86,1.86,0,0,1,3.44,1.42h0c-.09.2-8.74,21.21-18.54,39.83-7.56,14.37-16.39,22.21-26.26,23.34Z"/><path id="Path-74" class="cls-8" d="M174.5,78.36a.29.29,0,0,1,0,.09c-.08.21-8.74,21.21-18.54,39.83-7.56,14.37-16.39,22.21-26.26,23.34a21,21,0,0,1-2.13.14,33.11,33.11,0,0,1-24.71-10.52.16.16,0,0,1,0-.07,1.82,1.82,0,0,0,.39,1.89,33,33,0,0,0,24.71,10.52c.72,0,1.43-.05,2.13-.13,9.87-1.13,18.69-9,26.26-23.34,9.8-18.62,18.45-39.63,18.54-39.83A1.85,1.85,0,0,0,174.5,78.36Z"/><path id="Path-75" class="cls-7" d="M88.38,104.62l3.46-1.78,28.87,56-3.46,1.78Z"/><path id="Path-76" class="cls-8" d="M88.35,106.08l1.61-.83,28.59,56.22-1.62.82Z"/><path id="Path-77" class="cls-9" d="M92.65,108.78l1,1.81,2.61,4.81,3.63,6.83c1.31,2.5,2.7,5.18,4.11,7.85l4,7.89c1.3,2.51,2.46,4.88,3.49,6.9s1.83,3.72,2.43,4.9l.91,1.86-1-1.79-2.6-4.81c-1.06-2-2.32-4.31-3.63-6.83l-4.11-7.85-4-7.89L96,115.56l-2.43-4.9Z"/><path id="Shape-7" class="cls-7" d="M126.43,188.85s-36.44-2-57.27-5.63h-.1c-3-.45-7.93-3.51-9.66-9.8-.54-1.94-4.36-2.83-4.36-2.83l.43-.12,0,0c.14-2.28.46-1.44.46-1.44a12.22,12.22,0,0,1,1.49-2.4c1.54-1.41,3.61-5.83,3.61-5.83s60.88-4.31,64.16-4.07A16.33,16.33,0,0,1,142,171a16,16,0,0,1-14.11,17.76h0A14.13,14.13,0,0,1,126.43,188.85Z"/><path id="Shape-8" class="cls-10" d="M114,174.2a12.09,12.09,0,1,1,13.38,10.64h0A12.08,12.08,0,0,1,114,174.2Z"/><path id="Shape-9" class="cls-10" d="M103.74,182.33a6.33,6.33,0,0,1-.76,0h-.78c-.41,0-.82-.06-1.22-.12-8-.79-27.17-2.78-31.41-4l-.53-.14a7.29,7.29,0,0,1,1.66-14.38c13.86-.7,30.81-1.51,32.7-1.33h.12a10,10,0,0,1,.23,19.92Z"/><path id="Path-78" class="cls-1" d="M97.83,177.56a2.13,2.13,0,0,1,1.89-2.35l28.54-4.8c1.2-.17,2.27,1.39,2.44,2.51s-.53,2.83-1.73,3l-28.68,3.37a2.12,2.12,0,0,1-2.46-1.73Z"/><circle id="Oval-12" class="cls-2" cx="127.09" cy="173.5" r="1.82"/><path id="Path-79" class="cls-3" d="M103.43,177.16a.58.58,0,0,1,.39-.27L124,174a.53.53,0,0,1,.15,1L104,177.93a.53.53,0,0,1-.6-.45.59.59,0,0,1,.06-.32Z"/><path id="Path-80" class="cls-4" d="M105.72,177.52a3.68,3.68,0,0,1-4.69,2.26h0l-5.5-1.94a3.68,3.68,0,0,1,2.41-7l0,0,5.5,1.93a3.67,3.67,0,0,1,2.25,4.69Z"/><path id="Path-81" class="cls-2" d="M101.24,175.9a1.83,1.83,0,1,1-.08-1.39A1.82,1.82,0,0,1,101.24,175.9Z"/><path id="Path-82" class="cls-3" d="M124.46,158.55l1-.16.5-.08.61,0,.7,0a6.45,6.45,0,0,1,.76,0l.84.07.88.17a12.37,12.37,0,0,1,1.87.52,14.79,14.79,0,0,1,1.89.89,17.59,17.59,0,0,1,1.8,1.2,17,17,0,0,1,1.58,1.48,14.53,14.53,0,0,1,1.29,1.64,14.15,14.15,0,0,1,.93,1.71l.37.82a7.24,7.24,0,0,1,.25.79,4.79,4.79,0,0,1,.21.74c.05.24.1.46.14.69s.07.41.11.6a2.19,2.19,0,0,1,0,.51c.05.61.06,1,.06,1s-.1-.34-.26-.93c0-.14-.08-.31-.13-.48l-.2-.56a12.21,12.21,0,0,0-.53-1.3c-.1-.23-.21-.48-.33-.73s-.27-.48-.42-.74a5.35,5.35,0,0,0-.47-.76c-.18-.25-.34-.51-.53-.77a16.25,16.25,0,0,0-1.27-1.48,13.91,13.91,0,0,0-3.13-2.48,18.93,18.93,0,0,0-1.72-.92c-.3-.11-.59-.21-.87-.33a6.55,6.55,0,0,0-.85-.29l-.82-.25-.78-.17a10.89,10.89,0,0,0-1.38-.19l-.59-.07-.51,0Z"/><circle id="Oval-13" class="cls-2" cx="55.13" cy="170.05" r="1.82"/><path id="Path-83" class="cls-7" d="M217.79,150.29c-.11-.1-11.31-10.27-14.86-13.95-2.36-2.45-10.36-20.26-15.31-32l.1-.06L174.36,76.9l-3.49,1.7,13.58,27.76c3.14,7.39,12.51,29.13,15.82,32.56,3.64,3.76,14.59,13.69,15,14.12a1.86,1.86,0,0,0,2.5-2.75Z"/><path id="Path-84" class="cls-11" d="M216.76,152.69c-.47-.42-11.4-10.35-15-14.11-3.3-3.43-12.67-25.16-15.82-32.55L172.31,78.27l2.19-1.07-.15-.3-3.49,1.71,13.58,27.76c3.14,7.38,12.51,29.12,15.82,32.55,3.64,3.77,14.59,13.7,15,14.12a1.87,1.87,0,0,0,1.46.47,2,2,0,0,0,.92-.37A1.74,1.74,0,0,1,216.76,152.69Z"/><path id="Path-85" class="cls-3" d="M181.26,111.94s-1,1-2.41,2.53c-.7.79-1.5,1.69-2.34,2.68-.42.5-.85,1-1.27,1.55s-.85,1.07-1.25,1.63-.83,1.11-1.22,1.67-.77,1.11-1.12,1.65-.69,1.08-1,1.58l-.46.76-.4.7-.72,1.24-.52,1c-.29.53-.47.84-.47.84s.09-.34.28-.92c.09-.3.21-.66.34-1.06s.34-.85.55-1.34c.1-.25.21-.5.32-.76s.26-.52.4-.8c.29-.54.55-1.11.9-1.68s.67-1.17,1.07-1.74.79-1.14,1.21-1.72.87-1.12,1.32-1.65.93-1,1.36-1.53a17.07,17.07,0,0,1,1.35-1.34c.44-.42.86-.81,1.28-1.15a25.07,25.07,0,0,1,2-1.56Z"/><path id="Path-86" class="cls-2" d="M215.08,152a1.82,1.82,0,1,1,2,1.6,1.8,1.8,0,0,1-1.34-.38A1.84,1.84,0,0,1,215.08,152Z"/><path id="Path-87" class="cls-4" d="M174.94,76.69a.67.67,0,0,1-.29.9h0l-3.4,1.62a.67.67,0,0,1-.89-.33h0l-.79-1.67a.66.66,0,0,1,.3-.89l3.41-1.63a.67.67,0,0,1,.89.33Z"/><path id="Path-88" class="cls-1" d="M83.33,94l2.82-1.46,5.71,11.08L89,105Z"/><path id="Path-89" class="cls-12" d="M83.45,94.21l1-.53,5.59,10.84-1,.53Z"/><path id="Path-90" class="cls-4" d="M92.83,103.27a.66.66,0,0,1-.27.91L89.24,106a.67.67,0,0,1-.9-.29h0l-.87-1.62a.66.66,0,0,1,.27-.91l3.31-1.79a.67.67,0,0,1,.91.28h0Z"/><path id="Path-91" class="cls-2" d="M82.07,85.32c-3.89.37-14.59,1-15.71,3.8a4.4,4.4,0,0,0-.06,3.68.94.94,0,0,0,1.32,0,.88.88,0,0,0,.24-.36c.39-1.08,2.2-2.36,6.84.71,3.27,1.92,7.75,3.81,14.54.1s11.26-4.13,12.7-4,3.87.41,3.65-1.55S102.83,83.93,96.2,84C89.41,84,85.39,85,82.07,85.32Z"/><path id="Path-92" class="cls-13" d="M101.72,87.34c-1.42-.1-5.92.33-12.71,4s-11.26,1.82-14.53-.1c-4.65-3.09-6.45-1.8-6.84-.71a.94.94,0,0,1-1.21.54,1,1,0,0,1-.35-.23,2.12,2.12,0,0,1-.11-.21,3.62,3.62,0,0,0,.33,2.12.92.92,0,0,0,1.32,0,.88.88,0,0,0,.24-.36c.39-1.08,2.19-2.36,6.84.72,3.27,1.91,7.75,3.8,14.53.09s11.27-4.13,12.71-4,3.87.41,3.65-1.54a2.65,2.65,0,0,0-.36-1c-.52,1-2.35.73-3.51.65Z"/><g id="Group-20"><path id="Path-166" class="cls-14" d="M132.14,210.33l16.22,6.47a.88.88,0,0,1,.5,1.15l-2.2,5.52a9.63,9.63,0,0,1-17.89-7.14l2.2-5.51a.88.88,0,0,1,1.15-.5Z"/></g><path id="Path-167" class="cls-15" d="M147,217.88l-2.06,5.17a7.85,7.85,0,1,1-14.59-5.8l.41-1c.56,6.29,6.66,7.51,9.31,3.71a5.83,5.83,0,0,1,6.91-2Z"/><path id="Path-168" class="cls-14" d="M134.49,227.36a1.28,1.28,0,0,1,.71,1.65l-7.62,19.09-2.36-.94,7.62-19.1A1.27,1.27,0,0,1,134.49,227.36Z"/><rect id="Rectangle-28" class="cls-14" x="124.92" y="240.83" width="2.16" height="15.59" rx="1.08" transform="translate(-151.6 273.59) rotate(-68.26)"/><g id="Group-2"><path id="Path-3" class="cls-16" d="M165.09,309.84a2.2,2.2,0,0,0,1.93-2.42L132.37,1.94a2.19,2.19,0,1,0-4.35.5l34.65,305.47A2.2,2.2,0,0,0,165.09,309.84Z"/></g><rect id="Rectangle" class="cls-17" x="119.49" y="5.42" width="22.79" height="5.69" rx="2.85" transform="translate(-0.1 14.81) rotate(-6.47)"/><path id="Path-4" class="cls-18" d="M144.1,11.76l6.49,2.07-3.27,32L135.54,49.3l-6.2-35.23Z"/><path id="Path-5" class="cls-19" d="M118.79,14.63l-5.86,3.47,10.35,30.48,12.26.72-4-35.48Z"/><g id="Group-3"><rect id="Rectangle-2" class="cls-16" x="121.74" y="47.15" width="27.59" height="4.3" rx="2.15" transform="translate(-4.69 15.59) rotate(-6.47)"/><g id="Group-4"><path id="Path-6" class="cls-16" d="M118.05,9.72l25.68-2.91a3.59,3.59,0,0,1,.81,7.14l-25.68,2.91a3.59,3.59,0,1,1-.81-7.14Z"/><path id="Path-7" class="cls-16" d="M112.93,18.1l37.65-4.27a2.15,2.15,0,1,0-.42-4.28h-.06l-37.66,4.27a2.15,2.15,0,0,0,.49,4.28Z"/></g></g><rect id="Rectangle-3" class="cls-17" x="121.78" y="47.75" width="16.97" height="4.3" rx="2.15" transform="translate(-4.79 15) rotate(-6.47)"/><path id="Path-8" class="cls-17" d="M112.93,18.1l21-2.38a2.15,2.15,0,1,0-.42-4.28h-.06l-21,2.37a2.15,2.15,0,0,0,.49,4.28Z"/><path id="Rectangle-4" class="cls-16" d="M149.75,304.43l29.08-3.3a3.89,3.89,0,0,1,4.32,3.44h0a3.9,3.9,0,0,1-3.44,4.32l-29.08,3.3a3.91,3.91,0,0,1-4.32-3.44h0A3.9,3.9,0,0,1,149.75,304.43Z"/><path id="Path-67-2" data-name="Path-67" class="cls-20" d="M140.25,268.44v2.4c-2.55,0-8.53,0-8.53-5.26v-6.1a1.34,1.34,0,0,0-1.34-1.36H110.14a1.37,1.37,0,0,0-1.36,1.36v6.1c0,5.26-6,5.26-8.52,5.26v-2.4c5.12,0,6.13-1.05,6.13-2.86v-6.1a3.75,3.75,0,0,1,3.75-3.75H130.4a3.74,3.74,0,0,1,3.73,3.75v6.1c0,1.81,1,2.86,6.12,2.86Z"/><path id="Path-68-2" data-name="Path-68" class="cls-21" d="M134.12,254.72v3.9H106.4v-3.89a2.54,2.54,0,0,1,2.53-2.54h22.68A2.54,2.54,0,0,1,134.12,254.72Z"/><path id="Path-69-2" data-name="Path-69" class="cls-22" d="M106.37,256.28h27.75v2.34H106.37Z"/><path id="Path-70-2" data-name="Path-70" class="cls-21" d="M124.05,312.07h-7.62A24,24,0,0,1,92.72,284.6L93.84,277a16,16,0,0,1,15.84-13.68h21.13A16,16,0,0,1,146.65,277l1.13,7.63a23.94,23.94,0,0,1-23.73,27.47Z"/><path id="Path-71-2" data-name="Path-71" class="cls-22" d="M101.44,280.58H139v13.93a6.18,6.18,0,0,1-6.19,6.18H107.62a6.18,6.18,0,0,1-6.18-6.18Z"/><path id="Path-72-2" data-name="Path-72" class="cls-21" d="M101.44,279.1H139V293a6.18,6.18,0,0,1-6.19,6.18H107.61a6.18,6.18,0,0,1-6.18-6.18V279.1Z"/><path id="Path-73-2" data-name="Path-73" class="cls-22" d="M101.43,277.93H139v1.17H101.43Z"/><path id="Path-74-2" data-name="Path-74" class="cls-20" d="M102.79,285.22h-1a1.3,1.3,0,0,1-1.31-1.3.82.82,0,0,1,0-.22l.94-5.77h1.71l1,5.77a1.32,1.32,0,0,1-1.09,1.51Z"/></g></g></svg>