<svg id="Grupo_7" data-name="Grupo 7" xmlns="http://www.w3.org/2000/svg" xmlns:xlink="http://www.w3.org/1999/xlink" width="777" height="632.349" viewBox="0 0 777 632.349">
  <defs>
    <linearGradient id="linear-gradient" x1="0.5" y1="0.177" x2="0.5" y2="1.567" gradientUnits="objectBoundingBox">
      <stop offset="0" stop-color="#fff" stop-opacity="0"/>
      <stop offset="1" stop-color="#424242" stop-opacity="0.239"/>
    </linearGradient>
  </defs>
  <g id="Camada_2" data-name="Camada 2" transform="translate(21.533)">
    <g id="GROUND" transform="translate(3.013 613.01)">
      <path id="Caminho_2" data-name="Caminho 2" d="M141.172,402.2H2.695a.765.765,0,0,1,0-1.53H141.172a.78.78,0,0,1,.765.765A.765.765,0,0,1,141.172,402.2Z" transform="translate(-1.93 -400.67)" fill="#9ab3da"/>
      <path id="Caminho_3" data-name="Caminho 3" d="M211.033,402.2H117.155a.765.765,0,1,1,0-1.53h93.878a.765.765,0,1,1,0,1.53Z" transform="translate(58.729 -400.67)" fill="#9ab3da"/>
      <path id="Caminho_4" data-name="Caminho 4" d="M376.583,402.2H282.7a.765.765,0,0,1,0-1.53h93.878a.765.765,0,0,1,0,1.53Z" transform="translate(146.465 -400.67)" fill="#9ab3da"/>
      <path id="Caminho_5" data-name="Caminho 5" d="M420.483,413.84H326.6a.765.765,0,1,1,0-1.53h93.879a.765.765,0,0,1,0,1.53Z" transform="translate(169.73 -394.501)" fill="#9ab3da"/>
      <path id="Caminho_6" data-name="Caminho 6" d="M173.789,413.84H79.895a.765.765,0,1,1,0-1.53h93.894a.765.765,0,0,1,0,1.53Z" transform="translate(38.983 -394.501)" fill="#9ab3da"/>
      <path id="Caminho_7" data-name="Caminho 7" d="M443.888,402.2H374.535a.765.765,0,1,1,0-1.53h69.353a.78.78,0,0,1,.765.765A.765.765,0,0,1,443.888,402.2Z" transform="translate(195.131 -400.67)" fill="#9ab3da"/>
    </g>
    <g id="WHITEBOARD" transform="translate(205.228 75.121)">
      <path id="Caminho_8" data-name="Caminho 8" d="M313.916,332.115c-89.426,0-152.828-7.757-164.624-9.317l-9.669-1.27-.78-9.715c-2.157-26.545-4.743-68.848-4.743-119.612s2.586-93.052,4.743-119.6l.78-9.715,9.669-1.285c11.8-1.53,75.2-9.3,164.624-9.3s152.828,7.757,164.639,9.3l9.654,1.285.8,9.715c2.157,26.545,4.728,68.848,4.728,119.6s-2.57,93.068-4.728,119.612l-.8,9.715-9.654,1.27C466.744,324.358,403.343,332.115,313.916,332.115Z" transform="translate(-134.1 -47.404)" fill="#9ab3da"/>
      <path id="Caminho_9" data-name="Caminho 9" d="M266.273,70.213h42.242a176.626,176.626,0,0,0-5.278-20.1s-17.35-1.01-36.964-1.01-36.949,1.01-36.949,1.01A173.2,173.2,0,0,0,224,70.213Z" transform="translate(-86.456 -49.1)" fill="#404b7c"/>
      <path id="Caminho_10" data-name="Caminho 10" d="M472.8,306.662c-11.123,1.53-74.555,9.18-163.063,9.18s-151.94-7.742-163.048-9.18c-2.356-28.962-4.7-70.011-4.7-118.649s2.341-89.671,4.7-118.633c11.108-1.53,74.54-9.18,163.048-9.18S461.676,67.942,472.8,69.38c2.356,28.962,4.682,70.011,4.682,118.633S475.154,277.7,472.8,306.662Z" transform="translate(-129.919 -43.217)" fill="#e9f3ff"/>
      <path id="Caminho_11" data-name="Caminho 11" d="M366.368,212.1H163.985a.765.765,0,1,1,0-1.53H366.368a.765.765,0,1,1,0,1.53Z" transform="translate(-118.667 36.473)" fill="#9ab3da"/>
      <path id="Caminho_12" data-name="Caminho 12" d="M344.76,301.96V326.3l31.716,3.657,1.867-27.142Z" transform="translate(-22.458 84.906)" fill="#404b7c"/>
      <path id="Caminho_13" data-name="Caminho 13" d="M367.357,302.52l25,6.717-3.993,23.286-22.873-2.861Z" transform="translate(-11.472 85.203)" fill="#9ab3da"/>
      <path id="Caminho_14" data-name="Caminho 14" d="M316.444,323.719l-4.284-.964.031-14.305,4.284.964Z" transform="translate(-39.735 88.346)" fill="#404b7c"/>
      <path id="Caminho_15" data-name="Caminho 15" d="M337.118,307.53l4.284.964L316.464,309.9l-4.284-.964Z" transform="translate(-39.724 87.858)" fill="#404b7c"/>
      <path id="Caminho_16" data-name="Caminho 16" d="M308.29,325.569v-19.43l37.606-3v21.572l-6.579.153-.138-15.009-24.938,1.408-.031,14.305Z" transform="translate(-41.786 85.532)" fill="#6b81be"/>
      <path id="Caminho_17" data-name="Caminho 17" d="M337.154,304.1l-4.284-.964v21.572l4.284.964Z" transform="translate(-28.759 85.532)" fill="#f68d88"/>
      <path id="Caminho_18" data-name="Caminho 18" d="M275.755,415.413l-9.715-95.148,114.013-4.575-11.138,99.723Z" transform="translate(-64.177 92.183)" fill="#6b81be"/>
      <path id="Caminho_19" data-name="Caminho 19" d="M271.8,336.98a.566.566,0,0,1,0-1.117l96.3-1.714a.627.627,0,0,1,.566.551.566.566,0,0,1-.551.566l-96.3,1.714Z" transform="translate(-61.373 101.966)" fill="#9ab3da"/>
      <path id="Caminho_20" data-name="Caminho 20" d="M302.618,332.5l4.07.933-1.5,14.275-3.978-.352Z" transform="translate(-45.538 101.091)" fill="#9ab3da"/>
      <path id="Caminho_21" data-name="Caminho 21" d="M294.135,347.356l-1.255-14.473,14.152-.383-1.408,14.856Z" transform="translate(-49.953 101.091)" fill="#404b7c"/>
      <path id="Caminho_22" data-name="Caminho 22" d="M344.418,315.69l67.869,9.578-13.081,90.145H333.28Z" transform="translate(-28.542 92.183)" fill="#f68d88"/>
      <path id="Caminho_23" data-name="Caminho 23" d="M400.12,338.49h0l-57.94-3.2a.551.551,0,0,1-.52-.581.536.536,0,0,1,.581-.52L400.1,337.4a.551.551,0,0,1,.535.581.566.566,0,0,1-.52.5Z" transform="translate(-24.101 101.986)" fill="#ecbdbb"/>
      <path id="Caminho_24" data-name="Caminho 24" d="M420.687,365.654s-10.052,1.193-10.052.9-1.759-8.384-2.723-12.76c-.352-1.622-.581-2.723-.581-2.723l12.24-1.193.6,8.415Z" transform="translate(10.702 110.302)" fill="#ecbdbb"/>
      <path id="Caminho_25" data-name="Caminho 25" d="M419.564,349.88l.6,8.415a28.134,28.134,0,0,1-12.24-4.5c-.352-1.622-.581-2.723-.581-2.723Z" transform="translate(10.707 110.302)" fill="#404b7c"/>
      <path id="Caminho_26" data-name="Caminho 26" d="M418.365,358.431s-13.372,14.076-15.376,14.366-11.169,2.218-11.169,2.218L388.21,389.78s34.776.612,52.753-3.213c-.2-9.853-2.708-21.3-7.527-28.947A28.58,28.58,0,0,1,418.365,358.431Z" transform="translate(0.569 114.404)" fill="#404b7c"/>
      <path id="Caminho_27" data-name="Caminho 27" d="M401.19,376.9a.566.566,0,0,1-.474-.291.551.551,0,0,1,.2-.75,52.262,52.262,0,0,0,17.4-16.279.536.536,0,0,1,.75-.2.551.551,0,0,1,.2.765,53.458,53.458,0,0,1-17.794,16.677.566.566,0,0,1-.275.077Z" transform="translate(7.157 115.293)" fill="#9ab3da"/>
      <path id="Caminho_28" data-name="Caminho 28" d="M401.508,367.08s-20.7-.291-15.575,25.03c0,0,35.266.092,58.139-4.223l-.291-7.742s-19,2.723-31.961,2.616C411.758,382.762,409.05,371,401.508,367.08Z" transform="translate(-1.071 119.417)" fill="#f68d88"/>
      <ellipse id="Elipse_2" data-name="Elipse 2" cx="5.875" cy="7.084" rx="5.875" ry="7.084" transform="translate(424.855 481.479)" fill="#eee"/>
      <path id="Caminho_29" data-name="Caminho 29" d="M402.66,340.95s.7,10.847,4.223,18.9a50.2,50.2,0,0,0,13.158,0,20.182,20.182,0,0,0,9.057-3.32l-.612-16.677A34.914,34.914,0,0,0,402.66,340.95Z" transform="translate(8.227 103.948)" fill="#9ab3da"/>
      <path id="Caminho_30" data-name="Caminho 30" d="M442.884,273.917s-.643,4.161-1.606,10.572c-.7,4.59-1.53,10.266-2.479,16.432-2,13.6-4.253,29.421-5.554,40.223-2.708,22.613-3.06,69.95-3.06,69.95-7.543,4.207-17.793,1.805-17.793,1.805s-11.153-63.019-14.473-92.853-6.319-95.577-6.319-95.577c.9-24.479,47.031-21.419,49.142,12.056Z" transform="translate(2.365 35.319)" fill="#6b81be"/>
      <path id="Caminho_31" data-name="Caminho 31" d="M428.882,260.918c-.7,4.59-1.53,10.266-2.479,16.432-8.338-8.736-11.23-23.47-11.414-24.479C415.969,256.695,422.242,259.281,428.882,260.918Z" transform="translate(14.761 58.89)" fill="#404b7c"/>
      <path id="Caminho_32" data-name="Caminho 32" d="M405.821,282.585c-10.021,1.346-9.822,29.436,5.508,29.589S419.055,280.8,405.821,282.585Z" transform="translate(6.259 74.6)" fill="#9ab3da"/>
      <path id="Caminho_33" data-name="Caminho 33" d="M415.179,383.99a.566.566,0,0,1-.551-.49c-5.355-49.6,5.661-126.283,5.783-126.987a.551.551,0,1,1,1.086.168c-.107.765-11.108,77.294-5.768,126.757a.535.535,0,0,1-.49.612Z" transform="translate(13.792 60.555)" fill="#9ab3da"/>
      <path id="Caminho_34" data-name="Caminho 34" d="M426.941,273.365h-.092c-.367,0-9.042-1.53-10.71-7.65-1.652-5.86-4.146-35.189-4.238-36.428a.536.536,0,0,1,.5-.6.566.566,0,0,1,.6.5c0,.306,2.57,30.462,4.207,36.214,1.27,4.59,7.176,6.258,9.18,6.7-.229-4.59-1.53-30.737-.8-41.309a.56.56,0,1,1,1.117.077c-.75,11.429.811,41.538.826,41.829a.535.535,0,0,1-.184.444.566.566,0,0,1-.413.214Z" transform="translate(13.122 46.076)" fill="#9ab3da"/>
      <path id="Caminho_35" data-name="Caminho 35" d="M394.547,245.868h-.291a.551.551,0,0,1-.474-.627.566.566,0,0,1,.627-.474,3.733,3.733,0,0,0,2.846-1.224c2.142-2.02,4.483-7.252,3.5-20.609a.566.566,0,0,1,1.117-.092c1.01,13.877-1.53,19.385-3.9,21.557a5.049,5.049,0,0,1-3.427,1.469Z" transform="translate(3.518 42.744)" fill="#9ab3da"/>
      <path id="Caminho_36" data-name="Caminho 36" d="M464.423,369.647l-10.847.321-2.6-11.352-1.025-4.483,13.877-.153.321,8.338Z" transform="translate(33.289 112.475)" fill="#ecbdbb"/>
      <path id="Caminho_37" data-name="Caminho 37" d="M464.148,362.308a38.019,38.019,0,0,1-13.173-3.7l-1.025-4.483L463.8,354Z" transform="translate(33.289 112.485)" fill="#404b7c"/>
      <path id="Caminho_38" data-name="Caminho 38" d="M455.612,362.651s8.445-4.07,15.973-.979c0,0,4.223,7.543,5.661,20.731,0,0-5.278,16.646-16.83,17.931A57.07,57.07,0,0,1,439.7,398.8s7.65-17.992,8.935-21.419S455.612,362.651,455.612,362.651Z" transform="translate(27.856 115.937)" fill="#404b7c"/>
      <path id="Caminho_39" data-name="Caminho 39" d="M456.492,384.715c-2.647,0-7.971-.321-9.608-2.739a3.3,3.3,0,0,1,0-3.412c2.769-5.936,5.875-15.131,5.906-15.223a.53.53,0,1,1,.995.367c0,.107-3.167,9.348-5.952,15.3a2.188,2.188,0,0,0,0,2.31c1.392,2.081,7.191,2.325,9.7,2.234a88.174,88.174,0,0,0,6.12-19.889.558.558,0,0,1,1.1.184,90.587,90.587,0,0,1-6.4,20.578.551.551,0,0,1-.474.321A8.288,8.288,0,0,0,456.492,384.715Z" transform="translate(31.412 117.251)" fill="#9ab3da"/>
      <ellipse id="Elipse_3" data-name="Elipse 3" cx="2.356" cy="6.135" rx="2.356" ry="6.135" transform="matrix(0.978, -0.207, 0.207, 0.978, 496.593, 484.525)" fill="#eee"/>
      <path id="Caminho_40" data-name="Caminho 40" d="M447.821,371.776s-16.478,10.144-8.782,30.507c0,0,20.2,3.06,28.029-.612s12.974-18.88,12.974-18.88a33.784,33.784,0,0,0-1.255-7.267,54.589,54.589,0,0,1-10.4,13.586S467.267,368.915,447.821,371.776Z" transform="translate(26.421 121.759)" fill="#f68d88"/>
      <path id="Caminho_41" data-name="Caminho 41" d="M444.34,344.843a36.719,36.719,0,0,1,26.53-.306l.153,17.487a36.581,36.581,0,0,1-20.211.459Z" transform="translate(30.315 106.236)" fill="#9ab3da"/>
      <path id="Caminho_42" data-name="Caminho 42" d="M482.33,414.645a38.815,38.815,0,0,1-21.649.275c-5.294-15.942-27.432-83.107-33.521-111.442-6.946-32.267-8.139-69.047-8.139-69.047,3.611-26.667,54.115-28.2,58.781,1.53,0,0,.306,100.4.612,114.564C478.658,362.381,481.427,401.915,482.33,414.645Z" transform="translate(16.897 38.316)" fill="#6b81be"/>
      <path id="Caminho_43" data-name="Caminho 43" d="M424.4,281.222a.566.566,0,0,1-.551-.459,492.519,492.519,0,0,1-5.2-53.166.566.566,0,0,1,.535-.6h0a.566.566,0,0,1,.551.535,482.731,482.731,0,0,0,5.217,53.013.566.566,0,0,1-.474.643Z" transform="translate(16.7 45.18)" fill="#9ab3da"/>
      <path id="Caminho_44" data-name="Caminho 44" d="M442.312,289.275c-10.159,1.362-9.945,29.85,5.584,29.987S455.73,287.47,442.312,289.275Z" transform="translate(25.55 78.145)" fill="#9ab3da"/>
      <path id="Caminho_45" data-name="Caminho 45" d="M462.338,404.62a.566.566,0,0,1-.551-.49c-.122-1.056-12.974-106.378-14.167-177.935a.566.566,0,0,1,.551-.566.551.551,0,0,1,.566.551c1.178,71.5,14.03,176.756,14.152,177.812a.535.535,0,0,1-.474.612Z" transform="translate(32.054 44.454)" fill="#9ab3da"/>
      <path id="Caminho_46" data-name="Caminho 46" d="M450.287,260.93c-3.825,0-9.945-4.59-10.71-8.048-1.209-5.278-1.867-24.77-1.9-25.6a.536.536,0,0,1,.535-.566h0a.551.551,0,0,1,.551.551c0,.2.688,20.211,1.867,25.382.689,2.953,6.365,7.191,9.654,7.191a.551.551,0,1,1,0,1.1Z" transform="translate(26.786 45.032)" fill="#9ab3da"/>
      <path id="Caminho_47" data-name="Caminho 47" d="M422.053,208.942c-5.37,3.259-9.929,4.972-14.4,4.926-6.7,0-13.219-3.993-22.077-12.576-14.779-14.259-29.635-42.5-29.635-42.5s-3.718-.8-4.59-3.412-2.815-11.857-2.815-11.857-9.042-14.473-7.038-16.279,7.114,5.187,7.65,5.952c-.719-1.346-12.01-22.261-5.783-17.212s14.412,14.978,15.621,17.839,4.85,17.793,4.85,17.793l40.712,34.394.138.122,6.931-4.223Z" transform="translate(-24.339 -14.071)" fill="#ecbdbb"/>
      <path id="Caminho_48" data-name="Caminho 48" d="M399.068,185.834c-4.773,2.892-8.9,4.59-12.9,4.881a79.986,79.986,0,0,1-.275-30.293l2.677-1.622Z" transform="translate(-1.354 9.037)" fill="#404b7c"/>
      <path id="Caminho_49" data-name="Caminho 49" d="M351.489,133.285a.536.536,0,0,1-.428-.2l-4.223-5.018a.566.566,0,0,1,.857-.719l4.223,5.018a.566.566,0,0,1-.076.8A.582.582,0,0,1,351.489,133.285Z" transform="translate(-21.4 -7.705)" fill="#404b7c"/>
      <path id="Caminho_50" data-name="Caminho 50" d="M427.979,138c-8.568,0-44.369,29.85-44.369,29.85s6.12,22.307,16.57,33.919c0,0,22.016-15.085,35.725-33.323S438.689,138,427.979,138Z" transform="translate(-1.869 -1.986)" fill="#6bb376"/>
      <path id="Caminho_51" data-name="Caminho 51" d="M403.783,186.634a.551.551,0,0,1-.428-.184c-10.067-11.413-15.3-30.186-15.3-30.37a.566.566,0,0,1,.4-.673.535.535,0,0,1,.673.382c0,.184,5.217,18.7,15.116,29.926a.551.551,0,0,1,0,.78.581.581,0,0,1-.459.138Z" transform="translate(0.479 7.227)" fill="#38683d"/>
      <path id="Caminho_52" data-name="Caminho 52" d="M459.057,135.25a174.538,174.538,0,0,0-34.072,4.207s-25.168,47.781-35.725,124.967c0,0,11.459,15.973,47.643,21.71s62.407-4.223,62.407-4.223,6.028-97.382-1.209-125.12C498.1,156.807,479.252,137.361,459.057,135.25Z" transform="translate(1.125 -3.444)" fill="#6eb253"/>
      <path id="Caminho_53" data-name="Caminho 53" d="M398.963,193.638h-.153a.551.551,0,0,1-.382-.688,359.766,359.766,0,0,1,19.339-52.493.561.561,0,0,1,1.01.49A362.6,362.6,0,0,0,399.5,193.256.566.566,0,0,1,398.963,193.638Z" transform="translate(5.972 -0.848)" fill="#38683d"/>
      <path id="Caminho_54" data-name="Caminho 54" d="M461.746,236.788c-44.537,0-69.368-19.446-69.674-19.691a.551.551,0,1,1,.688-.857c.367.291,37.362,29.222,102.247,15.957a.551.551,0,0,1,.658.444.536.536,0,0,1-.428.643,166.38,166.38,0,0,1-33.491,3.5Z" transform="translate(2.49 39.401)" fill="#38683d"/>
      <path id="Caminho_55" data-name="Caminho 55" d="M434.65,177.079h-.444l-4.789-.841a2.463,2.463,0,0,1-2.019-2.769c1.53-11.352,5.6-31.318,5.63-31.517a.566.566,0,0,1,.26-.367.6.6,0,0,1,.428,0l7.849,2.111a.551.551,0,0,1,.4.658c-1.882,8.369-4.192,25.6-4.865,30.676a2.479,2.479,0,0,1-2.448,2.157Zm-.643-34.378c-.673,3.381-4.1,20.639-5.523,30.875a1.392,1.392,0,0,0,1.132,1.53l4.835.8a1.438,1.438,0,0,0,1.056-.245,1.393,1.393,0,0,0,.535-.933c.658-4.988,2.907-21.664,4.758-30.247Z" transform="translate(21.324 -0.108)" fill="#38683d"/>
      <path id="Caminho_56" data-name="Caminho 56" d="M440.734,131.391a26.177,26.177,0,0,0-9.807,1.056,2.142,2.142,0,0,0-1.53,1.974l-.6,10.312a14.581,14.581,0,0,0,10.847,6.12,14.764,14.764,0,0,0,11.092-3.764l2.173-9.838a2.157,2.157,0,0,0-.964-2.31A30.444,30.444,0,0,0,440.734,131.391Z" transform="translate(22.08 -5.536)" fill="#6b81be"/>
      <path id="Caminho_57" data-name="Caminho 57" d="M443.779,125.84v4.513l-.153,10.6-.689.122a19.323,19.323,0,0,1-10.067-1.163l1.392-5.584,1.958-7.8Z" transform="translate(24.237 -8.431)" fill="#ecbdbb"/>
      <path id="Caminho_58" data-name="Caminho 58" d="M443.3,125.84v4.513a18.482,18.482,0,0,1-9.516,3.978l1.958-7.8Z" transform="translate(24.719 -8.431)" fill="#404b7c"/>
      <path id="Caminho_59" data-name="Caminho 59" d="M441.556,137.87a20.454,20.454,0,0,1-7.42-1.423l-.887-.367a18.358,18.358,0,0,1-3.06-1.714.566.566,0,0,1-.122-.78.581.581,0,0,1,.78-.122,15.3,15.3,0,0,0,2.892,1.53l.857.367a19.078,19.078,0,0,0,9.792,1.117l.658-.107a19.05,19.05,0,0,0,5.049-1.805.558.558,0,1,1,.5.994,19.886,19.886,0,0,1-5.34,1.9l-.688.122a20.163,20.163,0,0,1-3.014.291Z" transform="translate(22.696 -4.442)" fill="#9ab3da"/>
      <path id="Caminho_60" data-name="Caminho 60" d="M497.355,210.1s-4.59,5.248-9.945,10.71c-5.783,5.814-12.484,11.811-15.391,11.674-47.322-2.662-86.764-22.827-86.764-22.827s-4.9.673-7.91-2.494-7.543-12.439-7.543-12.439a58.633,58.633,0,0,1-7.986-4.146c-2.111-1.53-2.708-3.381-2.035-4.513s2.892,0,3.06,0c-6.242-4.881-4.284-7.65-2.785-7.527a12.36,12.36,0,0,1,3.779,1.53c-.9-2.173-.688-4.666,1.209-4.59a9.394,9.394,0,0,1,4.284,2.111s.23-1.53,2.417-.994,10.1,7.237,11.23,8.537,7.65,16.049,7.65,16.049l72.964,2.111,6.5-11.077,2.081-3.549Z" transform="translate(-15.157 17.876)" fill="#ecbdbb"/>
      <path id="Caminho_61" data-name="Caminho 61" d="M375.88,185.846a.52.52,0,0,1-.428-.2c-.383-.428-5.8-4.773-9.18-7.4a.556.556,0,1,1,.689-.872c1.53,1.163,8.813,7.007,9.287,7.573a.551.551,0,0,1-.076.78.521.521,0,0,1-.291.122Z" transform="translate(-11.168 18.817)" fill="#404b7c"/>
      <path id="Caminho_62" data-name="Caminho 62" d="M374.194,187.2a.536.536,0,0,1-.352-.138,109.45,109.45,0,0,0-10.878-7.237.551.551,0,0,1-.2-.75.566.566,0,0,1,.765-.2,105.686,105.686,0,0,1,11.016,7.329.551.551,0,0,1,.076.78A.535.535,0,0,1,374.194,187.2Z" transform="translate(-12.955 19.637)" fill="#404b7c"/>
      <path id="Caminho_63" data-name="Caminho 63" d="M370.8,188.123a.535.535,0,0,1-.321-.107c-1.53-1.025-8.216-4.5-8.277-4.59a.566.566,0,0,1-.245-.75.551.551,0,0,1,.75-.245c.275.153,6.839,3.55,8.4,4.59a.566.566,0,0,1,.153.78A.581.581,0,0,1,370.8,188.123Z" transform="translate(-13.373 21.527)" fill="#404b7c"/>
      <path id="Caminho_64" data-name="Caminho 64" d="M458.714,205.5s-4.59,5.248-9.945,10.71c-11.505-6.762-16-22.536-17.319-28.5l2.081-3.55Z" transform="translate(23.484 22.477)" fill="#404b7c"/>
      <path id="Caminho_65" data-name="Caminho 65" d="M431.13,203.894s25.183-60.143,44.782-54.421c0,0,29.544,22.108-12.867,80.8a65.406,65.406,0,0,1-31.915-26.377Z" transform="translate(23.315 3.89)" fill="#6bb376"/>
      <path id="Caminho_66" data-name="Caminho 66" d="M463.241,230.94h-.168a66.676,66.676,0,0,1-32.221-26.621.535.535,0,0,1,0-.5c.872-2.1,21.71-51.407,40.483-54.941a.552.552,0,1,1,.2,1.086c-17.5,3.3-37.867,50.076-39.55,54.023a65.788,65.788,0,0,0,31.074,25.765A170.42,170.42,0,0,0,474.3,212.076a.581.581,0,0,1,.765-.229.551.551,0,0,1,.214.75,172.134,172.134,0,0,1-11.567,18.13A.535.535,0,0,1,463.241,230.94Z" transform="translate(23.134 3.771)" fill="#51924b"/>
      <path id="Caminho_67" data-name="Caminho 67" d="M464.2,205.635a.536.536,0,0,1-.26,0c-19.813-10.052-28.182-25.4-28.274-25.55a.551.551,0,0,1,.229-.75.536.536,0,0,1,.75.23c.092.153,8.308,15.192,27.8,25.091a.551.551,0,0,1,.245.734A.535.535,0,0,1,464.2,205.635Z" transform="translate(25.682 19.881)" fill="#38683d"/>
      <path id="Caminho_68" data-name="Caminho 68" d="M440.626,106.152c-11.505,1.04-14.565,27.539-12.959,31.655s17.885,2.111,20.5.811S454,128.061,454.9,121.987,453.937,104.943,440.626,106.152Z" transform="translate(21.269 -18.913)" fill="#ecbdbb"/>
      <path id="Caminho_69" data-name="Caminho 69" d="M453.68,137.726l.076-3.779s-3.687-3.534-2.555-7.757c0,0-15.223,6.258-25.55-2.035a14.059,14.059,0,0,1,4.376-3.687s-9.012-8.155-7.16-19.89c.673-4.3,11.6,1.209,14.994,6.564,0,0-2.892-11.475,2.861-17.487,1.668-1.744,8.751,7.451,10.633,16.049,0,0,1.408-6.747,4.3-9.18.979-.826,4.59,5.722,4.666,15.682,0,0,7.543,4.59,10.174,12.24s-1.882,18.008-17.182,18.757Z" transform="translate(18.803 -27.722)" fill="#404b7c"/>
      <path id="Caminho_70" data-name="Caminho 70" d="M443.413,123.148s4.452-8.522,9.654-5.584-1.53,13.112-11.077,11.765Z" transform="translate(29.07 -13.143)" fill="#ecbdbb"/>
      <path id="Caminho_71" data-name="Caminho 71" d="M444.166,126.6h0a.551.551,0,0,1-.474-.627s1.071-7.176,7.068-7.267h0a.551.551,0,0,1,.551.551.536.536,0,0,1-.535.566c-5.049,0-5.982,6.242-5.982,6.3A.566.566,0,0,1,444.166,126.6Z" transform="translate(29.969 -12.209)" fill="#404b7c"/>
      <path id="Caminho_72" data-name="Caminho 72" d="M447.269,124.959a.566.566,0,0,1-.551-.474,11.459,11.459,0,0,0-1.362-3.84.554.554,0,1,1,.9-.643,12.241,12.241,0,0,1,1.53,4.314.551.551,0,0,1-.459.627Z" transform="translate(30.798 -11.65)" fill="#404b7c"/>
      <path id="Caminho_73" data-name="Caminho 73" d="M433.387,124.794h-.107a3.809,3.809,0,0,1-2.907-2.769.551.551,0,0,1,.291-.581,13.464,13.464,0,0,0,3.687-4.07.552.552,0,1,1,.948.566,15.3,15.3,0,0,1-3.733,4.253,2.922,2.922,0,0,0,1.943,1.53.554.554,0,0,1-.122,1.1Z" transform="translate(22.909 -13.06)" fill="#404b7c"/>
      <path id="Caminho_74" data-name="Caminho 74" d="M436.157,125.831a10.082,10.082,0,0,1-5.324-1.392.566.566,0,0,1-.153-.765.581.581,0,0,1,.78-.153,9.777,9.777,0,0,0,6.7,1.01.554.554,0,0,1,.214,1.086,11.676,11.676,0,0,1-2.218.214Z" transform="translate(23.03 -9.707)" fill="#404b7c"/>
      <path id="Caminho_75" data-name="Caminho 75" d="M436.22,116.411s.75-2.127,1.377-2.387.444.78.444.78a4.024,4.024,0,0,1,3.856,4.728S440.642,116.671,436.22,116.411Z" transform="translate(26.012 -14.715)" fill="#404b7c"/>
      <path id="Caminho_76" data-name="Caminho 76" d="M434.588,115.735a8.047,8.047,0,0,0,.49-2.739c-.229-.6-.658.367-.658.367s-2.631-2.509-4.59,1.423C429.83,114.755,432.018,113.226,434.588,115.735Z" transform="translate(22.626 -15.461)" fill="#404b7c"/>
      <ellipse id="Elipse_4" data-name="Elipse 4" cx="2.142" cy="1.714" rx="2.142" ry="1.714" transform="translate(460.224 108.065) rotate(-74.01)" fill="#404b7c"/>
      <circle id="Elipse_5" data-name="Elipse 5" cx="0.597" cy="0.597" r="0.597" transform="translate(461.238 105.185)" fill="#fff"/>
      <ellipse id="Elipse_6" data-name="Elipse 6" cx="2.142" cy="1.714" rx="2.142" ry="1.714" transform="translate(451.615 105.239) rotate(-74.01)" fill="#404b7c"/>
      <circle id="Elipse_7" data-name="Elipse 7" cx="0.597" cy="0.597" r="0.597" transform="translate(452.639 102.37)" fill="#fff"/>
    </g>
    <g id="DOTED_LINE" data-name="DOTED LINE" transform="translate(294.011 84.699)">
      <path id="Caminho_77" data-name="Caminho 77" d="M200.551,105.73h0a5.337,5.337,0,0,1-.7-.428.673.673,0,0,1-.122-.535c0-.214.122-.352.229-.291.413.291.658.428.658.428a.941.941,0,0,1,.138.5C200.719,105.638,200.627,105.73,200.551,105.73Z" transform="translate(-188.112 -29.339)" fill="#404b7c"/>
      <path id="Caminho_78" data-name="Caminho 78" d="M310.09,165.135c-.092,0-.168-.184-.168-.413s.076-.428.168-.428H311.5c.092,0,.184.184.184.413s0,.444-.168.444H310.09Zm-1.408,0h0a6.374,6.374,0,0,1-1.423-.107c-.092,0-.168-.214-.168-.444s.092-.444.184-.413c.474,0,.949.092,1.408.122.092,0,.184.2.168.428s-.076.382-.168.382Zm4.223-.184c-.092,0-.168-.168-.168-.4s0-.444.168-.459a7.385,7.385,0,0,0,1.392-.245c.107,0,.184.153.2.382s0,.444-.168.459c-.459.107-.933.184-1.408.26Zm-7.038-.122h0c-.474-.077-.949-.168-1.408-.275-.107,0-.168-.229-.168-.474s.107-.4.2-.382c.459.107.933.2,1.392.275.107,0,.184.23.168.459s-.092.367-.184.367Zm9.853-.49c-.092,0-.168-.153-.168-.367s0-.444.153-.474c.459-.138.933-.291,1.392-.459.092,0,.184.122.2.352s0,.459-.153.49c-.459.168-.933.321-1.392.459Zm-12.668-.138h0c-.474-.122-.933-.26-1.408-.428-.092,0-.168-.245-.153-.474s.107-.4.2-.367c.474.153.933.306,1.392.428.107,0,.168.245.153.474s-.092.337-.184.337Zm15.453-.872c-.076,0-.153-.153-.168-.352s0-.459.138-.5c.474-.2.933-.428,1.377-.658.107,0,.2.092.214.321s0,.459-.138.5c-.459.245-.918.459-1.377.673Zm-18.252,0h0c-.459-.168-.918-.367-1.392-.566-.092,0-.153-.26-.138-.49s.107-.382.2-.352c.474.2.933.4,1.392.566a.566.566,0,0,1,.153.49c-.046.107-.122.2-.214.2Zm-2.769-1.209h0l-1.377-.7c-.092,0-.153-.275-.138-.5s.122-.382.214-.321q.689.367,1.377.688c.092,0,.153.275.138.5a.236.236,0,0,1-.2.245Zm23.791-.2c-.077,0-.153-.122-.184-.321a.658.658,0,0,1,.138-.52c.444-.275.9-.581,1.346-.887.107,0,.2,0,.229.291a.627.627,0,0,1-.122.52c-.459.321-.918.627-1.362.9Zm-26.545-1.255h0c-.459-.26-.918-.52-1.377-.811a.612.612,0,0,1-.122-.52c0-.229.122-.367.214-.306.459.291.918.551,1.362.811a.658.658,0,0,1,.138.52c-.061.092-.138.214-.214.214Zm29.253-.658c-.076,0-.153-.122-.168-.291a.719.719,0,0,1,.107-.551c.444-.352.887-.719,1.331-1.117.092-.092.184,0,.229.245a.749.749,0,0,1-.107.551c-.444.4-.9.78-1.346,1.132Zm-31.991-1.025h0c-.459-.291-.9-.612-1.362-.918a.673.673,0,0,1-.122-.535c0-.229.122-.352.214-.291.459.321.9.627,1.362.918a.658.658,0,0,1,.122.535c-.061.077-.138.2-.214.2Zm34.623-1.362a.526.526,0,0,1-.153-.26.7.7,0,0,1,.092-.566c.428-.428.872-.887,1.285-1.362.092-.092.2,0,.23.214a.7.7,0,0,1-.076.551c-.428.474-.872.949-1.3,1.392Zm-37.331-.535h0l-1.346-1.025a.688.688,0,0,1-.107-.535c0-.229.122-.352.214-.275l1.346,1.025a.627.627,0,0,1,.122.52c-.092.076-.153.26-.23.26Zm-2.693-2.1h0l-1.346-1.132a.689.689,0,0,1-.107-.535c0-.23.138-.337.229-.26l1.331,1.117a.688.688,0,0,1,.107.535.289.289,0,0,1-.214.184Zm42.594-.229a.434.434,0,0,1-.168-.229.965.965,0,0,1,0-.581c.428-.5.841-1.04,1.239-1.53.092-.122.2,0,.245.153a.872.872,0,0,1,0,.581c-.413.566-.841,1.1-1.255,1.622-.015-.122-.031-.107-.061-.107Zm-45.256-2.05h0l-1.316-1.193a.765.765,0,0,1-.107-.566c0-.214.138-.321.229-.229.444.4.887.811,1.331,1.193a.658.658,0,0,1,.092.551c-.077,0-.153.153-.229.153Zm47.7-1.27s-.107,0-.138-.214a.811.811,0,0,1,0-.581c.4-.581.8-1.193,1.193-1.821.077-.138.184,0,.245.122a.826.826,0,0,1,0,.581c-.383.627-.78,1.255-1.193,1.836a.092.092,0,0,1-.107-.015ZM281.3,150.264h0l-1.3-1.285a.765.765,0,0,1-.107-.566c0-.214.153-.306.229-.229.444.444.872.872,1.316,1.285a.7.7,0,0,1,.092.566c-.092.031-.153.138-.229.138Zm52.692-2.6s-.122,0-.153-.168a.857.857,0,0,1,0-.6c.367-.658.75-1.346,1.117-2.035.076-.153.184-.122.245,0a.873.873,0,0,1,0,.6c-.367.7-.75,1.392-1.132,2.065a.13.13,0,0,1-.077.046Zm-55.293,0c-.444-.444-.872-.887-1.3-1.362a.689.689,0,0,1-.092-.551c0-.229.138-.321.229-.229.428.474.872.918,1.3,1.362a.8.8,0,0,1,.092.566c-.092.015-.153.122-.229.122Zm-2.616-2.846-1.285-1.438a.8.8,0,0,1-.092-.566c0-.214.153-.306.245-.2.428.49.841.964,1.27,1.423a.734.734,0,0,1,.092.566C276.247,144.71,276.186,144.817,276.079,144.817Zm60.082-1.423s-.092,0-.122-.153a.8.8,0,0,1,0-.6l1.056-2.234c0-.168.184-.153.245,0a.933.933,0,0,1,0,.612c-.337.765-.7,1.53-1.056,2.249,0,.015-.046.107-.092.107Zm-62.621-1.53h-.077c-.428-.5-.857-.994-1.27-1.53a.856.856,0,0,1-.092-.581c0-.2.153-.291.245-.184l1.27,1.53a.857.857,0,0,1,.077.581c0,.153-.061.229-.122.229ZM271,138.8h0l-1.255-1.53a.78.78,0,0,1-.076-.581c0-.2.153-.291.245-.184.413.535.826,1.056,1.255,1.53a.857.857,0,0,1,.077.581c-.077.184-.138.275-.214.275Zm67.242-.107s-.092,0-.122-.122a1.041,1.041,0,0,1,0-.612c.153-.337.291-.688.444-1.04s.367-.9.535-1.377c0-.168.184-.184.245,0a.887.887,0,0,1,0,.6l-.551,1.392c-.138.352-.291.7-.444,1.056.015.107-.031.2-.077.2Zm-69.736-3.06h-.092l-1.209-1.53a.872.872,0,0,1,0-.581c0-.2.153-.275.229-.168l1.239,1.622a.78.78,0,0,1,0,.581c-.015.076-.076.184-.138.184Zm71.648-1.943a.153.153,0,0,1-.107-.092.8.8,0,0,1,0-.6c.291-.872.581-1.759.857-2.662,0-.184.168-.214.245,0a.857.857,0,0,1,0,.6c-.291.9-.581,1.805-.887,2.677.076.138-.015.184-.077.184Zm-74.127-1.316a.138.138,0,0,1-.092,0l-1.224-1.683a.719.719,0,0,1,0-.581c0-.2.153-.275.229-.153l1.239,1.668a.9.9,0,0,1,0,.581c0,.2-.061.275-.122.275Zm-2.448-3.366a.107.107,0,0,1-.092,0l-1.224-1.714a.934.934,0,0,1,0-.6c0-.2.168-.26.245-.138l1.224,1.714a.9.9,0,0,1,0,.581c0,.184-.061.26-.122.26Zm-61.061-.643c-.444-.382-.887-.811-1.331-1.27a.75.75,0,0,1-.092-.551c0-.214.153-.321.245-.23a16.68,16.68,0,0,0,1.3,1.255.719.719,0,0,1,.107.551c-.107.245-.107.352-.2.352Zm139.334-.107h-.107a.857.857,0,0,1,0-.6c.26-.918.5-1.882.75-2.846,0-.2.153-.275.245-.153a.9.9,0,0,1,0,.581c-.245.979-.5,1.958-.765,2.892a.25.25,0,0,1-.107.229Zm-141.919-2.616a.138.138,0,0,1-.092,0c-.428-.52-.841-1.086-1.239-1.668a.948.948,0,0,1,0-.6c0-.2.168-.26.245-.138.4.581.8,1.132,1.224,1.652a.826.826,0,0,1,0,.566c.015.214-.046.291-.107.291Zm61.2-.107a.107.107,0,0,1-.092,0l-1.209-1.775a.811.811,0,0,1,0-.581c0-.2.153-.26.245-.138l1.193,1.775a.811.811,0,0,1,0,.581c.031.168-.031.245-.092.245Zm82.144-3.06H343.2a.811.811,0,0,1,0-.581c.214-.979.428-2,.627-3.06,0-.214.153-.306.245-.2a.8.8,0,0,1,.077.566c-.2,1.025-.413,2.05-.643,3.06a.637.637,0,0,0-.107.275ZM197.5,122.158a.153.153,0,0,1-.107,0c-.382-.688-.765-1.408-1.117-2.142a.888.888,0,0,1,0-.6c0-.184.184-.2.245,0,.352.719.719,1.423,1.1,2.081a.979.979,0,0,1,0,.6.084.084,0,0,1-.076.122Zm61.2-.138a.107.107,0,0,1-.092,0l-1.193-1.821a.857.857,0,0,1,0-.6c0-.2.153-.245.245-.122l1.178,1.821a.811.811,0,0,1,0,.581c.061.122,0,.2-.061.2Zm-2.371-3.657a.107.107,0,0,1-.092,0l-1.193-1.867a.9.9,0,0,1,0-.581c0-.2.168-.26.245-.122.4.627.78,1.255,1.178,1.867a.9.9,0,0,1,0,.581c.046.107,0,.184-.061.184Zm-60.984-.673s-.092,0-.122-.138c-.337-.841-.643-1.729-.918-2.632a.872.872,0,0,1,0-.6c0-.138.2-.107.245.092.275.872.581,1.729.9,2.555a.933.933,0,0,1,0,.612c.061.138.015.168-.031.168Zm149.11-1.346h0a.719.719,0,0,1-.092-.566c.168-1.025.352-2.081.5-3.136,0-.214.138-.337.229-.26a.749.749,0,0,1,.107.551c-.168,1.071-.337,2.142-.52,3.182-.015.184-.076.291-.153.291Zm-90.405-1.668a.107.107,0,0,1-.092,0c-.4-.627-.78-1.27-1.178-1.912a.81.81,0,0,1,0-.581c0-.2.168-.245.245-.107.4.627.78,1.27,1.163,1.9a.857.857,0,0,1,0,.6C254.155,114.616,254.109,114.677,254.048,114.677Zm-60.3-2.356a.375.375,0,0,1-.153-.214c-.245-1.01-.459-2.05-.627-3.06a.689.689,0,0,1,.092-.551c.092-.092.2,0,.229.23.168,1.025.383,2.035.612,3.06a.78.78,0,0,1,0,.581.08.08,0,1,1-.153-.046Zm57.97-1.53a.121.121,0,0,1-.107-.076l-.245-.4-.918-1.53a.918.918,0,0,1,0-.581c0-.2.168-.245.245-.122l.933,1.53.229.4a.826.826,0,0,1,0,.581c-.031.184-.092.245-.138.245Zm93.787-.8h0a.673.673,0,0,1-.122-.535c.153-1.056.275-2.142.413-3.228,0-.229.122-.367.214-.306a.673.673,0,0,1,.122.535c-.122,1.1-.26,2.2-.413,3.259-.061.2-.138.321-.214.321Zm-96.128-3.06-.092-.076c-.4-.627-.78-1.255-1.178-1.867a.856.856,0,0,1,0-.6c0-.184.153-.245.245-.122l1.178,1.882a.826.826,0,0,1,0,.581c-.031.2-.092.275-.153.275Zm-56.7-.964c-.077,0-.153-.122-.168-.321-.122-1.086-.214-2.234-.275-3.381,0-.229,0-.444.153-.474s.184.138.2.367a32.238,32.238,0,0,0,.26,3.274.612.612,0,0,1-.122.52Zm153.593-2.463h0c-.092,0-.153-.275-.122-.5.107-1.086.214-2.188.306-3.3,0-.229.107-.382.2-.337a.559.559,0,0,1,.138.5c-.092,1.117-.2,2.249-.306,3.335C346.457,103.37,346.35,103.508,346.274,103.508Zm-99.264-.214a.107.107,0,0,1-.092,0l-1.193-1.821a.811.811,0,0,1,0-.581c0-.2.168-.26.245-.138.4.6.8,1.193,1.193,1.821a.811.811,0,0,1,0,.581C247.132,103.217,247.086,103.294,247.01,103.294Zm-2.4-3.58h-.092c-.4-.6-.8-1.178-1.209-1.744a.9.9,0,0,1,0-.581c0-.214.168-.275.245-.153.4.566.811,1.147,1.209,1.744a.734.734,0,0,1,0,.581c-.015.076-.077.153-.138.153ZM192.3,99.347c-.092,0-.168-.2-.168-.428V95.476c0-.23.092-.4.184-.382s.168.245.168.474v3.351c0,.229-.076.428-.184.428Zm154.526-2.509h0c-.107,0-.168-.26-.153-.49.077-1.132.153-2.249.214-3.351,0-.229.107-.413.2-.367a.532.532,0,0,1,.153.474c0,1.117-.138,2.249-.214,3.381-.031.2-.107.352-.184.352Zm-104.649-.581h0l-1.224-1.668a.78.78,0,0,1-.077-.581c0-.2.153-.275.245-.153l1.224,1.668a.734.734,0,0,1,0,.581c-.031.076-.092.153-.153.153Zm-2.463-3.3h-.077c-.413-.551-.841-1.071-1.255-1.53a.872.872,0,0,1,0-.581c0-.2.153-.275.23-.168l1.255,1.53a.872.872,0,0,1,0,.581c-.015.092-.076.168-.138.168Zm-47.092-.337h0a.612.612,0,0,1-.122-.52c.122-1.1.291-2.188.5-3.244,0-.214.138-.306.229-.214a.811.811,0,0,1,.092.566c-.2,1.01-.367,2.065-.49,3.06-.046.229-.122.352-.2.352Zm154.526-2.509h0c-.092,0-.168-.23-.153-.474,0-1.132.076-2.264.122-3.366,0-.229.092-.413.184-.4s.168.229.168.459c0,1.117-.077,2.249-.122,3.4.031.214-.046.382-.138.382Zm-109.974-.291a.076.076,0,0,1-.076,0l-1.27-1.53a.735.735,0,0,1,0-.566c0-.214.138-.291.23-.2l1.27,1.53a.75.75,0,0,1,.076.566c-.046.122-.107.2-.168.2Zm-2.4-2.968h0c-.428-.49-.857-.949-1.285-1.408a.811.811,0,0,1-.092-.566c0-.214.153-.306.245-.214q.643.688,1.285,1.423a.734.734,0,0,1,.077.566C234.77,86.755,234.77,86.847,234.77,86.847Zm-40.881-.352H193.8a.857.857,0,0,1,0-.6,28.058,28.058,0,0,1,.887-2.708c0-.184.168-.2.245,0a.888.888,0,0,1,0,.6c-.321.841-.612,1.714-.857,2.616-.138.015-.2.092-.26.092Zm38.249-2.433h-.076c-.428-.459-.872-.887-1.3-1.316a.689.689,0,0,1-.092-.551c0-.229.138-.321.229-.245l1.3,1.316a.734.734,0,0,1,.092.566c-.046.138-.107.23-.168.23Zm115.283-.734h0c-.092,0-.168-.214-.168-.444V79.5c0-.229,0-.428.168-.428h0c.107,0,.184.2.184.444v3.4c-.015.229-.092.413-.2.413Zm-117.9-1.836-1.316-1.209a.719.719,0,0,1-.107-.551c0-.214.138-.321.229-.245l1.316,1.209a.719.719,0,0,1,.107.551c-.107.138-.168.245-.245.245Zm-33.812,0s-.092,0-.138-.153a.888.888,0,0,1,0-.6,19.644,19.644,0,0,1,1.132-2.1c.076-.138.184,0,.245.107a.963.963,0,0,1,0,.6,21.53,21.53,0,0,0-1.1,2.035.515.515,0,0,1-.153.061Zm31.165-2.31h0c-.444-.382-.887-.75-1.331-1.086a.689.689,0,0,1-.122-.535c0-.229.138-.352.23-.275L227,78.371a.689.689,0,0,1,.107.535c-.107.122-.168.23-.245.23Zm-28.84-1.53a.538.538,0,0,1-.168-.229.811.811,0,0,1,0-.581c.413-.535.841-1.056,1.27-1.53.092-.092.2,0,.245.229a.75.75,0,0,1-.092.551,17.551,17.551,0,0,0-1.255,1.53Zm26.147-.566h0c-.459-.337-.9-.658-1.346-.949a.658.658,0,0,1-.122-.535c0-.214.122-.352.214-.291l1.362.949a.673.673,0,0,1,.107.535c-.076.122-.153.245-.229.245Zm123.284-.5c-.092,0-.168-.184-.168-.413v-3.4c0-.229.077-.428.184-.444s.168.184.184.413v3.412c0,.229,0,.428-.184.428ZM221.459,75.2h0c-.459-.291-.918-.551-1.362-.811-.107,0-.168-.275-.138-.5s.122-.367.214-.321l1.377.811c.092,0,.153.291.122.5S221.536,75.2,221.459,75.2Zm-20.869-.382a.425.425,0,0,1-.168-.275.719.719,0,0,1,.107-.551,12.243,12.243,0,0,1,1.346-1.04c.092,0,.2,0,.229.291s0,.459-.122.52c-.459.321-.9.658-1.331,1.025C200.621,74.821,200.606,74.821,200.591,74.821Zm18.115-1.132h0l-1.392-.643c-.092,0-.153-.26-.138-.49s.107-.382.2-.337c.459.184.933.4,1.392.627.107,0,.168.275.138.5S218.782,73.689,218.705,73.689Zm-15.407-.78c-.076,0-.153-.138-.168-.337a.581.581,0,0,1,.122-.5c.459-.229.933-.459,1.408-.643.092,0,.184.122.2.352s0,.459-.153.49a13.89,13.89,0,0,0-1.377.643Zm12.622-.444h0c-.474-.168-.933-.306-1.392-.444-.107,0-.168-.229-.168-.474s.107-.4.2-.367c.459.122.933.275,1.408.444.092,0,.168.245.153.49s-.107.4-.2.4Zm-9.838-.658c-.092,0-.168-.153-.184-.367s0-.444.168-.474a14.377,14.377,0,0,1,1.408-.306c.092,0,.184.168.184.4s0,.444-.168.459a5.649,5.649,0,0,0-1.392.291Zm7.038-.122h0c-.459-.092-.933-.168-1.392-.229-.107,0-.184-.214-.168-.444s.077-.428.184-.413l1.408.229c.107,0,.168.229.168.474s-.107.428-.2.428Zm-4.223-.306c-.092,0-.184-.184-.184-.428s.076-.428.168-.428h1.423c.107,0,.184.2.184.428s-.092.413-.184.428Zm138.446-1.668c-.092,0-.168-.168-.168-.4,0-1.178-.077-2.295-.107-3.366,0-.245,0-.444.153-.474s.184.153.2.4c0,1.071.076,2.2.107,3.4,0,.229-.076.428-.168.444Zm-.245-6.762c-.092,0-.168-.153-.184-.367,0-1.239-.122-2.371-.184-3.366,0-.229,0-.444.153-.474s.184.122.2.352c0,1.01.122,2.142.184,3.381,0,.229,0,.444-.153.474Z" transform="translate(-192.13 -53.57)" fill="#404b7c"/>
      <path id="Caminho_79" data-name="Caminho 79" d="M293.249,57.869c-.076,0-.153-.138-.168-.352a7.847,7.847,0,0,0-.138-1.637.657.657,0,0,1,.138-.52c.092,0,.184.092.214.321s0,.6.138,1.683c0,.245,0,.459-.153.5Z" transform="translate(-138.707 -55.36)" fill="#404b7c"/>
    </g>
    <g id="BUBBLE_CHAT_2" data-name="BUBBLE CHAT 2" transform="translate(499.73)">
      <path id="Caminho_81" data-name="Caminho 81" d="M412.283,14.167V45.409a14.167,14.167,0,0,1-14.152,14.167h-5.569V71.051a3.06,3.06,0,0,1-5.156,2.142L373.8,59.577H340.757A14.152,14.152,0,0,1,326.59,45.409V14.167A14.152,14.152,0,0,1,340.757,0h57.374A14.167,14.167,0,0,1,412.283,14.167Z" transform="translate(-326.59 0)" fill="#e9f3ff"/>
      <rect id="Ret창ngulo_23" data-name="Ret창ngulo 23" width="56.15" height="7.114" rx="2.32" transform="translate(70.929 23.669) rotate(180)" fill="#9ab3da"/>
      <rect id="Ret창ngulo_24" data-name="Ret창ngulo 24" width="56.15" height="7.114" rx="2.32" transform="translate(70.929 40.1) rotate(180)" fill="#9ab3da"/>
    </g>
    <g id="LAMP_1" data-name="LAMP 1" transform="translate(618.235 54.972)">
      <path id="Caminho_82" data-name="Caminho 82" d="M3.611.077H6.564A3.626,3.626,0,0,1,10.2,3.641V6.227A3.626,3.626,0,0,1,6.579,9.853H3.626A3.626,3.626,0,0,1,0,6.227V3.641A3.641,3.641,0,0,1,3.641,0Z" transform="translate(7.759 62.045) rotate(26.15)" fill="#e9f3ff"/>
      <path id="Caminho_83" data-name="Caminho 83" d="M0,0H21.97V15.422a3.626,3.626,0,0,1-3.626,3.626H3.641A3.626,3.626,0,0,1,.015,15.422V0Z" transform="translate(8.707 46.725) rotate(26.15)" fill="#9ab3da"/>
      <path id="Caminho_84" data-name="Caminho 84" d="M407.706,71.677l22.093,4.9a1.559,1.559,0,1,0,.673-3.045l-22.093-4.9a1.567,1.567,0,0,0-.673,3.06" transform="translate(-402.758 -18.618)" fill="#e9f3ff"/>
      <path id="Caminho_85" data-name="Caminho 85" d="M405.686,75.787,429.661,81.1a1.567,1.567,0,1,0,.673-3.06l-23.974-5.294a1.567,1.567,0,1,0-.673,3.06" transform="translate(-403.829 -16.44)" fill="#e9f3ff"/>
      <path id="Caminho_86" data-name="Caminho 86" d="M405.276,80.242,426.8,85.016a1.552,1.552,0,1,0,.673-3.029l-21.527-4.773a1.567,1.567,0,1,0-.673,3.06" transform="translate(-404.046 -14.071)" fill="#e9f3ff"/>
      <circle id="Elipse_8" data-name="Elipse 8" cx="28.717" cy="28.717" r="28.717" transform="translate(1.062)" fill="#9ab3da"/>
      <path id="Caminho_87" data-name="Caminho 87" d="M428.338,78.613a.765.765,0,0,1-.75-.719.75.75,0,0,1,.7-.811c5.676-.444,10.587-5.89,12.071-10.909,1.224-4.177.214-7.864-2.785-10.128a8.124,8.124,0,0,0-5.447-1.912c.459,4.314-1.805,8.813-4.36,10.174a2.968,2.968,0,0,1-3.672-.459c-1.53-1.53-.826-5.125,1.622-7.925a9.761,9.761,0,0,1,4.59-3.06,6.257,6.257,0,0,0-5.232-4.131c-3.672-.428-7.191,2.218-9.379,7.084a15.973,15.973,0,0,0,2.861,17.962.765.765,0,0,1-1.04,1.117,17.549,17.549,0,0,1-3.213-19.706c2.479-5.493,6.594-8.461,10.954-7.971a7.757,7.757,0,0,1,6.564,5.355,9.639,9.639,0,0,1,6.671,2.2c3.519,2.677,4.728,6.961,3.32,11.781-1.882,6.4-7.65,11.551-13.433,11.995Zm2.28-24.189a8.645,8.645,0,0,0-3.748,2.509c-2,2.295-2.54,4.972-1.683,5.829a1.408,1.408,0,0,0,1.867.2C428.873,61.982,431,58.3,430.618,54.424Z" transform="translate(-399.507 -29.975)" fill="#e9f3ff"/>
    </g>
    <g id="ORNAMENT" transform="translate(27.232 99.57)">
      <path id="Caminho_93" data-name="Caminho 93" d="M17.76,89.294l1.989-.275A16.921,16.921,0,0,0,34.482,74.882L34.758,73l.275,1.9A16.921,16.921,0,0,0,49.782,89.034l1.974.275-1.974.26a16.921,16.921,0,0,0-14.749,14.137l-.275,1.9-.275-1.9A16.921,16.921,0,0,0,19.749,89.569Z" transform="translate(-17.76 -60.883)" fill="#e9f3ff"/>
      <path id="Caminho_94" data-name="Caminho 94" d="M17.76,230.285,19,230.117a10.71,10.71,0,0,0,9.256-8.874l.168-1.193.168,1.193a10.71,10.71,0,0,0,9.256,8.874l1.239.168-1.239.153a10.71,10.71,0,0,0-9.256,8.889l-.168,1.178-.168-1.178A10.71,10.71,0,0,0,19,230.438Z" transform="translate(-17.76 17.048)" fill="#e9f3ff"/>
      <path id="Caminho_95" data-name="Caminho 95" d="M281,260.8l1.239-.153a10.618,10.618,0,0,0,9.18-8.874l.184-1.193.168,1.193a10.618,10.618,0,0,0,9.18,8.874l1.255.153-1.255.168a10.618,10.618,0,0,0-9.18,8.874l-.168,1.193-.184-1.193a10.618,10.618,0,0,0-9.18-8.874Z" transform="translate(121.747 33.228)" fill="#9ab3da"/>
      <path id="Caminho_96" data-name="Caminho 96" d="M374.65,117.181l1.53-.2a12.974,12.974,0,0,0,11.307-10.832l.214-1.53.2,1.53a12.989,12.989,0,0,0,11.306,10.832l1.53.2-1.53.214A12.989,12.989,0,0,0,387.9,128.227l-.2,1.53-.214-1.53A12.974,12.974,0,0,0,376.18,117.4Z" transform="translate(171.378 -44.125)" fill="#e9f3ff"/>
      <circle id="Elipse_10" data-name="Elipse 10" cx="4.223" cy="4.223" r="4.223" transform="translate(158.764 3.182)" fill="#9ab3da"/>
      <circle id="Elipse_11" data-name="Elipse 11" cx="3.182" cy="3.182" r="3.182" transform="translate(189.899 267.254)" fill="#e9f3ff"/>
      <circle id="Elipse_12" data-name="Elipse 12" cx="7.359" cy="7.359" r="7.359" transform="translate(200.196 285.384)" fill="#9ab3da"/>
      <circle id="Elipse_13" data-name="Elipse 13" cx="2.448" cy="2.448" r="2.448" transform="translate(417.924 323.633)" fill="#e9f3ff"/>
      <circle id="Elipse_14" data-name="Elipse 14" cx="3.672" cy="3.672" r="3.672" transform="translate(583.665 80.415)" fill="#9ab3da"/>
      <circle id="Elipse_15" data-name="Elipse 15" cx="3.427" cy="3.427" r="3.427" transform="translate(546.395)" fill="#e9f3ff"/>
    </g>
    <g id="MAN_LEFT_FEET" data-name="MAN LEFT FEET" transform="translate(121.069 333.324)">
      <path id="Caminho_97" data-name="Caminho 97" d="M145.062,356.945l-2.371,15.3L140.3,387.636c-4.59,3.136-11.964.2-11.964.2l.841-20.073.428-10.832Z" transform="translate(-52.994 -144.165)" fill="#ecbdbb"/>
      <path id="Caminho_98" data-name="Caminho 98" d="M144.771,356.94l-2.371,15.3c-6.456-.811-10.71-2.509-13.51-4.467l.428-10.832Z" transform="translate(-52.702 -144.16)" fill="#404b7c"/>
      <path id="Caminho_99" data-name="Caminho 99" d="M178.429,414.44H122.8a50.852,50.852,0,0,1,.535-6.258c.979-7.65,1.622-19.186,6.288-32.053a40.377,40.377,0,0,0,15.927.337,61.947,61.947,0,0,0,9.807,12.041s4.253,1.346,11.337,6.778S179.072,409.759,178.429,414.44Z" transform="translate(-55.93 -133.99)" fill="#9ab3da"/>
      <ellipse id="Elipse_16" data-name="Elipse 16" cx="6.196" cy="3.917" rx="6.196" ry="3.917" transform="translate(72.539 262.271) rotate(-76.45)" fill="#404b7c"/>
      <path id="Caminho_100" data-name="Caminho 100" d="M143.163,395.313a.75.75,0,0,1-.459-.153c-7.374-5.508-11.107-16.462-11.261-16.921a.767.767,0,0,1,1.453-.49c0,.107,3.748,10.97,10.71,16.187a.765.765,0,0,1,.153,1.071A.78.78,0,0,1,143.163,395.313Z" transform="translate(-51.37 -133.406)" fill="#404b7c"/>
      <path id="Caminho_101" data-name="Caminho 101" d="M172.279,387.919c-7.084-5.431-16.921-3.6-16.921-3.6C142.659,389.281,143.776,404,143.776,404h-20.44c-.49,3.886-.535,6.258-.535,6.258h55.629C179.072,405.575,179.363,393.35,172.279,387.919Z" transform="translate(-55.93 -129.806)" fill="#404b7c"/>
      <path id="Caminho_102" data-name="Caminho 102" d="M194.983,337.975C189.062,371.634,175.4,434.5,175.4,434.5a24.689,24.689,0,0,1-5.171,2.142,28.442,28.442,0,0,1-14.764.092,43.024,43.024,0,0,1-14.152-6.4c.872-22.95,6.87-97.168,6.87-97.168s-29.712-26.132-47.811-45.5a142.281,142.281,0,0,1-9.929-11.459c-1.025-1.377-2-2.8-2.876-4.253-10.71-17.38-11.383-38.479-1.346-47.612,20.41-18.558,45.608,8.644,45.608,8.644s40.957,46.863,58.261,71.572c4.5,6.441,7.4,11.383,7.558,13.586C197.8,320.579,196.758,327.969,194.983,337.975Z" transform="translate(-79.093 -217.864)" fill="#f68d88"/>
      <path id="Caminho_103" data-name="Caminho 103" d="M97.436,271.514a142.283,142.283,0,0,1-9.929-11.459c-1.025-1.377-2-2.8-2.876-4.253a8.017,8.017,0,0,0,3.733-1.086c.979-.979,1.714-6.365,1.714-6.365Z" transform="translate(-76.159 -201.708)" fill="#404b7c"/>
      <path id="Caminho_104" data-name="Caminho 104" d="M162.022,308.246a9.913,9.913,0,0,1-5.187,2.417c-7.068.949-13.892-6.487-15.3-16.6s3.32-19.079,10.388-20.027a9.671,9.671,0,0,1,5.156.765c4.5,6.441,7.4,11.383,7.558,13.586C164.837,290.851,163.8,298.24,162.022,308.246Z" transform="translate(-46.132 -188.136)" fill="#ecbdbb"/>
      <path id="Caminho_105" data-name="Caminho 105" d="M147.246,412.1h-.092a.765.765,0,0,1-.673-.841c2.326-22.781,9.807-89.809,10.5-95.913-33.9-24.816-69.552-66.875-69.9-67.318a.771.771,0,0,1,1.178-.994c.352.428,36.122,42.64,69.98,67.318a.75.75,0,0,1,.306.7c-.077.719-8.109,72.6-10.541,96.388A.75.75,0,0,1,147.246,412.1Z" transform="translate(-74.96 -202.55)" fill="#ecbdbb"/>
      <path id="Caminho_106" data-name="Caminho 106" d="M140.68,360.7a32.206,32.206,0,0,1-19.461-7.038.765.765,0,1,1,1.01-1.148c.138.122,13.693,11.811,30.171,3.932a.765.765,0,0,1,1.025.352.78.78,0,0,1-.352,1.025A28.5,28.5,0,0,1,140.68,360.7Z" transform="translate(-56.919 -146.618)" fill="#ecbdbb"/>
    </g>
    <g id="MAN_RIGHT_FEET" data-name="MAN RIGHT FEET" transform="translate(15.466 327.225)">
      <path id="Caminho_107" data-name="Caminho 107" d="M37.347,365.189l-3.136,7.634-6.059,14.718L17.58,385.782l4.942-15.039,3.152-9.593Z" transform="translate(-6.09 -135.829)" fill="#ecbdbb"/>
      <path id="Caminho_108" data-name="Caminho 108" d="M35.635,365.184l-3.136,7.65a40.469,40.469,0,0,1-11.689-2.081l3.152-9.593Z" transform="translate(-4.378 -135.824)" fill="#404b7c"/>
      <path id="Caminho_109" data-name="Caminho 109" d="M65.7,415.182H10.07a50.852,50.852,0,0,1,.535-6.258A90.589,90.589,0,0,1,21.927,374.73a15.7,15.7,0,0,0,12.867,2.479s3.5,7.818,7.833,12.041a22.735,22.735,0,0,1,15.3,4.422C65.042,399.1,66.342,410.5,65.7,415.182Z" transform="translate(-10.07 -128.632)" fill="#9ab3da"/>
      <ellipse id="Elipse_17" data-name="Elipse 17" cx="6.196" cy="3.917" rx="6.196" ry="3.917" transform="translate(5.663 268.374) rotate(-76.45)" fill="#404b7c"/>
      <path id="Caminho_110" data-name="Caminho 110" d="M29.909,395.886a.72.72,0,0,1-.459-.153c-7.42-5.538-9.685-18.161-9.776-18.681a.78.78,0,0,1,.627-.887.75.75,0,0,1,.887.627c0,.122,2.249,12.546,9.18,17.717a.765.765,0,0,1-.459,1.377Z" transform="translate(-4.986 -127.88)" fill="#404b7c"/>
      <path id="Caminho_111" data-name="Caminho 111" d="M59.549,387.919c-7.1-5.431-16.921-3.6-16.921-3.6C29.929,389.281,31.03,404,31.03,404H10.605c-.49,3.886-.535,6.258-.535,6.258H65.7C66.342,405.575,66.571,393.35,59.549,387.919Z" transform="translate(-10.07 -123.707)" fill="#404b7c"/>
      <path id="Caminho_112" data-name="Caminho 112" d="M131.562,236.433s-6.12,32.6-7.482,36.52a16.186,16.186,0,0,1-6.242,1.193c-7.818,35.862-20.394,85.142-21.419,89.09-1.53,5.538-46.587,83.934-46.587,83.934-22.949,4.773-32.481-12.576-32.481-12.576C18.88,430,50.091,356.81,50.091,356.81s9-91.8,10.3-97.091,14.764-35.051,29.681-42.594c16.677-8.522,33.277.306,33.873,19.767Z" transform="translate(-6.212 -213.878)" fill="#f68d88"/>
      <path id="Caminho_113" data-name="Caminho 113" d="M55.321,255.8a22.414,22.414,0,0,1-6.12-.933.794.794,0,1,1,.428-1.53c5.355,1.53,9.7,1.071,12.913-1.408,6.671-5.156,6.472-17.319,6.456-17.442a.8.8,0,0,1,.75-.8.765.765,0,0,1,.78.75c0,.535.229,13.066-7.053,18.7A12.959,12.959,0,0,1,55.321,255.8Z" transform="translate(10.36 -203.378)" fill="#ecbdbb"/>
      <path id="Caminho_114" data-name="Caminho 114" d="M25.314,414.622a.994.994,0,0,1-.291,0,.78.78,0,0,1-.413-1.01L55.224,341.8,65.261,247.81a.761.761,0,1,1,1.515.153L56.724,342.1a.535.535,0,0,1,0,.214l-30.6,71.908a.765.765,0,0,1-.811.4Z" transform="translate(-2.395 -196.262)" fill="#ecbdbb"/>
      <ellipse id="Elipse_18" data-name="Elipse 18" cx="18.482" cy="12.928" rx="18.482" ry="12.928" transform="translate(57.815 159.408) rotate(-76.83)" fill="#ecbdbb"/>
      <path id="Caminho_115" data-name="Caminho 115" d="M41.989,367.106c-12.852,0-21.419-10.144-21.511-10.251a.8.8,0,0,1,.107-1.086.765.765,0,0,1,1.071.107c.107.122,10.45,12.362,25.244,9.18a.75.75,0,0,1,.9.581.765.765,0,0,1-.581.918,25.161,25.161,0,0,1-5.232.551Z" transform="translate(-4.642 -138.771)" fill="#ecbdbb"/>
      <path id="Caminho_116" data-name="Caminho 116" d="M82.425,265.8h-.8a.765.765,0,0,1-.75-.765.826.826,0,0,1,.78-.765,21.314,21.314,0,0,0,8.078-1.01c1.438-4.819,6.12-31.181,6.242-31.456a.777.777,0,0,1,1.53.275c-.2,1.147-5.049,28.06-6.4,31.991a.811.811,0,0,1-.382.428,19.506,19.506,0,0,1-8.308,1.3Z" transform="translate(27.457 -204.718)" fill="#ecbdbb"/>
      <path id="Caminho_117" data-name="Caminho 117" d="M83.269,266.006h-.153a.765.765,0,0,1-.612-.887l6.242-33.8a.777.777,0,0,1,1.53.275l-6.242,33.8a.75.75,0,0,1-.765.612Z" transform="translate(28.311 -204.972)" fill="#ecbdbb"/>
    </g>
    <g id="MAN_LEFT_ARM" data-name="MAN LEFT ARM" transform="translate(164.137 157.517)">
      <path id="Caminho_118" data-name="Caminho 118" d="M170.89,124.872s6.977-20.41,8.629-21.511c1.408-.933,27.876,0,36.168.275a2.326,2.326,0,0,1,2.234,2.54h0a2.326,2.326,0,0,1-1.9,2.111l-23.1,4.376a2,2,0,0,0-1.53,2.677h0a2.02,2.02,0,0,0,2.31,1.255l3.335-.734.78-1.255a2.8,2.8,0,0,1,3.7-1.025h0a2.8,2.8,0,0,1,1.3,3.55l-1.53,3.718a10.954,10.954,0,0,1-7.65,6.609L178.8,130.946Z" transform="translate(-73.513 -102.955)" fill="#ecbdbb"/>
      <path id="Caminho_119" data-name="Caminho 119" d="M215.208,130.692c-5.8,15.667-23.041,61.306-28.075,63.723-2.677,1.3-14.351-1.056-27.738-4.926-16.83-4.85-36.474-12.071-44.155-17.3-5.737-3.9-8.43-11.046-7.941-18.008.658-9.822,7.65-19.339,21.3-19.262,18.145.092,47.505,15.56,47.505,15.56l19.889-29.528a10.97,10.97,0,0,1,15.07-3.152.642.642,0,0,0,.214.138,10.924,10.924,0,0,1,3.932,12.76Z" transform="translate(-107.243 -96.016)" fill="#9ab3da"/>
      <path id="Caminho_120" data-name="Caminho 120" d="M159.395,179.573c-16.83-4.85-36.474-12.071-44.155-17.3-5.737-3.9-8.43-11.046-7.94-18.008a34.225,34.225,0,0,1,16.156-9.5S141.2,161.244,159.395,179.573Z" transform="translate(-107.243 -86.1)" fill="#404b7c"/>
      <path id="Caminho_121" data-name="Caminho 121" d="M181.667,130.425H181.5a.78.78,0,0,1-.6-.9,7.818,7.818,0,0,0-4.085-8.537,8.384,8.384,0,0,0-9.348,1.071.75.75,0,0,1-1.071,0,.765.765,0,0,1,0-1.086,9.96,9.96,0,0,1,11.077-1.316c6.349,3.167,4.926,10.144,4.911,10.22a.75.75,0,0,1-.719.551Z" transform="translate(-76.013 -94.693)" fill="#404b7c"/>
      <path id="Caminho_122" data-name="Caminho 122" d="M161.216,163.756a.75.75,0,0,1-.75-.688,48.087,48.087,0,0,0-7.94-22.628.765.765,0,1,1,1.209-.933c.275.352,6.778,8.92,8.246,23.439a.765.765,0,0,1-.673.841Z" transform="translate(-83.345 -83.762)" fill="#404b7c"/>
    </g>
    <g id="MAN_BODY" data-name="MAN BODY" transform="translate(70.744 190.465)">
      <path id="Caminho_123" data-name="Caminho 123" d="M52.59,222l-1.53,10.174s20.1,9.562,54.543,8.828,44.813-6.915,44.813-6.915l-.734-10.3A193.433,193.433,0,0,1,52.59,222Z" transform="translate(-43.624 -72.813)" fill="#404b7c"/>
      <path id="Caminho_124" data-name="Caminho 124" d="M80.243,226.292c-.658.719-1.224,13.127-.612,13.617s18.36.857,19.369-.122,1.53-12.76.857-13.372S81.712,224.655,80.243,226.292Z" transform="translate(-28.622 -70.985)" fill="#9ab3da"/>
      <path id="Caminho_125" data-name="Caminho 125" d="M64.033,224.05l-2.2,13.357,4.544.734,2.081-13.479Z" transform="translate(-37.917 -71.727)" fill="#f68d88"/>
      <path id="Caminho_126" data-name="Caminho 126" d="M101.51,225.481l1.255,12.974,4.559-.5L105.932,224.9Z" transform="translate(-16.888 -71.276)" fill="#f68d88"/>
      <path id="Caminho_127" data-name="Caminho 127" d="M168.077,251.564c.734,3.932-8.6,23.546-9.822,24.479s-12.745,5.4-38.249,7.359-56.379-3.687-61.29-5.646S46.2,263.283,46.2,258.693c0-2.433,1.285-8.522,3.687-19.109,2.142-9.578,5.217-22.873,9.073-40.467,2.142-9.792,4.253-18.956,6.212-27.142,5.431-22.766,9.608-37.943,9.608-37.943,19.981-4.926,52.845-7.252,52.845-7.252l33.323,2.463c20.364,26.224-.474,80.415,0,90.467S167.342,247.647,168.077,251.564Z" transform="translate(-46.2 -123.276)" fill="#9ab3da"/>
      <path id="Caminho_128" data-name="Caminho 128" d="M80.112,162.047s-6.625,42.319-31.5,61.872c2.142-9.578,5.217-22.873,9.073-40.467,2.142-9.792,4.253-18.956,6.212-27.142a60.8,60.8,0,0,1,16.218,5.737Z" transform="translate(-44.923 -107.627)" fill="#404b7c"/>
      <path id="Caminho_129" data-name="Caminho 129" d="M129.187,172.126h-.076a.75.75,0,0,1-.688-.826c1.7-17.763-.382-30.982-6.349-40.452a.75.75,0,0,1,.245-1.056.765.765,0,0,1,1.056.229c6.12,9.776,8.292,23.317,6.564,41.416A.765.765,0,0,1,129.187,172.126Z" transform="translate(-6.055 -121.744)" fill="#404b7c"/>
      <path id="Caminho_130" data-name="Caminho 130" d="M97,267.595a.811.811,0,0,1-.367-.092.765.765,0,0,1-.306-1.04,68.557,68.557,0,0,0,7.084-37.086c-1.851-25.229-1.668-44.369.551-57.022a56.272,56.272,0,0,0-2.815-29.467.765.765,0,1,1,1.392-.612,56.609,56.609,0,0,1,2.938,30.462c-2.2,12.484-2.387,31.533-.551,56.609a69.98,69.98,0,0,1-7.252,37.928A.765.765,0,0,1,97,267.595Z" transform="translate(-19.687 -115.348)" fill="#404b7c"/>
      <path id="Caminho_131" data-name="Caminho 131" d="M101.834,124.49c-13.1,0-18.757,19.767-11.949,31.441,0,0,5.049-12.592,14.244-13.142s15.544,11.674,15.544,11.674S124.263,124.49,101.834,124.49Z" transform="translate(-24.586 -124.49)" fill="#404b7c"/>
    </g>
    <g id="MAN_RIGHT_ARM" data-name="MAN RIGHT ARM" transform="translate(0 185.856)">
      <rect id="Ret창ngulo_26" data-name="Ret창ngulo 26" width="27.799" height="51.116" rx="1.34" transform="translate(8.213 8.913) rotate(-18.7)" fill="#9ab3da"/>
      <rect id="Ret창ngulo_27" data-name="Ret창ngulo 27" width="27.799" height="51.116" rx="1.34" transform="translate(4.196 10.284) rotate(-18.7)" fill="#404b7c"/>
      <path id="Caminho_132" data-name="Caminho 132" d="M99.591,183.466c-7.971,13.035-28.044,30.079-38.6,38.6a13.3,13.3,0,0,1-15.407.964C27.423,211.572,12.23,188.852,12.23,188.852c.184-14.718,11.949-15.3,11.949-15.3l24.1,6.977S80.558,132.35,92.783,131.57C107.669,130.438,112.274,162.674,99.591,183.466Z" transform="translate(6.541 -116.145)" fill="#9ab3da"/>
      <path id="Caminho_133" data-name="Caminho 133" d="M54.894,209.078a.78.78,0,0,1-.566-.26.75.75,0,0,1,0-1.071c10.832-9.838,18.36-18.161,22.353-24.709,7.971-13.051,8.522-29.513,5.661-39.274-1.53-5.34-4.192-9.18-7.405-10.71a.766.766,0,0,1,.673-1.377c3.657,1.775,6.5,5.814,8.2,11.658,3.611,12.24,1.209,28.962-5.814,40.5-4.085,6.671-11.7,15.1-22.643,25.045A.841.841,0,0,1,54.894,209.078Z" transform="translate(28.732 -116.114)" fill="#404b7c"/>
      <path id="Caminho_134" data-name="Caminho 134" d="M15.545,177.037a.765.765,0,1,1,0-1.53c4.07,0,7.13-1.163,9.088-3.427,3.228-3.764,2.417-9.379,2.417-9.425a.75.75,0,0,1,.643-.872.765.765,0,0,1,.872.643c0,.245.918,6.365-2.769,10.71C23.531,175.69,20.089,177.037,15.545,177.037Z" transform="translate(7.893 -100.122)" fill="#404b7c"/>
      <path id="Caminho_135" data-name="Caminho 135" d="M43.43,189.081h-.214a.765.765,0,0,1-.52-.949c4.59-15.437-5.523-22.766-5.952-23.072a.765.765,0,0,1-.2-1.056.78.78,0,0,1,1.071-.2c.122.092,11.429,8.231,6.548,24.755A.765.765,0,0,1,43.43,189.081Z" transform="translate(19.358 -99.115)" fill="#404b7c"/>
      <path id="Caminho_136" data-name="Caminho 136" d="M24.495,162.381a10.985,10.985,0,0,1-8.032,11.077,19.57,19.57,0,0,1-4.223.8,22.674,22.674,0,0,1,.5-4.59,12.943,12.943,0,0,1,7.895-9.792A11.611,11.611,0,0,1,24.113,159,15.758,15.758,0,0,1,24.495,162.381Z" transform="translate(6.546 -101.592)" fill="#404b7c"/>
      <path id="Caminho_137" data-name="Caminho 137" d="M26.122,163.738a10.985,10.985,0,0,1-8.032,11.077l-3.733-3.748-5.187-5.34,5.707-9.287,7.374,4.835Z" transform="translate(4.919 -102.949)" fill="#ecbdbb"/>
      <path id="Caminho_138" data-name="Caminho 138" d="M4.366,140.456l21.083-8.216a2.173,2.173,0,0,1,2.769,1.163h0a2.173,2.173,0,0,1-.811,2.677l-15.529,9.792.734,1.53,16.83-7.772a2.142,2.142,0,0,1,2.8.994h0a2.157,2.157,0,0,1-.688,2.723L15.688,154.608l.918,1.377,14.963-7.436a2,2,0,0,1,2.632.78h0a1.989,1.989,0,0,1-.52,2.509L19.91,162.7l1.01,1.53,9.669-7.084a2.02,2.02,0,0,1,2.83.428h0a2.05,2.05,0,0,1,0,2.31L25.112,172.57a10.863,10.863,0,0,1-6.12,4.59l-5.079,1.453a32.359,32.359,0,0,1-13.1-34,5.753,5.753,0,0,1,3.55-4.161Z" transform="translate(0.039 -115.851)" fill="#ecbdbb"/>
      <path id="Caminho_139" data-name="Caminho 139" d="M20.943,171.486h-.214c-3.81-1.1-4.177-2.785-4.269-4.7,0-1.331-.107-2.371-2.723-3.351-4.253-1.606-4.161-4.008-4.07-5.936a3.519,3.519,0,0,0-2.02-4.039,4.59,4.59,0,0,1-2.555-5.447c.153-1.408.184-2.173-.841-2.83a4.682,4.682,0,0,1-1.729-6.3.765.765,0,0,1,1.04-.321.78.78,0,0,1,.306,1.04,3.167,3.167,0,0,0,1.224,4.269,3.886,3.886,0,0,1,1.53,4.269c-.168,1.53-.291,2.8,1.775,3.917a4.957,4.957,0,0,1,2.815,5.477c-.076,1.882-.122,3.228,3.06,4.437,3.55,1.331,3.641,3.213,3.7,4.712s.107,2.417,3.167,3.3a.765.765,0,0,1,.52.949A.8.8,0,0,1,20.943,171.486Z" transform="translate(1.087 -112.472)" fill="#404b7c"/>
    </g>
    <g id="MAN_NECK" data-name="MAN NECK" transform="translate(142.53 174.859)">
      <path id="Caminho_140" data-name="Caminho 140" d="M105.865,114.315V135.26a4.988,4.988,0,0,1-5.508,4.59,8.782,8.782,0,0,1-7.237-4.666l2.509-17.824.428-3.06Z" transform="translate(-93.12 -114.285)" fill="#ecbdbb"/>
      <path id="Caminho_141" data-name="Caminho 141" d="M105,114.321v11.429a12,12,0,0,1-10.235-8.4l.428-3.06Z" transform="translate(-92.251 -114.29)" fill="#404b7c"/>
    </g>
    <g id="MAN_HEAD" data-name="MAN HEAD" transform="translate(123.758 123.638)">
      <path id="Caminho_142" data-name="Caminho 142" d="M92.207,108.142s.245,14.458,1.836,18.008,17.411,8.216,20.96,6.38,6.87-26.851,4.3-35.8S91.351,90,92.207,108.142Z" transform="translate(-74.844 -75.082)" fill="#ecbdbb"/>
      <path id="Caminho_143" data-name="Caminho 143" d="M135.852,103.942c-1.53-4.789,4.039-19.981-8.338-21.221-8.507-.841-19.889,6.319-26.315,10.863,6.778-7.39,5.4-14.856,0-12.24-6.349,3.228-4.7,15.85-4.7,15.85-2.2-9.18-12.867-14.718-13.77-8.95-.566,3.84,5.569,6.87,9.731,8.461-4.207-.168-10.327.765-11.444,7.359-1.714,10.174,10.174,17.4,16.554,20.348l4.284.122-.887-5.4s6.747.245,5.523-9.073c0,0,26.606,14.229,36.535-1.836C143.088,108.226,137.443,108.716,135.852,103.942Z" transform="translate(-80.851 -80.811)" fill="#404b7c"/>
      <path id="Caminho_144" data-name="Caminho 144" d="M99.3,111.093s-4.162-10.434-12.989-6.992-1.53,22.429,13.234,11.521Z" transform="translate(-79.982 -68.837)" fill="#ecbdbb"/>
      <path id="Caminho_145" data-name="Caminho 145" d="M95.241,114.2a.78.78,0,0,1-.7-.459s-3.06-6.686-8.8-7.267a.75.75,0,0,1-.688-.826.765.765,0,0,1,.841-.688c6.609.658,9.914,7.849,10.052,8.155a.765.765,0,0,1-.4,1.01A.7.7,0,0,1,95.241,114.2Z" transform="translate(-78.627 -68.014)" fill="#404b7c"/>
      <path id="Caminho_146" data-name="Caminho 146" d="M88.51,112.427a.75.75,0,0,1-.75-.7,9.027,9.027,0,0,1,1.3-4.835.767.767,0,1,1,1.346.734,7.925,7.925,0,0,0-1.132,3.993.765.765,0,0,1-.7.811Z" transform="translate(-77.19 -67.203)" fill="#404b7c"/>
    </g>
    <g id="MAN_FACE" data-name="MAN FACE" transform="translate(149.629 156.79)">
      <path id="Caminho_147" data-name="Caminho 147" d="M97.76,106.152s2.1-4.284,5.34-2.662c0,0,0-.979.918-1.01s.949,2.632.949,2.632a18.161,18.161,0,0,0-7.206,1.04Z" transform="translate(-97.76 -102.48)" fill="#404b7c"/>
      <path id="Caminho_148" data-name="Caminho 148" d="M111.223,107.51s-.291-4.345-2.785-3.06c0,0,0-.811-.612-.887-.949-.153-1.117,2.341-1.117,2.341a7.65,7.65,0,0,1,4.513,1.606Z" transform="translate(-93.017 -101.91)" fill="#404b7c"/>
      <ellipse id="Elipse_19" data-name="Elipse 19" cx="2.203" cy="1.79" rx="2.203" ry="1.79" transform="translate(2.773 10.843) rotate(-88.53)" fill="#404b7c"/>
      <circle id="Elipse_20" data-name="Elipse 20" cx="0.474" cy="0.474" r="0.474" transform="translate(4.544 7.421)" fill="#fff"/>
      <ellipse id="Elipse_21" data-name="Elipse 21" cx="2.203" cy="1.79" rx="2.203" ry="1.79" transform="translate(13.294 11.098) rotate(-88.53)" fill="#404b7c"/>
      <circle id="Elipse_22" data-name="Elipse 22" cx="0.474" cy="0.474" r="0.474" transform="translate(15.07 7.696)" fill="#fff"/>
      <path id="Caminho_149" data-name="Caminho 149" d="M105.329,116.324a4.3,4.3,0,0,1-1.193-.168.75.75,0,0,1-.535-.933.765.765,0,0,1,.933-.536s1.759.459,2.218-.612a.413.413,0,0,0,0-.26,2.708,2.708,0,0,0-1.714-.52.765.765,0,0,1-.734-.78l.077-4.314a.75.75,0,0,1,.765-.75h0a.765.765,0,0,1,.75.78v3.611a3.228,3.228,0,0,1,2.188,1.147,1.744,1.744,0,0,1,.092,1.683,2.876,2.876,0,0,1-2.846,1.652Z" transform="translate(-94.68 -99.846)" fill="#404b7c"/>
      <path id="Caminho_150" data-name="Caminho 150" d="M107.547,116.719s-4.758,3.06-7.788-2.769Z" transform="translate(-96.7 -96.401)" fill="#fff"/>
    </g>
    <g id="WOMAN_RIGHT_FEET" data-name="WOMAN RIGHT FEET" transform="translate(469.069 332.175)">
      <path id="Caminho_151" data-name="Caminho 151" d="M339.746,373.2c-.581,8.644-1.285,16.83-1.285,16.83l-10.036-1.377c-.184-5.753-.887-12.729-1.606-18.788-.933-7.849-1.928-14.122-1.928-14.122.076-11.98,15.039-7.007,15.544-.918C340.664,357.734,340.251,365.613,339.746,373.2Z" transform="translate(-296.83 -147.521)" fill="#ecbdbb"/>
      <path id="Caminho_152" data-name="Caminho 152" d="M340.434,354.855c.229,2.861-.184,10.71-.689,18.36-6.548-.367-10.557-1.867-12.928-3.289-.933-7.849-1.928-14.122-1.928-14.122C324.967,343.793,339.93,348.766,340.434,354.855Z" transform="translate(-296.83 -147.504)" fill="#404b7c"/>
      <path id="Caminho_153" data-name="Caminho 153" d="M350.8,370.8a35.862,35.862,0,0,0-15.3.918s-2.326,19.889-18.023,28.136c-12.546,6.609-10.847,17.64-10.847,17.64h29.9c6.778-5.661,9.027-14.887,9.027-14.887.459,4.988.444,11.735.4,14.887h8.859A226.756,226.756,0,0,0,350.8,370.8Z" transform="translate(-306.55 -135.894)" fill="#404b7c"/>
      <path id="Caminho_154" data-name="Caminho 154" d="M381.524,433.69c-26.009,10.3-57.144.49-57.144.49s2.938-45.363,1.53-65.467-8.568-76.988-9.3-94.643,1.882-52.386,20.1-56.394c10.052-2.2,25.749.979,28.182,29.666.78,9.18,1.453,20.471,2.157,32.665.291,5.034.581,10.2.9,15.468,1.362,21.863,3.06,44.92,6.028,62.943C379.351,391.264,381.524,433.69,381.524,433.69Z" transform="translate(-301.277 -217.113)" fill="#9ab3da"/>
      <path id="Caminho_155" data-name="Caminho 155" d="M353.157,275.829c-8.277-6.043-8.767-21.649-8.767-21.649.643,5.049,5.11,6.12,7.864,6.12C352.545,265.395,352.835,270.566,353.157,275.829Z" transform="translate(-286.496 -197.469)" fill="#404b7c"/>
      <path id="Caminho_156" data-name="Caminho 156" d="M318.87,259.292h-.26a.765.765,0,0,1-.688-.841.8.8,0,0,1,.841-.688,4.253,4.253,0,0,0,3.152-1.346c1.53-1.53,3.32-4.927,2.907-12.745a.766.766,0,1,1,1.53-.092c.367,6.793-.78,11.49-3.4,13.984a5.982,5.982,0,0,1-4.085,1.729Z" transform="translate(-300.525 -203.468)" fill="#404b7c"/>
      <path id="Caminho_157" data-name="Caminho 157" d="M351.574,359.938a141.333,141.333,0,0,1-27.386-2.892.765.765,0,0,1-.581-.918.78.78,0,0,1,.918-.581c.306,0,31.242,6.732,49.938-.689a.75.75,0,0,1,.979.428.765.765,0,0,1-.428.994C368.052,359.051,359.576,359.938,351.574,359.938Z" transform="translate(-297.52 -144.141)" fill="#404b7c"/>
      <path id="Caminho_158" data-name="Caminho 158" d="M354.851,400.244h0a.765.765,0,0,1-.765-.78c.2-20.257-2.754-40.605-5.34-58.582-.734-5.049-1.423-9.807-2-14.366-2.677-20.639-3.442-57.572-3.442-57.955a.765.765,0,0,1,.75-.78.75.75,0,0,1,.78.75c0,.367.765,37.224,3.427,57.787.581,4.59,1.27,9.3,2,14.351,2.6,18.023,5.554,38.448,5.355,58.812a.765.765,0,0,1-.765.765Z" transform="translate(-287.073 -190.262)" fill="#404b7c"/>
      <ellipse id="Elipse_23" data-name="Elipse 23" cx="10.526" cy="16.478" rx="10.526" ry="16.478" transform="matrix(0.999, -0.036, 0.036, 0.999, 27.025, 115.936)" fill="#e9f3ff"/>
    </g>
    <g id="WOMAN_LEFT_FEET" data-name="WOMAN LEFT FEET" transform="translate(523.826 330.486)">
      <path id="Caminho_159" data-name="Caminho 159" d="M420.223,388.729l-10.113.551c-1.408-6.12-3.7-13.647-5.707-19.8-2.188-6.717-4.039-11.827-4.039-11.827-2.218-11.765,13.418-9.731,15.07-3.855a77.38,77.38,0,0,1,1.53,8.537C418.525,372.924,420.223,388.729,420.223,388.729Z" transform="translate(-311.703 -145.479)" fill="#ecbdbb"/>
      <path id="Caminho_160" data-name="Caminho 160" d="M416.965,362.307a26.713,26.713,0,0,1-12.561,7.145c-2.188-6.717-4.039-11.827-4.039-11.827-2.218-11.765,13.418-9.731,15.07-3.856a77.422,77.422,0,0,1,1.53,8.537Z" transform="translate(-311.702 -145.495)" fill="#404b7c"/>
      <path id="Caminho_161" data-name="Caminho 161" d="M429.677,370.8a35.77,35.77,0,0,0-15.3.918s-2.341,19.889-18.023,28.136c-12.546,6.609-10.847,17.64-10.847,17.64h29.9c6.762-5.661,9.027-14.887,9.027-14.887.444,4.988.428,11.735.4,14.887h8.9a226.107,226.107,0,0,0-4.055-46.694Z" transform="translate(-319.503 -134.206)" fill="#404b7c"/>
      <path id="Caminho_162" data-name="Caminho 162" d="M460.253,422.249a83.123,83.123,0,0,1-55.66,8.461c-5.875-31.38-35.419-107.388-47.429-136.809a108.627,108.627,0,0,1-4.406-13.372c-1.821,0-5.462-.352-6.808-3.182-1.836-3.84-3.06-31.624-3.06-31.624l6.564-.627c1.086-13.1,5.156-23.5,12.24-27.065,12.24-6.12,33.108,1.53,39.978,24.755,5.416,18.36,21.572,58.6,34.562,95.133S460.253,422.249,460.253,422.249Z" transform="translate(-342.048 -216.009)" fill="#9ab3da"/>
      <path id="Caminho_163" data-name="Caminho 163" d="M352.943,271.283c-2.035,0-5.89-.444-7.4-3.626-1.882-3.963-3.152-30.783-3.2-31.915a.78.78,0,0,1,.719-.811.75.75,0,0,1,.811.734c.352,7.65,1.53,28.274,3.06,31.334,1.224,2.57,4.8,2.785,6.38,2.739l-3.06-33.965a.78.78,0,0,1,.7-.841.8.8,0,0,1,.826.7l3.167,34.745a.765.765,0,0,1-.673.826,8.9,8.9,0,0,1-1.331.076Z" transform="translate(-342.34 -205.983)" fill="#404b7c"/>
      <ellipse id="Elipse_24" data-name="Elipse 24" cx="11.398" cy="18.115" rx="11.398" ry="18.115" transform="translate(48.448 118.668) rotate(-14.44)" fill="#e9f3ff"/>
      <path id="Caminho_164" data-name="Caminho 164" d="M384.515,259.116a8.7,8.7,0,0,1-4.36-1.1c-5.156-2.938-5.753-10.557-5.783-10.878a.765.765,0,0,1,.7-.826.8.8,0,0,1,.826.7s.581,7.145,5.018,9.669c2.586,1.53,6.12,1.148,10.3-.979a.765.765,0,0,1,1.025.352.75.75,0,0,1-.337,1.025,16.83,16.83,0,0,1-7.39,2.035Z" transform="translate(-325.365 -199.951)" fill="#404b7c"/>
      <path id="Caminho_165" data-name="Caminho 165" d="M428.5,395.179a.75.75,0,0,1-.75-.627c-9.379-50.351-43.206-138-43.543-138.89a.765.765,0,0,1,1.423-.551c.337.887,34.21,88.738,43.619,139.227a.765.765,0,0,1-.612.9Z" transform="translate(-320.167 -195.518)" fill="#404b7c"/>
      <path id="Caminho_166" data-name="Caminho 166" d="M385.6,357.662a.734.734,0,0,1-.8-.765.765.765,0,0,1,.765-.765h0c.413,0,31.915-.092,46.985-8.935a.75.75,0,0,1,1.04.275.765.765,0,0,1-.26,1.04C417.985,357.662,387.248,357.662,385.6,357.662Z" transform="translate(-319.837 -146.542)" fill="#404b7c"/>
    </g>
    <g id="WOMAN_RIGHT_ARM" data-name="WOMAN RIGHT ARM" transform="translate(445.082 221.206)">
      <path id="Caminho_167" data-name="Caminho 167" d="M332.5,146.95c-14.841,8.4-47.934,64.671-40.575,79.007s28.335,16.967,50.014-15.437C368.178,171.231,353.888,134.833,332.5,146.95Z" transform="translate(-290.872 -144.582)" fill="#404b7c"/>
    </g>
    <g id="WOMAN_BODY" data-name="WOMAN BODY" transform="translate(475.538 206.624)">
      <path id="Caminho_168" data-name="Caminho 168" d="M317.9,230.954s-2.769,14.718-2.586,19.125,29.987,9.011,53.334,9.011,53.885-9.562,53.885-14.152-2.769-16.738-2.769-16.738Z" transform="translate(-308.379 -85.687)" fill="#ecbdbb"/>
      <path id="Caminho_169" data-name="Caminho 169" d="M325.224,233c-1.392.107-1.53,4.039-2.111,7.91s-.918,6.7.826,6.977,2.02-5.324,2.479-7.65S327.427,232.773,325.224,233Z" transform="translate(-304.49 -83.146)" fill="#f68d88"/>
      <path id="Caminho_170" data-name="Caminho 170" d="M337.785,234.6c-1.362.291-.933,4.192-1.071,8.109s0,6.778,1.714,6.824,1.316-5.538,1.53-7.879S339.957,234.126,337.785,234.6Z" transform="translate(-297.054 -82.311)" fill="#f68d88"/>
      <path id="Caminho_171" data-name="Caminho 171" d="M364.249,233.723c-1.316.428-.474,4.269-.2,8.17s.688,6.747,2.448,6.609.719-5.661.627-8S366.314,233.019,364.249,233.723Z" transform="translate(-282.821 -82.795)" fill="#f68d88"/>
      <path id="Caminho_172" data-name="Caminho 172" d="M351.879,234.923c-1.346.337-.811,4.223-.841,8.139s.153,6.778,1.928,6.778,1.147-5.6,1.239-7.94S354.082,234.388,351.879,234.923Z" transform="translate(-289.484 -82.144)" fill="#f68d88"/>
      <path id="Caminho_173" data-name="Caminho 173" d="M375.617,231.171c-1.27.581,0,4.3.78,8.139s1.53,6.609,3.228,6.258,0-5.707-.352-8.017S377.621,230.222,375.617,231.171Z" transform="translate(-276.702 -84.175)" fill="#f68d88"/>
      <path id="Caminho_174" data-name="Caminho 174" d="M359.57,136.268c-16.187.994-37.882,15.177-37.882,15.177s-13.066,50.749-9.929,59.76,11.949,13.617,11.949,13.617-7.65,47.26-6.441,54.421,18.757,11.031,50.4,11.031,57.909-8.155,57.374-12.5c-8.461-68.037-12.882-79.436-17.411-133.872C407.626,143.9,384.294,134.768,359.57,136.268Z" transform="translate(-310.516 -134.496)" fill="#f68d88"/>
      <path id="Caminho_175" data-name="Caminho 175" d="M325.645,190.707a.78.78,0,0,1-.734-.551.765.765,0,0,1,.52-.949c.184,0,19.339-5.707,47.337-1.132a.775.775,0,1,1-.245,1.53c-27.539-4.513-46.465,1.025-46.649,1.086Z" transform="translate(-303.305 -107.893)" fill="#ecbdbb"/>
      <path id="Caminho_176" data-name="Caminho 176" d="M382.94,242.886a.75.75,0,0,1-.75-.688c-1.53-16.83-10.388-59.408-10.465-59.821a.782.782,0,0,1,1.53-.321c.092.428,8.981,43.038,10.5,60.005a.75.75,0,0,1-.689.826Z" transform="translate(-278.487 -110.471)" fill="#ecbdbb"/>
      <path id="Caminho_177" data-name="Caminho 177" d="M320.6,213.947a.749.749,0,0,1-.459-.153,26.116,26.116,0,0,1-8.843-11.719c-2.111-6.12,2.57-29.253,6.854-47.643a.785.785,0,1,1,1.53.352c-6,25.719-8.445,42.334-6.9,46.786a24.587,24.587,0,0,0,8.338,11.016.765.765,0,0,1-.474,1.362Z" transform="translate(-310.778 -125.104)" fill="#ecbdbb"/>
      <path id="Caminho_178" data-name="Caminho 178" d="M347.534,135.263c-8.094.918-18.115,10.021-14.81,25.107,0,0,5.615-9.011,11.949-8.828s10.113,10.3,10.113,10.3a27.448,27.448,0,0,0,7.359-15.3C363.063,137.39,357.418,134.146,347.534,135.263Z" transform="translate(-299.49 -135.052)" fill="#f68d88"/>
      <path id="Caminho_179" data-name="Caminho 179" d="M355.05,162.008h-.168a.765.765,0,0,1-.535-.474c0-.107-3.672-9.639-9.425-9.807h-.168c-5.768,0-11.062,8.384-11.108,8.461a.75.75,0,0,1-.78.352.8.8,0,0,1-.627-.581c-1.7-7.772-.092-14.9,4.59-20.058a.769.769,0,0,1,1.147,1.025,20.18,20.18,0,0,0-4.59,16.921c1.989-2.662,6.472-7.757,11.566-7.65,5.508.153,9.1,6.915,10.327,9.669a26.515,26.515,0,0,0,6.349-14.045c.383-3.779-.413-6.579-2.387-8.308a.765.765,0,0,1,0-1.071.75.75,0,0,1,1.071-.077c2.371,2.081,3.335,5.309,2.907,9.608a27.845,27.845,0,0,1-7.65,15.835A.765.765,0,0,1,355.05,162.008Z" transform="translate(-299.754 -134.456)" fill="#ecbdbb"/>
    </g>
    <g id="WOMAN_RIGHT_HAND" data-name="WOMAN RIGHT HAND" transform="translate(441.342 176.855)">
      <path id="Caminho_180" data-name="Caminho 180" d="M307.047,159.314s-1.714-14.229-1.1-17.289,12.24-6.87,12.24-6.87l-.321-17.136a2.372,2.372,0,0,1,2.173-2.417h0a2.372,2.372,0,0,1,2.54,1.989l4.8,30.2,5.156,1.346c1.882,5.936-4.789,10.3-12.76,15.3Z" transform="translate(-279.212 -115.594)" fill="#ecbdbb"/>
      <path id="Caminho_181" data-name="Caminho 181" d="M318.156,128.38c7.359,0,12.163,2.05,10.419,11.429s-10.71,9.47-13.142,7.359-2.295-6.992-2.295-6.992-7.39-.49-7.237-4.926S313.535,128.349,318.156,128.38Z" transform="translate(-279.167 -108.819)" fill="#ecbdbb"/>
      <path id="Caminho_182" data-name="Caminho 182" d="M316.982,142h0a.765.765,0,0,1-.673-.841,11.106,11.106,0,0,0-.306-4.345,4.162,4.162,0,0,0-2.815-2.662l-1.989-.612a.8.8,0,1,1,.444-1.53l1.912.581a5.615,5.615,0,0,1,3.84,3.657,12.239,12.239,0,0,1,.367,4.957.765.765,0,0,1-.78.8Z" transform="translate(-276.663 -106.911)" fill="#404b7c"/>
      <path id="Caminho_183" data-name="Caminho 183" d="M320.051,139.982h-.076a.765.765,0,0,1-.688-.841,10.8,10.8,0,0,0-.306-4.345,4.1,4.1,0,0,0-2.815-2.662l-1.974-.612a.767.767,0,1,1,.444-1.469l1.912.581a5.737,5.737,0,0,1,3.84,3.672,12.469,12.469,0,0,1,.352,4.957.75.75,0,0,1-.689.719Z" transform="translate(-275.065 -107.951)" fill="#404b7c"/>
      <path id="Caminho_184" data-name="Caminho 184" d="M318.716,145.68a6.793,6.793,0,0,1-4.36-1.3c-2.081-1.836-2.479-5.37-2.54-6.885a13.511,13.511,0,0,1-4.437-1.316.765.765,0,0,1-.306-1.04.75.75,0,0,1,1.025-.306,13.633,13.633,0,0,0,4.59,1.224.765.765,0,0,1,.719.765s0,4.59,2.035,6.411a6.961,6.961,0,0,0,6.12.459c2.142-.734,4.881-2.616,5.768-7.39a.78.78,0,0,1,.887-.612.765.765,0,0,1,.612.9,10.327,10.327,0,0,1-6.762,8.537,9.869,9.869,0,0,1-3.351.551Z" transform="translate(-278.595 -105.449)" fill="#404b7c"/>
      <path id="Caminho_185" data-name="Caminho 185" d="M323.786,135.631c-2.264-.107-5.569,3.626-7.5,6.12a2.54,2.54,0,0,0,.52,3.641h0a2.524,2.524,0,0,0,2.693.2c1.821-.964,4.957-2.647,6.686-3.733C328.7,140.236,327.351,135.814,323.786,135.631Z" transform="translate(-273.95 -104.977)" fill="#ecbdbb"/>
      <path id="Caminho_186" data-name="Caminho 186" d="M318.576,146.871a3.325,3.325,0,0,1-2.632-5.37c2-2.57,4.9-5.753,7.267-6.3a.763.763,0,0,1,.352,1.484c-1.53.352-3.825,2.448-6.411,5.753a1.7,1.7,0,0,0-.352,1.346,1.76,1.76,0,0,0,.719,1.209,1.805,1.805,0,0,0,1.9.138c1.239-.658,3.611-1.928,5.385-2.968a.771.771,0,1,1,.78,1.331c-1.714.995-3.917,2.173-5.462,2.983A3.275,3.275,0,0,1,318.576,146.871Z" transform="translate(-274.217 -105.217)" fill="#404b7c"/>
      <path id="Caminho_187" data-name="Caminho 187" d="M332.326,188.212c-2.417,19.767-9.1,34.776-16.723,42.518s-16.539,8.231-22.628-1.805a27.32,27.32,0,0,1-2.861-6.9c-6.288-22.949,6.349-65.62,15.606-74.754a16.937,16.937,0,0,1,16.187-3.917C331.959,146.291,336.733,152.166,332.326,188.212Z" transform="translate(-288.427 -101.225)" fill="#f68d88"/>
      <path id="Caminho_188" data-name="Caminho 188" d="M309.2,226.365a.765.765,0,0,1-.627-1.193c6.12-9,10.557-22.139,12.377-37.01,4.59-36.964-.964-41.431-9.868-44.032a.765.765,0,1,1,.428-1.469c11.046,3.228,15.3,10.587,10.955,45.685-1.836,15.116-6.334,28.5-12.638,37.683a.719.719,0,0,1-.627.337Z" transform="translate(-277.818 -101.267)" fill="#ecbdbb"/>
      <path id="Caminho_189" data-name="Caminho 189" d="M315.371,203.236a30.087,30.087,0,0,1-.352,5.936c-7.8,7.941-16.539,8.231-22.628-1.805a27.322,27.322,0,0,1-2.861-6.9c.765-9.5,5.8-16.83,12.148-17.074C308.853,183.132,314.989,191.975,315.371,203.236Z" transform="translate(-287.842 -79.667)" fill="#ecbdbb"/>
    </g>
    <g id="WOMAN_LEFT_ARM" data-name="WOMAN LEFT ARM" transform="translate(558.018 215.563)">
      <path id="Caminho_190" data-name="Caminho 190" d="M399.9,222.37l-.979,6.12,1.9,1.53,2.524-1.53a2.065,2.065,0,0,1,2.249.107h0a2.065,2.065,0,0,1,.52,2.861l-2.723,5.385s-11.873,3.06-11.934,2.876-3.3-12.745-3.611-14.779S399.9,222.37,399.9,222.37Z" transform="translate(-352.419 -97.715)" fill="#404b7c"/>
      <path id="Caminho_191" data-name="Caminho 191" d="M385.241,220.032s-4.406,13.234-3.672,15.3,14.7,11.582,16.738,12.316c1.438.535,5.6-3.963,7.818-6.533a2.371,2.371,0,0,0-.168-3.274h0a2.4,2.4,0,0,0-2.846-.306l-3.06,1.851-5.064-5.355a47.091,47.091,0,0,0,1.1-10.388C395.9,218.915,388.01,212.612,385.241,220.032Z" transform="translate(-355.785 -100.763)" fill="#ecbdbb"/>
      <path id="Caminho_192" data-name="Caminho 192" d="M439.876,231.232c-4.07,14.122-12.377,30.462-20.67,35.663-12.5,7.849-27.218-2.448-27.952-13.234s9.073-30.6,9.073-30.6S380.284,201.2,369.5,180.345s.979-42.961,9.562-38.983c19.079,8.858,47,41.569,58.307,60.709,2.785,4.712,4.59,8.614,4.957,11.123C442.935,217.554,441.987,224.072,439.876,231.232Z" transform="translate(-364.429 -140.894)" fill="#f68d88"/>
      <path id="Caminho_193" data-name="Caminho 193" d="M396.346,263.641a.78.78,0,0,1-.551-.229,16.906,16.906,0,0,1-4.988-10.434c-.688-10.067,7.405-27.417,8.92-30.6-2.739-3.06-20.731-23.255-30.6-42.441-8.124-15.667-3.687-31.318,2.065-37.438a.765.765,0,0,1,1.086,0,.75.75,0,0,1,0,1.071c-5.447,5.8-9.608,20.685-1.821,35.694,10.6,20.517,30.6,42.288,30.768,42.5a.765.765,0,0,1,.122.857c-.092.2-9.715,19.8-9,30.247a15.53,15.53,0,0,0,4.59,9.486.75.75,0,0,1,0,1.071A.719.719,0,0,1,396.346,263.641Z" transform="translate(-364.687 -140.164)" fill="#ecbdbb"/>
      <path id="Caminho_194" data-name="Caminho 194" d="M417.938,210.041c-6.258,0-11.337-6.594-11.368-14.7,0-7.038,3.718-12.943,8.8-14.458,2.785,4.712,4.59,8.614,4.957,11.123C421,196.363,420.049,202.881,417.938,210.041Z" transform="translate(-342.491 -119.703)" fill="#ecbdbb"/>
      <path id="Caminho_195" data-name="Caminho 195" d="M389.575,197.415a.75.75,0,0,1-.581-.275.765.765,0,0,1,.077-1.071c.321-.275,8.017-6.824,22.108-6.319a.765.765,0,0,1,.734.8.734.734,0,0,1-.78.734c-13.51-.459-20.976,5.875-21.052,5.936A.7.7,0,0,1,389.575,197.415Z" transform="translate(-351.903 -115.017)" fill="#ecbdbb"/>
    </g>
    <g id="WOMAN_NECK" data-name="WOMAN NECK" transform="translate(519.711 201.144)">
      <path id="Caminho_196" data-name="Caminho 196" d="M349.671,143.694s-2.57,3.855-5.967,3.687-4.054-2.218-4.054-2.218l.168-4.269.2-5.844,9.287-3.58.107,3.381Z" transform="translate(-339.65 -131.47)" fill="#ecbdbb"/>
      <path id="Caminho_197" data-name="Caminho 197" d="M349.323,134.851c-1.316,2.83-4.008,5.676-9.593,6.043l.2-5.844,9.287-3.58Z" transform="translate(-339.608 -131.47)" fill="#404b7c"/>
    </g>
    <g id="WOMAN_HEAD" data-name="WOMAN HEAD" transform="translate(503.249 151.65)">
      <circle id="Elipse_25" data-name="Elipse 25" cx="11.949" cy="11.949" r="11.949" transform="translate(28.381)" fill="#404b7c"/>
      <path id="Caminho_198" data-name="Caminho 198" d="M342.272,108.385c-12.163,2.892-11.4,27.218-6.441,35.862s19.691,4.513,23.179-8.644C363.049,120.4,360.112,104.163,342.272,108.385Z" transform="translate(-327.003 -94.57)" fill="#ecbdbb"/>
      <path id="Caminho_199" data-name="Caminho 199" d="M349.3,119.314a14.978,14.978,0,0,1,3.917,8.124,6.671,6.671,0,0,0,6.548,5.4h0s10.235-1.714,6.64-18.849c-2.127-10.159-17.38-16.462-29.146-5.156S349.3,119.314,349.3,119.314Z" transform="translate(-326.184 -97.16)" fill="#404b7c"/>
      <path id="Caminho_200" data-name="Caminho 200" d="M350.041,124.893s1.928-7.818,9.18-6.12,2.111,16.539-10.021,11.4Z" transform="translate(-318.126 -88.832)" fill="#ecbdbb"/>
      <path id="Caminho_201" data-name="Caminho 201" d="M351.127,127.564h-.107a.75.75,0,0,1-.658-.841,8.063,8.063,0,0,1,7.971-6.992.734.734,0,0,1,.78.75.75.75,0,0,1-.75.78,6.472,6.472,0,0,0-6.487,5.646A.765.765,0,0,1,351.127,127.564Z" transform="translate(-317.514 -88.198)" fill="#404b7c"/>
      <path id="Caminho_202" data-name="Caminho 202" d="M354.56,125.99a.765.765,0,0,1-.765-.734h0a5.691,5.691,0,0,0-1.53-3.274.77.77,0,1,1,1.163-1.01,7.221,7.221,0,0,1,1.851,4.253.765.765,0,0,1-.75.765Z" transform="translate(-316.602 -87.68)" fill="#404b7c"/>
      <path id="Caminho_203" data-name="Caminho 203" d="M328.89,125.075a76.406,76.406,0,0,1,26.392.918s2.111-8,5.34-11.123c0,0-2.387-12.24-17.38-9.929C329.257,106.991,328.89,125.075,328.89,125.075Z" transform="translate(-328.89 -96.189)" fill="#404b7c"/>
    </g>
    <g id="FACE" transform="translate(510.042 181.69)">
      <path id="Caminho_204" data-name="Caminho 204" d="M346.9,122.863a7.206,7.206,0,0,0-5.462-4.1c-.78-.168-1.178,2.341-1.178,2.341A17.487,17.487,0,0,1,346.9,122.863Z" transform="translate(-329.657 -118.755)" fill="#404b7c"/>
      <path id="Caminho_205" data-name="Caminho 205" d="M333.33,122.5a6.242,6.242,0,0,1,3.611-3.381c.872-.214.8,2.326.8,2.326a7.176,7.176,0,0,0-4.406,1.056Z" transform="translate(-333.33 -118.571)" fill="#404b7c"/>
      <ellipse id="Elipse_26" data-name="Elipse 26" cx="2.081" cy="1.683" rx="2.081" ry="1.683" transform="matrix(0.09, -0.996, 0.996, 0.09, 10.544, 10.234)" fill="#404b7c"/>
      <circle id="Elipse_27" data-name="Elipse 27" cx="0.444" cy="0.444" r="0.444" transform="translate(11.628 7.077)" fill="#fff"/>
      <ellipse id="Elipse_28" data-name="Elipse 28" cx="2.081" cy="1.683" rx="2.081" ry="1.683" transform="matrix(0.09, -0.996, 0.996, 0.09, 0.678, 9.334)" fill="#404b7c"/>
      <circle id="Elipse_29" data-name="Elipse 29" cx="0.444" cy="0.444" r="0.444" transform="translate(1.76 6.189)" fill="#fff"/>
      <path id="Caminho_206" data-name="Caminho 206" d="M338.606,131.472a2.907,2.907,0,0,1-3.06-1.912c-.581-2,2.356-5.538,2.953-6.227a.765.765,0,1,1,1.163.994c-1.53,1.7-2.876,4.024-2.647,4.8s1.928.78,1.943.78a.78.78,0,0,1,.872.643.765.765,0,0,1-.643.872A3.571,3.571,0,0,1,338.606,131.472Z" transform="translate(-332.195 -116.47)" fill="#404b7c"/>
      <path id="Caminho_207" data-name="Caminho 207" d="M336.78,131.454s4.116,3.412,7.65-1.744Z" transform="translate(-331.502 -112.949)" fill="#fff"/>
    </g>
  </g>
  <rect id="Ret창ngulo_35" data-name="Ret창ngulo 35" width="777" height="470" transform="translate(0 95)" fill="url(#linear-gradient)"/>
</svg>
